<svg width="69" height="58" viewBox="0 0 69 58" fill="none" xmlns="http://www.w3.org/2000/svg">
<path d="M64.1613 8.30924H23.5279C22.7009 8.30924 21.9381 7.81737 21.5843 7.05516L19.9866 3.61421C18.9675 1.41876 16.7686 0 14.3849 0H5.55827C2.49341 0 0.000244141 2.54035 0.000244141 5.66322V52.7729C0.000244141 55.6549 2.30179 58 5.13029 58H63.8697C66.6987 58 69.0002 55.6549 69.0002 52.7729V13.2397C69.0002 10.5213 66.8298 8.30924 64.1613 8.30924ZM5.55827 2.74632H14.3844C15.7315 2.74632 16.9739 3.54769 17.5503 4.7889L19.1475 8.22985C19.9445 9.94631 21.6638 11.0556 23.5274 11.0556H64.1613C65.3431 11.0556 66.3049 12.0356 66.3049 13.2397V14.2884C65.7469 14.0363 65.1299 13.8952 64.4814 13.8952H51.0738C48.9339 13.8952 47.0245 15.204 46.2064 17.1908H24.5776C23.8332 17.1908 23.2299 17.8055 23.2299 18.564C23.2299 19.3224 23.8332 19.9371 24.5776 19.9371H45.2862L44.136 23.4285C43.8965 24.1548 43.2305 24.6429 42.4783 24.6429H4.02426C3.5589 24.6429 3.11196 24.725 2.69556 24.8735V24.2626C2.69556 21.8778 4.60017 19.9371 6.94067 19.9371H13.7963C14.5407 19.9371 15.144 19.3224 15.144 18.564C15.144 17.8055 14.5407 17.1908 13.7963 17.1908H6.94067C5.34244 17.1908 3.87002 17.7454 2.69556 18.6739V5.66322C2.69556 4.05458 3.97952 2.74632 5.55827 2.74632ZM66.3049 52.7723C66.3049 54.1407 65.2126 55.2537 63.8697 55.2537H5.13081C3.7879 55.2537 2.69556 54.1407 2.69556 52.7723V28.7447C2.69556 27.9975 3.29147 27.3892 4.02426 27.3892H42.4783C44.3897 27.3892 46.0827 26.1491 46.6913 24.3028L48.6238 18.4368C48.9775 17.363 49.962 16.6415 51.0738 16.6415H64.4814C65.4869 16.6415 66.3049 17.4751 66.3049 18.4996V52.7723Z" fill="#EE414F"/>
<path d="M19.1865 19.9371H19.1896C19.934 19.9371 20.5357 19.3224 20.5357 18.564C20.5357 17.8055 19.9308 17.1908 19.1865 17.1908C18.4421 17.1908 17.8388 17.8055 17.8388 18.564C17.8388 19.3224 18.4421 19.9371 19.1865 19.9371Z" fill="#EE414F"/>
</svg>
