<svg width="69" height="69" viewBox="0 0 69 69" fill="none" xmlns="http://www.w3.org/2000/svg">
<g clip-path="url(#clip0)">
<path d="M38.6565 61.2221H30.5168C29.7725 61.2221 29.1692 61.8254 29.1692 62.5698C29.1692 63.3141 29.7725 63.9174 30.5168 63.9174H38.6565C39.4009 63.9174 40.0042 63.3141 40.0042 62.5698C40.0042 61.8254 39.4009 61.2221 38.6565 61.2221Z" fill="#EE414F"/>
<path d="M38.6565 42.6876H30.5168C29.7725 42.6876 29.1692 43.2909 29.1692 44.0353C29.1692 44.7796 29.7725 45.3829 30.5168 45.3829H38.6565C39.4009 45.3829 40.0042 44.7796 40.0042 44.0353C40.0042 43.2909 39.4009 42.6876 38.6565 42.6876Z" fill="#EE414F"/>
<path d="M60.2785 27.3491V17.8875C60.2785 16.692 59.3056 15.7192 58.1101 15.7192H55.0331V2.10098C55.0331 0.868082 54.0303 -0.134766 52.7974 -0.134766H45.6374C44.3687 -0.134766 43.2038 0.608553 42.67 1.75775L41.6324 3.9877C41.5281 4.21196 41.3007 4.35673 41.0528 4.35673H26.6354C24.2339 4.35673 22.2798 6.31083 22.2798 8.7124V10.3433H18.0762C15.8394 10.3433 14.0201 12.1637 14.0201 14.401V15.7192H11.0631C9.86762 15.7192 8.89478 16.692 8.89478 17.8875V27.3491C8.89478 28.0508 9.05849 28.7141 9.34856 29.3047L10.1187 34.4732C9.39541 34.8254 8.89478 35.5656 8.89478 36.4221V45.8846C8.89478 46.5853 9.05849 47.2486 9.34856 47.8393L10.1182 53.0083C9.39541 53.3599 8.89478 54.1001 8.89478 54.9566V64.4192C8.89478 66.8707 10.8894 68.8654 13.341 68.8654H55.8317C58.2833 68.8654 60.278 66.8707 60.278 64.4192V54.9566C60.278 54.1001 59.7773 53.3599 59.0545 53.0083L59.8242 47.8393C60.1142 47.2486 60.278 46.5853 60.278 45.8846V36.4221C60.278 35.5656 59.7773 34.8254 59.054 34.4732L59.8242 29.3047C60.1148 28.7141 60.2785 28.0508 60.2785 27.3491ZM57.5258 36.9495C57.5268 36.9495 57.5274 36.949 57.5284 36.949H57.5826V45.8846C57.5826 46.1615 57.5163 46.4226 57.4015 46.6553C57.3663 46.709 57.3342 46.7648 57.3068 46.8238C56.9957 47.3107 56.4513 47.6355 55.8317 47.6355H13.341C12.7209 47.6355 12.1765 47.3107 11.8654 46.8232C11.8386 46.7648 11.807 46.7095 11.7717 46.6564C11.6564 46.4232 11.5901 46.1615 11.5901 45.8846V36.949H11.6443C11.6454 36.949 11.6464 36.9495 11.6469 36.9495C11.6485 36.9495 11.6496 36.949 11.6506 36.949H22.9299L23.5237 39.4696C23.7933 40.613 24.8014 41.411 25.9758 41.411H43.1969C44.3714 41.411 45.3795 40.613 45.649 39.4696L46.2428 36.949H57.5221C57.5232 36.949 57.5242 36.9495 57.5258 36.9495ZM46.0507 52.7882C44.9073 52.7882 43.926 53.5658 43.6633 54.6786L43.0574 57.2502H26.1153L25.5094 54.6786C25.2472 53.5658 24.2655 52.7882 23.1226 52.7882H12.8109L12.4308 50.2366C12.7245 50.2982 13.0294 50.3308 13.341 50.3308H55.8317C56.1439 50.3308 56.4482 50.2982 56.7419 50.2366L56.3619 52.7882H46.0507ZM46.0507 34.2537C44.9073 34.2537 43.926 35.0312 43.6633 36.1436V36.1441L43.0574 38.7157H26.1153L25.5094 36.1436C25.2472 35.0307 24.2655 34.2537 23.1226 34.2537H12.8109L12.4308 31.7026C12.7245 31.7642 13.0288 31.7963 13.3405 31.7963H55.8323C56.1439 31.7963 56.4482 31.7637 56.7419 31.7026L56.3619 34.2537H46.0507ZM16.7154 14.401C16.7154 13.6498 17.3255 13.0386 18.0762 13.0386H33.4638C34.2081 13.0386 34.8114 12.4353 34.8114 11.6909C34.8114 10.9466 34.2081 10.3433 33.4638 10.3433H24.9751V8.7124C24.9751 7.79694 25.72 7.05205 26.6354 7.05205H41.0528C42.3446 7.05205 43.5312 6.29609 44.076 5.12479L45.1142 2.89378C45.2084 2.69111 45.4137 2.56055 45.6374 2.56055H52.3378V15.7192H50.2774V14.401C50.2774 12.1637 48.4575 10.3433 46.2207 10.3433H44.245C43.5007 10.3433 42.8974 10.9471 42.8974 11.6909C42.8974 12.4353 43.5007 13.0386 44.245 13.0386H46.2207C46.9714 13.0386 47.5821 13.6498 47.5821 14.401V15.7192H46.0512C44.9073 15.7192 43.9255 16.4967 43.6638 17.6091L43.0569 20.1812H26.1159L25.5094 17.6101C25.2478 16.4967 24.266 15.7192 23.1221 15.7192H16.7154V14.401ZM11.5901 18.4145H22.9299L23.5237 20.9329C23.7917 22.0774 24.8003 22.8765 25.9764 22.8765H43.1969C44.3729 22.8765 45.3811 22.0774 45.6485 20.9356L46.2434 18.4145H57.5832V27.3496C57.5832 27.626 57.5168 27.8871 57.4026 28.1197C57.3668 28.174 57.3342 28.2308 57.3063 28.2908C56.9951 28.7773 56.4513 29.1015 55.8323 29.1015H13.3405C12.7214 29.1015 12.1776 28.7773 11.8659 28.2903C11.8386 28.2308 11.8065 28.1745 11.7712 28.1208C11.6564 27.8876 11.5901 27.6265 11.5901 27.3496V18.4145ZM57.5826 64.4192C57.5826 65.3846 56.7972 66.1701 55.8317 66.1701H13.341C12.3755 66.1701 11.5901 65.3846 11.5901 64.4192V55.4835H11.6443C11.6454 55.4835 11.6464 55.4841 11.6469 55.4841C11.6485 55.4841 11.6496 55.4835 11.6506 55.4835H22.9299L23.5237 58.0041C23.7933 59.1475 24.8014 59.9456 25.9758 59.9456H43.1969C44.3708 59.9456 45.3795 59.1475 45.649 58.0041L46.2428 55.4835H57.5221C57.5232 55.4835 57.5242 55.4841 57.5253 55.4841C57.5263 55.4841 57.5274 55.4835 57.5284 55.4835H57.5826V64.4192Z" fill="#EE414F"/>
<path d="M30.5168 26.8485H38.656C39.4003 26.8485 40.0036 26.2446 40.0036 25.5008C40.0036 24.7564 39.4003 24.1531 38.656 24.1531H30.5168C29.7725 24.1531 29.1692 24.7564 29.1692 25.5008C29.1692 26.2446 29.7725 26.8485 30.5168 26.8485Z" fill="#EE414F"/>
<path d="M38.8506 13.0391H38.8538C39.5981 13.0391 40.1998 12.4358 40.1998 11.6915C40.1998 10.9471 39.595 10.3438 38.8506 10.3438C38.1062 10.3438 37.5029 10.9471 37.5029 11.6915C37.5029 12.4358 38.1062 13.0391 38.8506 13.0391Z" fill="#EE414F"/>
</g>
<defs>
<clipPath id="clip0">
<rect width="69" height="69" fill="white" transform="translate(0.000244141)"/>
</clipPath>
</defs>
</svg>
