<svg width="47" height="63" viewBox="0 0 47 63" fill="none" xmlns="http://www.w3.org/2000/svg">
<path d="M7.4213 25.4707C7.4213 26.1503 6.86762 26.7012 6.18446 26.7012C5.50129 26.7012 4.94761 26.1503 4.94761 25.4707C4.94761 24.7911 5.50129 24.2402 6.18446 24.2402C6.86762 24.2402 7.4213 24.7911 7.4213 25.4707Z" fill="#EE414F"/>
<path d="M22.8142 62.7933C23.0219 62.9308 23.2611 63 23.5002 63C23.7394 63 23.9786 62.9308 24.1863 62.7933L35.4343 55.3326C42.6766 50.53 47.0002 42.4925 47.0002 33.8326V8.64741C47.0002 8.11869 46.6601 7.64861 46.1562 7.48087L23.893 0.063446C23.6379 -0.0211487 23.3621 -0.0211487 23.1075 0.063446L0.844292 7.48087C0.339893 7.64861 0.000244141 8.11869 0.000244141 8.64741V33.8326C0.000244141 42.4925 4.32388 50.53 11.5662 55.3326L22.8142 62.7933ZM2.47393 33.8326V9.53325L23.5002 2.52775L44.5266 9.53325V33.8326C44.5266 41.6677 40.6146 48.9395 34.0622 53.2851L23.5002 60.2906L12.9383 53.2851C6.38592 48.94 2.47393 41.6677 2.47393 33.8326Z" fill="#EE414F"/>
<path d="M22.8142 56.8784C23.0219 57.0159 23.2611 57.0851 23.5002 57.0851C23.7394 57.0851 23.9786 57.0159 24.1863 56.8784L32.6896 51.238C38.5525 47.35 42.0529 40.8439 42.0529 33.834V12.1951C42.0529 11.6664 41.7132 11.1963 41.2093 11.0286L23.8935 5.25256C23.6384 5.16749 23.3621 5.16749 23.107 5.25256L5.79118 11.0286C5.28726 11.1963 4.94761 11.6664 4.94761 12.1951V20.5488C4.94761 21.228 5.50129 21.7793 6.18445 21.7793C6.86713 21.7793 7.4213 21.228 7.4213 20.5488V13.0805L23.5002 7.71687L39.5792 13.0805V33.834C39.5792 40.0196 36.4905 45.76 31.3175 49.1904L23.5002 54.3757L15.683 49.1899C10.5095 45.76 7.4213 40.0191 7.4213 33.834V30.3926C7.4213 29.7129 6.86713 29.1621 6.18445 29.1621C5.50129 29.1621 4.94761 29.7129 4.94761 30.3926V33.834C4.94761 40.8444 8.44797 47.3505 14.3109 51.238L22.8142 56.8784Z" fill="#EE414F"/>
<path d="M18.4031 40.3848C19.1037 41.0823 20.0356 41.4663 21.0266 41.4663C22.0175 41.4663 22.949 41.0823 23.65 40.3848L33.5448 30.5411C34.9947 29.0987 34.9951 26.7641 33.5448 25.3217C32.0948 23.8793 29.7482 23.8788 28.2978 25.3212L21.0266 32.5555L18.7027 30.2436C17.2532 28.8011 14.9061 28.8007 13.4557 30.2436C12.0053 31.686 12.0053 34.0205 13.4557 35.4635L18.4031 40.3848ZM15.2047 31.9835C15.6883 31.5029 16.4701 31.5029 16.9532 31.9835L20.1516 35.1655C20.6347 35.6456 21.4179 35.6456 21.901 35.1655L30.0468 27.0617C30.5304 26.581 31.3117 26.581 31.7958 27.0617C32.2789 27.5423 32.2789 28.32 31.7953 28.8011L21.9006 38.6449C21.6667 38.8775 21.3565 39.0059 21.0266 39.0059C20.6966 39.0059 20.3859 38.8775 20.1521 38.6449L15.2047 33.723C14.7216 33.2424 14.7211 32.4647 15.2047 31.9835Z" fill="#EE414F"/>
</svg>
