<svg width="58" height="58" viewBox="0 0 58 58" fill="none" xmlns="http://www.w3.org/2000/svg">
<path d="M30.1331 23.7891C30.1331 24.4148 29.6259 24.9219 29.0002 24.9219C28.3745 24.9219 27.8674 24.4148 27.8674 23.7891C27.8674 23.1634 28.3745 22.6562 29.0002 22.6562C29.6259 22.6562 30.1331 23.1634 30.1331 23.7891Z" fill="#EE414F"/>
<path d="M0.000244141 53.9219V56.8672C0.000244141 57.4929 0.507355 58 1.13306 58H19.2581C19.8838 58 20.3909 57.4929 20.3909 56.8672V53.9219C20.3909 48.31 15.8503 43.7266 10.1956 43.7266C4.57397 43.7266 0.000244141 48.3003 0.000244141 53.9219ZM10.1956 45.9922C14.5595 45.9922 18.1252 49.5229 18.1252 53.9219V55.7344H2.26587V53.9219C2.26587 49.5495 5.82317 45.9922 10.1956 45.9922Z" fill="#EE414F"/>
<path d="M47.8049 43.7266C42.1833 43.7266 37.6096 48.3003 37.6096 53.9219V56.8672C37.6096 57.4929 38.1167 58 38.7424 58H56.8674C57.4931 58 58.0002 57.4929 58.0002 56.8672V53.9219C58.0002 48.31 53.4597 43.7266 47.8049 43.7266ZM55.7346 55.7344H39.8752V53.9219C39.8752 49.5495 43.4325 45.9922 47.8049 45.9922C52.1689 45.9922 55.7346 49.5229 55.7346 53.9219V55.7344Z" fill="#EE414F"/>
<path d="M54.6018 36.9297C54.6018 33.568 52.1481 30.77 48.9377 30.2288V23.7891C48.9377 21.9151 47.4133 20.3906 45.5393 20.3906H38.6137C37.2273 16.4718 33.493 13.5938 29.0002 13.5938C24.6451 13.5938 20.8104 16.347 19.3855 20.3906H12.4612C10.5872 20.3906 9.06274 21.9151 9.06274 23.7891V30.2288C5.85237 30.77 3.39868 33.568 3.39868 36.9297C3.39868 40.6777 6.44754 43.7266 10.1956 43.7266C13.9436 43.7266 16.9924 40.6777 16.9924 36.9297C16.9924 33.568 14.5387 30.77 11.3284 30.2288V23.7891C11.3284 23.1642 11.8364 22.6549 12.4612 22.6549H18.8687C18.8271 23.0306 18.8049 23.4103 18.8049 23.7891V29C18.8049 29.6257 19.312 30.1328 19.9377 30.1328H38.0627C38.6884 30.1328 39.1956 29.6257 39.1956 29V23.7891C39.1956 23.4103 39.1734 23.0319 39.1318 22.6562H45.5393C46.1641 22.6562 46.6721 23.1642 46.6721 23.7891V30.2288C43.4617 30.77 41.0081 33.568 41.0081 36.9297C41.0081 40.6777 44.0569 43.7266 47.8049 43.7266C51.5529 43.7266 54.6018 40.6777 54.6018 36.9297ZM14.7268 36.9297C14.7268 39.4281 12.6939 41.4609 10.1956 41.4609C7.69717 41.4609 5.66431 39.4281 5.66431 36.9297C5.66431 34.4313 7.69717 32.3984 10.1956 32.3984C12.6939 32.3984 14.7268 34.4313 14.7268 36.9297ZM36.9299 27.8672H21.0706V23.7891C21.0706 23.1187 21.1546 22.4509 21.3201 21.8058C22.1259 18.6755 24.7363 16.3913 27.8674 15.9417V19.2578C27.8674 19.8835 28.3745 20.3906 29.0002 20.3906C29.6259 20.3906 30.1331 19.8835 30.1331 19.2578V15.9404C33.3461 16.3975 35.8989 18.7706 36.6804 21.8058C36.8459 22.4518 36.9299 23.1191 36.9299 23.7891V27.8672ZM47.8049 41.4609C45.3065 41.4609 43.2737 39.4281 43.2737 36.9297C43.2737 34.4313 45.3065 32.3984 47.8049 32.3984C50.3033 32.3984 52.3362 34.4313 52.3362 36.9297C52.3362 39.4281 50.3033 41.4609 47.8049 41.4609Z" fill="#EE414F"/>
<path d="M35.7971 6.79688C35.7971 3.04886 32.7483 0 29.0002 0C25.2522 0 22.2034 3.04886 22.2034 6.79688C22.2034 10.5449 25.2522 13.5938 29.0002 13.5938C32.7483 13.5938 35.7971 10.5449 35.7971 6.79688ZM29.0002 11.3281C26.5019 11.3281 24.469 9.29526 24.469 6.79688C24.469 4.29849 26.5019 2.26562 29.0002 2.26562C31.4986 2.26562 33.5315 4.29849 33.5315 6.79688C33.5315 9.29526 31.4986 11.3281 29.0002 11.3281Z" fill="#EE414F"/>
</svg>
