<svg width="126" height="131" viewBox="0 0 126 131" fill="none" xmlns="http://www.w3.org/2000/svg">
<g filter="url(#filter0_d)">
<circle cx="63" cy="63" r="58" fill="white"/>
</g>
<path d="M85.0636 62.411C86.2708 62.411 87.2509 61.4333 87.2509 60.2288C87.2509 59.0243 86.2708 58.0466 85.0636 58.0466C83.8563 58.0466 82.8763 59.0243 82.8763 60.2288C82.8763 61.4333 83.8563 62.411 85.0636 62.411Z" fill="black"/>
<path d="M26.422 61.1366C27.7779 66.8837 29.9225 72.4091 32.7967 77.5586C35.6727 82.7115 39.2518 87.4399 43.435 91.6133L43.505 91.6841V100.818C43.505 102.023 44.4842 103 45.6923 103H85.0636C86.2717 103 87.2508 102.023 87.2508 100.818V91.4326C92.9275 82.7072 96 72.4773 96 61.9507V44.9534C96 40.1406 92.0748 36.2246 87.2508 36.2246C85.4506 36.2246 83.776 36.7701 82.3833 37.7044C81.1862 34.3049 77.9386 31.8602 74.1271 31.8602C72.3269 31.8602 70.6522 32.4057 69.2595 33.34C68.0625 29.9405 64.8149 27.4958 61.0034 27.4958C59.4424 27.4958 57.9446 27.9032 56.6288 28.6644V8.72881C56.6288 3.90666 52.7139 0 47.8796 0C43.0556 0 39.1305 3.91603 39.1305 8.72881V40.1483L33.153 44.124C27.6002 47.8175 24.8943 54.654 26.422 61.1366ZM35.5804 47.7553L39.1305 45.3932V60.2288C39.1305 61.4341 40.1096 62.411 41.3178 62.411C42.5259 62.411 43.505 61.4341 43.505 60.2288C43.505 58.6382 43.505 10.045 43.505 8.72881C43.505 6.32242 45.4676 4.36441 47.8796 4.36441C50.2959 4.36441 52.2542 6.31816 52.2542 8.72881V51.5C52.2542 52.7053 53.2334 53.6822 54.4415 53.6822C55.6496 53.6822 56.6288 52.7053 56.6288 51.5V36.2246C56.6288 33.8139 58.5871 31.8602 61.0034 31.8602C63.4154 31.8602 65.3779 33.8182 65.3779 36.2246V51.5C65.3779 52.7053 66.3571 53.6822 67.5652 53.6822C68.7734 53.6822 69.7525 52.7053 69.7525 51.5V40.589C69.7525 38.1826 71.7151 36.2246 74.1271 36.2246C76.5391 36.2246 78.5017 38.1826 78.5017 40.589V51.5C78.5017 52.7053 79.4808 53.6822 80.689 53.6822C81.8971 53.6822 82.8763 52.7053 82.8763 51.5V44.9534C82.8763 42.547 84.8388 40.589 87.2508 40.589C89.6628 40.589 91.6254 42.547 91.6254 44.9534V61.9507C91.6254 71.7229 88.7426 81.3399 83.2437 89.5692C83.0044 89.9281 82.8763 90.3492 82.8763 90.7797V98.6356H47.8796V90.7797C47.8796 90.2009 47.6489 89.6459 47.2388 89.2368C46.7757 88.7108 41.3092 83.8401 36.6185 75.4352C33.9416 70.6378 31.9432 65.4908 30.6795 60.1376C29.5688 55.4203 31.5382 50.4439 35.5804 47.7553Z" fill="black"/>
<path d="M76.5707 87.7527C77.5737 88.4202 78.9323 88.1534 79.6038 87.1483C83.2342 81.7184 85.6069 75.7105 86.6561 69.2909C86.8501 68.1018 86.0409 66.98 84.849 66.7865C83.6563 66.5922 82.5327 67.3994 82.3379 68.5885C81.3904 74.3893 79.2467 79.8184 75.9649 84.7266C75.2942 85.7291 75.5659 87.0836 76.5707 87.7527Z" fill="black"/>
<defs>
<filter id="filter0_d" x="0" y="5" width="126" height="126" filterUnits="userSpaceOnUse" color-interpolation-filters="sRGB">
<feFlood flood-opacity="0" result="BackgroundImageFix"/>
<feColorMatrix in="SourceAlpha" type="matrix" values="0 0 0 0 0 0 0 0 0 0 0 0 0 0 0 0 0 0 127 0"/>
<feOffset dy="5"/>
<feGaussianBlur stdDeviation="2.5"/>
<feColorMatrix type="matrix" values="0 0 0 0 0 0 0 0 0 0 0 0 0 0 0 0 0 0 0.25 0"/>
<feBlend mode="normal" in2="BackgroundImageFix" result="effect1_dropShadow"/>
<feBlend mode="normal" in="SourceGraphic" in2="effect1_dropShadow" result="shape"/>
</filter>
</defs>
</svg>
