<svg width="22" height="22" viewBox="0 0 22 22" fill="none" xmlns="http://www.w3.org/2000/svg">
<path d="M21.8066 20.878L16.4602 15.5317C17.8944 13.8829 18.7627 11.7317 18.7627 9.38049C18.7627 4.20488 14.5529 0 9.38219 0C4.20658 0 0.00170898 4.20976 0.00170898 9.38049C0.00170898 14.5512 4.21146 18.761 9.38219 18.761C11.7334 18.761 13.8846 17.8927 15.5334 16.4585L20.8797 21.8049C21.0066 21.9317 21.1773 22 21.3432 22C21.509 22 21.6797 21.9366 21.8066 21.8049C22.0602 21.5512 22.0602 21.1317 21.8066 20.878ZM1.3139 9.38049C1.3139 4.93171 4.93341 1.31707 9.37731 1.31707C13.8261 1.31707 17.4407 4.93659 17.4407 9.38049C17.4407 13.8244 13.8261 17.4488 9.37731 17.4488C4.93341 17.4488 1.3139 13.8293 1.3139 9.38049Z" fill="black"/>
</svg>
