<svg width="20" height="20" viewBox="0 0 20 20" fill="none" xmlns="http://www.w3.org/2000/svg">
<path d="M13.9766 0H11.8933C10.2995 0 9.15463 0.378329 8.45888 1.13473C7.7629 1.89139 7.41523 3.00574 7.41523 4.47827V5.88189C7.41523 6.25283 7.11459 6.55347 6.74365 6.55347H6.02372C5.65278 6.55347 5.35214 6.8541 5.35214 7.22504V9.3284C5.35214 9.69934 5.65278 9.99998 6.02372 9.99998H6.74365C7.11459 9.99998 7.41523 10.3006 7.41523 10.6716V19.3284C7.41523 19.6993 7.71587 20 8.08681 20H10.8819C11.2528 20 11.5535 19.6993 11.5535 19.3284V10.6716C11.5535 10.3006 11.8541 10 12.225 10H13.6367C14.0077 10 14.3399 9.70095 14.3788 9.33224L14.6018 7.22124C14.6407 6.85235 14.3716 6.55347 14.0007 6.55347H12.2248C11.8539 6.55347 11.5533 6.25283 11.5533 5.88189V4.83019C11.5533 4.5714 11.5654 4.37106 11.5897 4.22936C11.6139 4.08787 11.6685 3.9484 11.7536 3.81072C11.8384 3.6733 11.9761 3.57816 12.1662 3.52552C12.3562 3.47292 12.6092 3.44651 12.9246 3.44651H13.9763C14.3472 3.44651 14.6478 3.14588 14.6478 2.77494V0.671577C14.6481 0.300637 14.3475 0 13.9766 0Z" fill="#3072A7"/>
</svg>
