<svg width="19" height="19" viewBox="0 0 19 19" fill="none" xmlns="http://www.w3.org/2000/svg">
<g clip-path="url(#clip0)">
<path d="M18.5811 2.92311H16.4952C16.2639 2.92311 16.0765 2.7358 16.0765 2.50451V0.418603C16.0765 0.187311 15.8892 0 15.6579 0H15.0336C14.8023 0 14.6151 0.187345 14.6151 0.418603V2.50451C14.6151 2.7358 14.4277 2.92311 14.1965 2.92311H12.1106C11.8792 2.92311 11.692 3.11045 11.692 3.34171V3.96606C11.692 4.19735 11.8793 4.38466 12.1106 4.38466H14.1965C14.4277 4.38466 14.6151 4.57201 14.6151 4.80327V6.88917C14.6151 7.12046 14.8024 7.30777 15.0336 7.30777H15.6579C15.8893 7.30777 16.0765 7.12046 16.0765 6.88917V4.80327C16.0765 4.57201 16.2639 4.38466 16.4952 4.38466H18.5811C18.8124 4.38466 18.9997 4.19732 18.9997 3.96606V3.34171C18.9997 3.11042 18.8124 2.92311 18.5811 2.92311Z" fill="#3072A7"/>
<path d="M1.22227 17.8419C1.57996 18.1045 1.99292 18.3251 2.46115 18.5043C2.92934 18.6828 3.3936 18.8105 3.85407 18.8867C4.31453 18.9627 4.76935 19.001 5.21849 19.001C7.25836 19.001 8.85699 18.5024 10.0142 17.5053C11.0798 16.5764 11.6129 15.5034 11.6129 14.2854C11.6129 13.8518 11.5501 13.4461 11.4245 13.0694C11.2989 12.6926 11.135 12.369 10.9335 12.0989C10.7317 11.8289 10.509 11.5777 10.2656 11.3454C10.022 11.1133 9.77839 10.9021 9.53493 10.7118C9.29129 10.5216 9.06861 10.3391 8.86704 10.1637C8.66526 9.98871 8.50159 9.80598 8.37604 9.61552C8.25046 9.42547 8.18767 9.23125 8.18767 9.03327C8.18767 8.75909 8.27518 8.50229 8.45035 8.26262C8.62535 8.02295 8.83862 7.79063 9.08978 7.56604C9.34095 7.34166 9.59211 7.09617 9.84347 6.82972C10.0946 6.56327 10.3077 6.21126 10.4829 5.77361C10.6578 5.33575 10.7456 4.83531 10.7456 4.27207C10.7456 3.60231 10.5972 2.95891 10.3002 2.34232C10.0685 1.86114 9.76273 1.46346 9.38281 1.14931C9.20469 1.00194 9.23171 0.903582 9.46276 0.903582H10.167C10.3984 0.903582 10.7474 0.808952 10.947 0.69216L11.7659 0.212853C11.9654 0.096061 11.9399 0.00146484 11.7085 0.00146484H7.13736C6.4295 0.00146484 5.71747 0.0776616 5.00208 0.229816C3.94384 0.46569 3.05345 1.00464 2.33034 1.84564C1.60702 2.68682 1.24553 3.6402 1.24553 4.70576C1.24553 5.83243 1.65093 6.76885 2.46156 7.51478C3.27219 8.26074 4.24459 8.63372 5.37882 8.63372C5.50146 8.63372 5.63477 8.62828 5.77923 8.61737C6.00006 8.60065 6.1635 8.63266 6.1411 8.70048C6.12895 8.7371 6.11452 8.7777 6.09797 8.8223C6.05987 8.92506 6.02954 9.0069 6.00673 9.06781C5.98391 9.12872 5.96487 9.20304 5.94958 9.29028C5.93409 9.37797 5.92677 9.46733 5.92677 9.55861C5.92677 9.96904 6.08918 10.4226 6.41445 10.9195C6.54106 11.1129 6.4701 11.2644 6.23945 11.2774C5.80348 11.3023 5.37212 11.3477 4.94493 11.4141C4.38149 11.5017 3.79169 11.6388 3.1751 11.8253C2.55848 12.0118 2.00657 12.282 1.51953 12.636C1.03226 12.9899 0.666835 13.4105 0.423403 13.8977C0.1417 14.4613 0.0010376 14.9749 0.0010376 15.4389C0.0010376 15.9492 0.115333 16.4114 0.343683 16.8264C0.571555 17.2405 0.864372 17.5792 1.22227 17.8419ZM5.4242 7.65116C5.07403 7.45335 4.77704 7.19634 4.53361 6.88051C4.28997 6.56468 4.07691 6.20886 3.89418 5.81287C3.71145 5.41707 3.57626 5.02108 3.48878 4.62529C3.40126 4.2297 3.35756 3.85275 3.35756 3.49485C3.35756 2.76397 3.55178 2.13607 3.93984 1.61093C4.32811 1.0858 4.87605 0.823145 5.58412 0.823145C6.08644 0.823145 6.54127 0.979266 6.94855 1.29154C7.35563 1.60382 7.67526 1.99941 7.90757 2.47892C8.13969 2.95864 8.31865 3.45532 8.44423 3.96917C8.56981 4.48298 8.6326 4.96814 8.6326 5.42504C8.6326 6.0023 8.53736 6.49293 8.34711 6.89706C8.24875 7.10616 8.02939 7.41635 7.84875 7.56036C7.52413 7.81905 7.085 7.94839 6.53162 7.94839C6.14359 7.94815 5.77417 7.84938 5.4242 7.65116ZM2.42117 13.6916C2.62671 13.3339 2.88936 13.0484 3.20899 12.8351C3.52859 12.6221 3.90157 12.4469 4.3279 12.31C4.75403 12.1729 5.16511 12.0779 5.5611 12.0245C5.9569 11.9711 6.36045 11.9443 6.7715 11.9443C6.87782 11.9443 6.97307 11.9458 7.05741 11.9485C7.21524 11.9537 7.42078 12.0203 7.51684 12.0866C7.56561 12.1203 7.62358 12.1606 7.69075 12.207C7.87724 12.3366 8.00282 12.4241 8.06749 12.4695C8.13196 12.5151 8.25022 12.6028 8.42142 12.7322C8.59263 12.8617 8.71444 12.9589 8.78688 13.0235C8.85907 13.0883 8.96393 13.1853 9.10083 13.3147C9.23794 13.4442 9.33862 13.5564 9.4035 13.6517C9.46796 13.7469 9.54796 13.8629 9.64334 13.9998C9.73838 14.1369 9.80493 14.2681 9.84327 14.3939C9.88113 14.5194 9.91755 14.6563 9.95168 14.8049C9.98602 14.9534 10.0032 15.1076 10.0032 15.2671C10.0032 15.7468 9.89833 16.1654 9.68923 16.5231C9.47973 16.8808 9.19632 17.1607 8.83859 17.3627C8.48069 17.5642 8.0983 17.7126 7.69099 17.8078C7.28367 17.9031 6.85546 17.9506 6.40648 17.9506C5.91924 17.9506 5.43597 17.8934 4.95646 17.7794C4.47694 17.6651 4.01816 17.4922 3.58071 17.2599C3.14285 17.0276 2.78892 16.708 2.51871 16.3007C2.2485 15.8934 2.11331 15.4312 2.11331 14.9134C2.11286 14.4564 2.21563 14.0495 2.42117 13.6916Z" fill="#3072A7"/>
</g>
<defs>
<clipPath id="clip0">
<rect width="19" height="19" fill="white"/>
</clipPath>
</defs>
</svg>
