<svg width="22" height="22" viewBox="0 0 22 22" fill="none" xmlns="http://www.w3.org/2000/svg">
<g clip-path="url(#clip0)">
<path d="M21.3515 4.31749C21.243 4.34917 21.1346 4.37867 21.0261 4.40615C20.3631 4.57355 20.3022 4.35265 20.7822 3.8653C20.9971 3.64691 21.1871 3.40938 21.352 3.15284C21.7217 2.57755 21.4011 2.32667 20.772 2.59539C20.5477 2.69125 20.3196 2.77817 20.0883 2.85566C19.4402 3.07332 18.5205 2.74499 17.9429 2.37871C17.2139 1.91636 16.3853 1.6853 15.4569 1.6853C14.1565 1.6853 13.048 2.14393 12.131 3.06045C11.2142 3.97746 10.7556 5.0862 10.7556 6.38629C10.7556 6.56409 10.7658 6.7446 10.7858 6.92762C10.8188 7.22552 10.317 7.44148 9.63999 7.34587C8.17541 7.13909 6.78391 6.69531 5.46521 6.01502C4.15739 5.34044 3.00313 4.49153 2.00264 3.46826C1.52439 2.9792 0.877561 3.02132 0.69899 3.68151C0.592002 4.07725 0.53879 4.48882 0.53879 4.91629C0.53879 5.72186 0.727963 6.469 1.10639 7.1577C1.29459 7.50044 1.515 7.81072 1.76811 8.08835C2.19384 8.55568 2.12869 8.82683 1.53608 8.66068C0.943721 8.49454 0.509615 8.24786 0.509615 8.26397C0.509615 8.28007 0.509615 8.29318 0.509615 8.29318C0.509615 9.42814 0.865988 10.4254 1.57918 11.284C2.0185 11.8129 2.52888 12.2215 3.11012 12.5093C3.72304 12.8129 4.00856 12.9823 3.66582 13.0266C3.45905 13.0534 3.25102 13.0667 3.04177 13.0667C2.90015 13.0667 2.75156 13.0603 2.59654 13.0472C2.35137 13.0264 2.3073 13.5372 2.67901 14.1113C2.97444 14.5675 3.35258 14.9689 3.81323 15.3156C4.28178 15.6685 4.78673 15.9218 5.3273 16.0761C5.98506 16.2636 6.11705 16.6051 5.5306 16.9567C4.07941 17.8275 2.47345 18.2628 0.712951 18.2628C0.514593 18.2628 0.32538 18.2584 0.144624 18.2497C-0.169139 18.2346 0.0413579 18.511 0.647074 18.8282C2.53981 19.8195 4.58955 20.3148 6.79658 20.3148C8.46522 20.3148 10.0323 20.0506 11.4976 19.5218C12.9624 18.9931 14.2142 18.2846 15.2524 17.3968C16.2905 16.509 17.1857 15.488 17.9378 14.3332C18.6897 13.1784 19.2498 11.9729 19.6188 10.7166C19.9873 9.46006 20.1718 8.20105 20.1718 6.93956C20.1718 6.82589 20.1708 6.72384 20.1691 6.63397C20.1656 6.46507 20.6124 6.0079 21.1111 5.54013C21.3362 5.3289 21.5509 5.10724 21.756 4.87473C22.2084 4.36131 22.008 4.12605 21.3515 4.31749Z" fill="#3072A7"/>
</g>
<defs>
<clipPath id="clip0">
<rect width="22" height="22" fill="white"/>
</clipPath>
</defs>
</svg>
