<svg width="26" height="26" viewBox="0 0 26 26" fill="none" xmlns="http://www.w3.org/2000/svg">
<g clip-path="url(#clip0)">
<path d="M23.053 11.7848C23.4227 11.3068 23.7162 10.9233 23.933 10.634C25.4942 8.55831 26.1709 7.23237 25.9635 6.65428L25.8821 6.51889C25.8281 6.43757 25.6879 6.36289 25.4625 6.2953C25.2368 6.22775 24.9481 6.21696 24.5963 6.26155L20.6976 6.28905C20.6074 6.28006 20.5171 6.28216 20.4268 6.2953C20.3366 6.30902 20.278 6.3228 20.2508 6.33593C20.2235 6.34971 20.2011 6.36075 20.1832 6.36973L20.1291 6.41037C20.084 6.43728 20.0344 6.4848 19.9803 6.55269C19.9262 6.62053 19.8807 6.69917 19.8449 6.78972C19.4207 7.88161 18.938 8.89702 18.3964 9.83561C18.0625 10.3952 17.7555 10.8806 17.4761 11.2907C17.1963 11.7017 16.9616 12.0039 16.7721 12.1976C16.5826 12.3916 16.411 12.5476 16.2577 12.6645C16.1041 12.7822 15.9869 12.8316 15.9059 12.8137C15.8246 12.7957 15.7478 12.7778 15.6757 12.7592C15.5493 12.6783 15.4477 12.5679 15.3712 12.4278C15.2944 12.2882 15.2427 12.1121 15.2154 11.8999C15.1885 11.688 15.1724 11.5051 15.1682 11.3514C15.1634 11.1981 15.1658 10.9817 15.1751 10.7016C15.1841 10.4218 15.1885 10.2326 15.1885 10.1331C15.1885 9.79048 15.1954 9.41806 15.2089 9.01634C15.2224 8.61492 15.2337 8.29657 15.2427 8.06189C15.2517 7.82755 15.2561 7.57914 15.2561 7.3173C15.2561 7.05605 15.2403 6.85038 15.2085 6.70127C15.1768 6.55269 15.1293 6.40832 15.0665 6.26814C15.0032 6.12855 14.9108 6.02003 14.7888 5.94354C14.6669 5.86672 14.5159 5.80606 14.3354 5.76058C13.8568 5.65206 13.2477 5.59408 12.5079 5.58456C10.8292 5.56722 9.75076 5.6754 9.27251 5.90975C9.08301 6.00928 8.91143 6.14438 8.75811 6.31596C8.59552 6.51474 8.5731 6.62322 8.69057 6.64056C9.23217 6.72188 9.61543 6.91617 9.84107 7.22284L9.92239 7.38514C9.98545 7.5029 10.0485 7.71038 10.1119 8.00806C10.175 8.3058 10.2156 8.63519 10.2339 8.99627C10.279 9.65504 10.279 10.2188 10.2339 10.6884C10.1887 11.158 10.146 11.5233 10.1054 11.7845C10.0647 12.0464 10.0037 12.2583 9.92269 12.4206C9.84136 12.5835 9.7873 12.6827 9.76009 12.7189C9.73289 12.7547 9.71047 12.7774 9.69254 12.7865C9.57508 12.8313 9.45342 12.854 9.32702 12.854C9.20057 12.854 9.04721 12.7906 8.86669 12.6642C8.68612 12.5383 8.49872 12.3644 8.30501 12.1432C8.11072 11.9223 7.89221 11.6129 7.64829 11.2157C7.40467 10.819 7.15177 10.3494 6.89023 9.80811L6.67381 9.41533C6.53843 9.16306 6.35337 8.79509 6.11873 8.31235C5.8841 7.8296 5.67633 7.36272 5.49611 6.91109C5.42377 6.72188 5.31554 6.5775 5.17121 6.47796L5.10367 6.43733C5.05854 6.40143 4.9862 6.36289 4.88696 6.3225C4.78742 6.28187 4.68402 6.25256 4.5755 6.23434L0.866346 6.26126C0.487338 6.26126 0.230286 6.34736 0.0948985 6.51889L0.0407824 6.59992C0.0134313 6.64534 0 6.71768 0 6.81663C0 6.91617 0.0272046 7.03783 0.0813207 7.18191C0.622921 8.45467 1.2118 9.682 1.84786 10.8639C2.48426 12.0464 3.03695 12.9987 3.50622 13.7205C3.97548 14.443 4.45374 15.1239 4.94127 15.7647C5.4288 16.4056 5.7513 16.816 5.90911 16.9962C6.06691 17.1771 6.19097 17.3125 6.28128 17.4024L6.61965 17.7276C6.83606 17.9441 7.15441 18.2035 7.57411 18.506C7.99375 18.8085 8.45828 19.1062 8.96852 19.3992C9.47818 19.6927 10.0718 19.9315 10.7485 20.1168C11.4252 20.3021 12.084 20.3765 12.7249 20.3401H14.2816C14.5976 20.3132 14.8366 20.2143 14.999 20.0424L15.0531 19.9748C15.0889 19.921 15.123 19.8373 15.1547 19.7246C15.1861 19.6119 15.2023 19.4876 15.2023 19.3525C15.1929 18.9645 15.2226 18.6142 15.2901 18.3033C15.3577 17.9919 15.4345 17.7575 15.5203 17.5991C15.6061 17.4416 15.7029 17.3083 15.8114 17.1997C15.9197 17.0912 15.9961 17.0264 16.0416 17.0037C16.0867 16.9815 16.1229 16.9657 16.1498 16.9561C16.3662 16.884 16.6212 16.954 16.9147 17.1659C17.2079 17.3785 17.4833 17.6397 17.7406 17.9512C17.9976 18.2626 18.3067 18.612 18.6678 19.0003C19.0286 19.3883 19.3445 19.677 19.6153 19.8665L19.8862 20.0295C20.0666 20.1374 20.301 20.2366 20.5901 20.3272C20.8788 20.4172 21.1317 20.4399 21.3481 20.3947L24.8136 20.3403C25.1565 20.3403 25.4228 20.2842 25.6124 20.1712C25.8018 20.0591 25.9146 19.9341 25.9507 19.799C25.9866 19.6636 25.989 19.5109 25.9576 19.339C25.926 19.1677 25.8943 19.0481 25.8629 18.9806C25.8313 18.9131 25.8019 18.8562 25.7747 18.8114C25.3234 17.9993 24.4616 17.0018 23.1891 15.8196L23.1619 15.7927L23.1485 15.779L23.135 15.7658H23.1214C22.5437 15.2152 22.1784 14.8452 22.025 14.6554C21.7453 14.2949 21.6819 13.9293 21.8356 13.5593C21.9431 13.2787 22.3491 12.6875 23.053 11.7848Z" fill="white"/>
</g>
<defs>
<clipPath id="clip0">
<rect width="26" height="26" fill="white"/>
</clipPath>
</defs>
</svg>
