<svg width="61" height="63" viewBox="0 0 61 63" fill="none" xmlns="http://www.w3.org/2000/svg">
<g clip-path="url(#clip0)">
<path d="M20.6282 7.94378C21.275 7.94378 21.8 7.40406 21.8 6.73916C21.8 6.07427 21.275 5.53455 20.6282 5.53455C19.9814 5.53455 19.4563 6.07427 19.4563 6.73916C19.4563 7.40406 19.9814 7.94378 20.6282 7.94378Z" fill="#EE414F"/>
<path d="M12.8938 25.5312C13.5406 25.5312 14.0657 24.9915 14.0657 24.3266C14.0657 23.6617 13.5406 23.1219 12.8938 23.1219C12.247 23.1219 11.7219 23.6617 11.7219 24.3266C11.7219 24.9915 12.247 25.5312 12.8938 25.5312Z" fill="#EE414F"/>
<path d="M56.4875 18.3035H55.3157V15.8943C55.3157 14.7094 54.9009 13.59 54.1438 12.7096V9.87118C54.1438 7.87838 52.5668 6.25732 50.6282 6.25732C48.6895 6.25732 47.1125 7.87838 47.1125 9.87118V12.711C46.3627 13.5843 45.9407 14.716 45.9407 15.8943V49.1417C45.9407 55.1531 49.2901 58.8648 49.4563 59.1801V61.1879C49.4563 61.8533 49.9809 62.3925 50.6282 62.3925C51.2755 62.3925 51.8 61.8533 51.8 61.1879V59.1801C51.9658 58.8653 55.3157 55.1851 55.3157 49.1417V20.7127H56.4875C57.1339 20.7127 57.6594 21.2529 57.6594 21.9174V31.5543C57.6594 32.2197 58.184 32.7589 58.8313 32.7589C59.4786 32.7589 60.0032 32.2197 60.0032 31.5543V21.9174C60.0032 19.9246 58.4262 18.3035 56.4875 18.3035ZM48.2844 15.8943C48.2844 14.5715 49.3327 13.485 50.6282 13.485C51.8902 13.485 52.9719 14.5344 52.9719 15.8943V18.3035H48.2844V15.8943ZM50.6282 8.66656C51.2745 8.66656 51.8 9.20676 51.8 9.87118V11.2301C51.4206 11.129 51.0269 11.0758 50.6282 11.0758C50.229 11.0758 49.8358 11.129 49.4563 11.2297V9.87118C49.4563 9.20676 49.9818 8.66656 50.6282 8.66656ZM50.6282 56.76C49.3387 54.8717 48.5458 52.6403 48.3389 50.3449H52.9174C52.7105 52.6403 51.9177 54.8717 50.6282 56.76ZM52.9719 47.9371H48.2844V20.7127H52.9719V47.9371Z" fill="#EE414F"/>
<path d="M37.7375 62.3925C39.6762 62.3925 41.2532 60.7715 41.2532 58.7787V13.9669C41.2532 11.9741 39.6762 10.353 37.7375 10.353H31.6768C31.1929 8.95076 29.8901 7.94377 28.3625 7.94377H26.3649C26.4464 7.54898 26.4875 7.14666 26.4875 6.73916C26.4875 3.41799 23.8591 0.716064 20.6282 0.716064C17.3973 0.716064 14.7688 3.41799 14.7688 6.73916C14.7688 7.14666 14.81 7.54898 14.8915 7.94377H12.8938C11.3662 7.94377 10.0634 8.95076 9.57959 10.353H3.5188C1.58017 10.353 0.00317383 11.9741 0.00317383 13.9669V58.7787C0.00317383 60.7715 1.58017 62.3925 3.5188 62.3925H37.7375ZM34.2219 49.641V55.1648H28.8482L34.2219 49.641ZM27.1907 53.4609V47.9371H32.5644L27.1907 53.4609ZM34.2219 45.5279H26.0188C25.3715 45.5279 24.8469 46.0671 24.8469 46.7325V55.1648H7.03442V17.5807H34.2219V45.5279ZM12.8938 10.353H16.5921C17.0118 10.353 17.3991 10.1224 17.6083 9.74882C17.817 9.3752 17.8161 8.915 17.6051 8.54232C17.2783 7.96542 17.1125 7.35841 17.1125 6.73916C17.1125 4.74636 18.6895 3.1253 20.6282 3.1253C22.5668 3.1253 24.1438 4.74636 24.1438 6.73916C24.1438 7.35841 23.9781 7.96542 23.6512 8.54232C23.4402 8.915 23.4388 9.3752 23.648 9.74882C23.8572 10.1229 24.2445 10.353 24.6643 10.353H28.3625C29.0089 10.353 29.5344 10.8932 29.5344 11.5576V15.1715H11.7219V11.5576C11.7219 10.8932 12.2474 10.353 12.8938 10.353ZM2.34692 58.7787V13.9669C2.34692 13.3024 2.87244 12.7622 3.5188 12.7622H9.37817V15.1715H5.86255C5.21527 15.1715 4.69067 15.7107 4.69067 16.3761V56.3694C4.69067 57.0348 5.21527 57.5741 5.86255 57.5741H35.3938C36.0411 57.5741 36.5657 57.0348 36.5657 56.3694C36.5657 52.2803 36.5657 26.1015 36.5657 16.3761C36.5657 15.7107 36.0411 15.1715 35.3938 15.1715H31.8782V12.7622H37.7375C38.3839 12.7622 38.9094 13.3024 38.9094 13.9669V58.7787C38.9094 59.4431 38.3839 59.9833 37.7375 59.9833H3.5188C2.87244 59.9833 2.34692 59.4431 2.34692 58.7787Z" fill="#EE414F"/>
<path d="M28.3625 23.1219H17.5813C16.934 23.1219 16.4094 23.6612 16.4094 24.3266C16.4094 24.9919 16.934 25.5312 17.5813 25.5312H28.3625C29.0098 25.5312 29.5344 24.9919 29.5344 24.3266C29.5344 23.6612 29.0098 23.1219 28.3625 23.1219Z" fill="#EE414F"/>
<path d="M28.3625 35.8909H12.8938C12.2465 35.8909 11.7219 36.4301 11.7219 37.0955C11.7219 37.7608 12.2465 38.3001 12.8938 38.3001H28.3625C29.0098 38.3001 29.5344 37.7608 29.5344 37.0955C29.5344 36.4301 29.0098 35.8909 28.3625 35.8909Z" fill="#EE414F"/>
<path d="M28.3625 40.7094H12.8938C12.2465 40.7094 11.7219 41.2486 11.7219 41.914C11.7219 42.5793 12.2465 43.1186 12.8938 43.1186H28.3625C29.0098 43.1186 29.5344 42.5793 29.5344 41.914C29.5344 41.2486 29.0098 40.7094 28.3625 40.7094Z" fill="#EE414F"/>
<path d="M28.3625 31.0724H12.8938C12.2465 31.0724 11.7219 31.6116 11.7219 32.277C11.7219 32.9424 12.2465 33.4816 12.8938 33.4816H28.3625C29.0098 33.4816 29.5344 32.9424 29.5344 32.277C29.5344 31.6116 29.0098 31.0724 28.3625 31.0724Z" fill="#EE414F"/>
</g>
<defs>
<clipPath id="clip0">
<rect width="60" height="61.6765" fill="white" transform="translate(0.00317383 0.716064)"/>
</clipPath>
</defs>
</svg>
