<svg width="61" height="63" viewBox="0 0 61 63" fill="none" xmlns="http://www.w3.org/2000/svg">
<g clip-path="url(#clip0)">
<path d="M36.4488 35.7191C30.7624 35.7191 26.1363 30.9637 26.1363 25.1185C26.1363 19.2733 30.7624 14.5178 36.4488 14.5178C42.1351 14.5178 46.7613 19.2733 46.7613 25.1185C46.7613 30.9637 42.1351 35.7191 36.4488 35.7191ZM36.4488 16.9271C32.0547 16.9271 28.48 20.6016 28.48 25.1185C28.48 29.6353 32.0547 33.3099 36.4488 33.3099C40.8428 33.3099 44.4175 29.6353 44.4175 25.1185C44.4175 20.6016 40.8428 16.9271 36.4488 16.9271Z" fill="#EE414F"/>
<path d="M58.9561 7.75836L49.6557 17.3191C50.9448 19.6168 51.6831 22.2806 51.6831 25.1185C51.6831 29.3069 50.075 33.116 47.4607 35.929L47.4607 49.4532C47.4598 49.4532 47.4589 49.4532 47.458 49.4532C47.458 49.7666 47.3417 50.0743 47.1179 50.3049L35.6349 62.1088C35.4106 62.3393 35.1107 62.4584 34.8058 62.4584C34.8058 62.4598 34.8058 62.4603 34.8063 62.4617L3.6358 62.4617C1.69717 62.4617 0.120178 60.8406 0.120179 58.8478L0.120183 4.39906C0.120183 2.40627 1.69718 0.78521 3.63581 0.78521L43.9456 0.785214C45.8837 0.785214 47.4612 2.40627 47.4612 4.39907L47.4612 8.02139L53.3366 1.98136C54.1111 1.18519 55.1287 0.787095 56.1468 0.787095C57.1644 0.787095 58.182 1.18519 58.9565 1.98136C60.5056 3.57419 60.5056 6.16553 58.9561 7.75836ZM36.4488 11.8677C29.3411 11.8677 23.5581 17.8122 23.5581 25.1185C23.5581 32.4248 29.3411 38.3693 36.4488 38.3693C43.5565 38.3693 49.3394 32.4248 49.3394 25.1185C49.3394 17.8122 43.5565 11.8677 36.4488 11.8677ZM35.9782 58.3486L43.4599 50.6574L37.1501 50.6574C36.5037 50.6574 35.9782 51.198 35.9782 51.862L35.9782 58.3486ZM45.1174 4.39907C45.1174 3.73465 44.5915 3.19445 43.9456 3.19445L3.63581 3.19445C2.98945 3.19445 2.46393 3.73464 2.46393 4.39906L2.46393 58.8478C2.46393 59.5122 2.98944 60.0524 3.6358 60.0524L33.6344 60.0524L33.6344 51.8624C33.6344 49.8696 35.2114 48.2486 37.1501 48.2486L45.117 48.2486L45.117 37.9886C42.6551 39.7466 39.6673 40.7785 36.4488 40.7785C28.0483 40.7785 21.2144 33.7536 21.2144 25.1185C21.2144 23.4325 21.4762 21.8077 21.9583 20.2845L7.63803 20.2845C6.99121 20.2845 6.46616 19.7452 6.46616 19.0799C6.46616 18.415 6.99121 17.8753 7.63803 17.8753L22.6023 17.8753C22.7127 17.8753 22.8198 17.8922 22.9209 17.9219C25.4606 12.8982 30.5711 9.45846 36.4488 9.45847C39.2091 9.45847 41.8005 10.2175 44.0357 11.5425L45.1174 10.4306L45.1174 4.39907ZM57.299 3.68524C56.6636 3.03164 55.6295 3.03164 54.9941 3.68524L46.0014 12.9293C46.8492 13.6328 47.6219 14.427 48.3062 15.2985L57.299 6.05495C57.9348 5.40135 57.9348 4.33837 57.299 3.68524Z" fill="#EE414F"/>
<path d="M36.4488 30.5388C35.8015 30.5388 35.2769 29.9996 35.2769 29.3342C35.2769 28.6688 35.8015 28.1296 36.4488 28.1296C38.0638 28.1296 39.378 26.7786 39.378 25.1185C39.378 24.4531 39.9026 23.9139 40.5499 23.9139C41.1971 23.9139 41.7217 24.4531 41.7217 25.1185C41.7217 28.1075 39.3565 30.5388 36.4488 30.5388Z" fill="#EE414F"/>
<path d="M18.1845 28.6368L7.63803 28.6368C6.99121 28.6368 6.46616 28.0976 6.46616 27.4322C6.46616 26.7669 6.99121 26.2276 7.63804 26.2276L18.1845 26.2276C18.8317 26.2276 19.3563 26.7669 19.3563 27.4322C19.3563 28.0976 18.8317 28.6368 18.1845 28.6368Z" fill="#EE414F"/>
<path d="M18.8789 36.9886L7.63803 36.9886C6.99121 36.9886 6.46616 36.4494 6.46616 35.784C6.46616 35.1191 6.99121 34.5794 7.63803 34.5794L18.8789 34.5794C19.5262 34.5794 20.0508 35.1191 20.0508 35.784C20.0508 36.4494 19.5262 36.9886 18.8789 36.9886Z" fill="#EE414F"/>
<path d="M22.3858 11.9326C22.0773 11.9326 21.7752 11.8042 21.5573 11.5797C21.3394 11.3557 21.2139 11.0452 21.2139 10.728C21.2139 10.4113 21.3394 10.1003 21.5573 9.87677C21.7752 9.65231 22.0773 9.52338 22.3858 9.52338C22.6939 9.52338 22.9965 9.65231 23.2153 9.87677C23.4332 10.1003 23.5577 10.4113 23.5577 10.728C23.5577 11.0452 23.4332 11.3557 23.2153 11.5797C22.9965 11.8042 22.6939 11.9326 22.3858 11.9326Z" fill="#EE414F"/>
<path d="M17.5729 11.9326L7.63803 11.9326C6.99121 11.9326 6.46616 11.3934 6.46616 10.728C6.46616 10.0631 6.99121 9.52338 7.63804 9.52338L17.5729 9.52338C18.2197 9.52338 18.7448 10.0631 18.7448 10.728C18.7448 11.3934 18.2202 11.9326 17.5729 11.9326Z" fill="#EE414F"/>
<path d="M7.63758 42.9313C7.94702 42.9313 8.24823 43.0603 8.46613 43.2843C8.6854 43.5097 8.80945 43.8188 8.80945 44.136C8.80945 44.4526 8.6854 44.7632 8.46613 44.9886C8.24823 45.2126 7.94565 45.3406 7.63758 45.3406C7.3295 45.3406 7.02829 45.2126 6.80902 44.9886C6.59113 44.7646 6.4657 44.4541 6.4657 44.136C6.4657 43.8188 6.59113 43.5082 6.80902 43.2843C7.02738 43.0603 7.3295 42.9313 7.63758 42.9313Z" fill="#EE414F"/>
<path d="M30.1202 45.3406L12.6052 45.3406C11.9584 45.3406 11.4334 44.8013 11.4334 44.136C11.4334 43.4711 11.9584 42.9313 12.6052 42.9313L30.1202 42.9313C30.7675 42.9313 31.2921 43.4711 31.2921 44.136C31.2921 44.8013 30.7675 45.3406 30.1202 45.3406Z" fill="#EE414F"/>
<path d="M7.63803 51.2836L30.1202 51.2836C30.7675 51.2836 31.2921 51.8229 31.2921 52.4883C31.2921 53.1536 30.7675 53.6929 30.1202 53.6929L7.63803 53.6929C6.99121 53.6929 6.46616 53.1536 6.46616 52.4883C6.46616 51.8229 6.99121 51.2836 7.63803 51.2836Z" fill="#EE414F"/>
</g>
<defs>
<clipPath id="clip0">
<rect width="60" height="61.6765" fill="white" transform="matrix(1 8.98655e-08 8.50465e-08 -1 0.00299072 62.4617)"/>
</clipPath>
</defs>
</svg>
