<svg width="61" height="63" viewBox="0 0 61 63" fill="none" xmlns="http://www.w3.org/2000/svg">
<g clip-path="url(#clip0)">
<path d="M58.8314 16.6862H35.8627V11.1996L44.8497 2.88517C45.2104 2.55149 45.3336 2.02399 45.1599 1.55816C44.9861 1.0927 44.5511 0.785278 44.0658 0.785278H34.6908C34.4013 0.785278 34.122 0.89538 33.9069 1.0945L30.0033 4.70595L26.0997 1.0945C25.8846 0.89538 25.6052 0.785278 25.3158 0.785278H15.9408C15.4555 0.785278 15.0205 1.0927 14.8467 1.55828C14.6729 2.02399 14.7962 2.55161 15.1569 2.88529L24.1439 11.1996V16.6862H1.17517C0.527944 16.6862 0.0032959 17.2257 0.0032959 17.8909V61.2571C0.0032959 61.9223 0.527944 62.4617 1.17517 62.4617H58.8314C59.4786 62.4617 60.0033 61.9223 60.0033 61.2571V17.8909C60.0033 17.2257 59.4786 16.6862 58.8314 16.6862ZM35.1404 3.19451H41.0119L34.6908 9.04258L31.755 6.32652L35.1404 3.19451ZM30.0033 19.0955C30.649 19.0955 31.1752 18.5546 31.1752 17.8909V16.6862H33.5189V22.7093C33.5189 24.702 31.9418 26.3232 30.0033 26.3232C28.0648 26.3232 26.4877 24.702 26.4877 22.7093V16.6862H28.8314V17.8909C28.8314 18.5546 29.3576 19.0955 30.0033 19.0955ZM26.4877 14.277V11.8678H33.5189V14.277H26.4877ZM18.9947 3.19451H24.8661L31.637 9.45853H25.7656L18.9947 3.19451ZM57.6595 60.0525H2.34705V19.0955H24.1439V22.7093C24.1439 26.0305 26.7724 28.7324 30.0033 28.7324C33.2342 28.7324 35.8627 26.0305 35.8627 22.7093V19.0955H57.6595V60.0525Z" fill="#EE414F"/>
<path d="M30.0033 21.5048C29.3576 21.5048 28.8314 22.0456 28.8314 22.7094C28.8314 23.3731 29.3576 23.914 30.0033 23.914C30.649 23.914 31.1752 23.3731 31.1752 22.7094C31.1752 22.0456 30.649 21.5048 30.0033 21.5048Z" fill="#EE414F"/>
<path d="M20.6283 23.9139H5.86267C5.21544 23.9139 4.6908 24.4534 4.6908 25.1186V41.9832C4.6908 42.6484 5.21544 43.1878 5.86267 43.1878H20.6283C21.2755 43.1878 21.8002 42.6484 21.8002 41.9832V25.1186C21.8002 24.4534 21.2755 23.9139 20.6283 23.9139ZM14.7689 40.7786H11.722V38.5501C11.722 35.9601 12.6757 35.9601 13.2455 35.9601C13.8152 35.9601 14.7689 35.9601 14.7689 38.5501V40.7786ZM12.0736 32.3463C12.0736 31.682 12.5993 31.1416 13.2455 31.1416C13.8917 31.1416 14.4174 31.682 14.4174 32.3463C14.4174 33.0105 13.8917 33.5509 13.2455 33.5509C12.5993 33.5509 12.0736 33.0105 12.0736 32.3463ZM19.4564 40.7786H17.1127V38.5501C17.1127 36.593 16.6219 35.3856 15.9508 34.6489C16.456 34.0232 16.7611 33.2211 16.7611 32.3463C16.7611 30.3536 15.184 28.7324 13.2455 28.7324C11.307 28.7324 9.72986 30.3536 9.72986 32.3463C9.72986 33.2213 10.0356 34.0231 10.541 34.6488C9.86955 35.3853 9.3783 36.5922 9.3783 38.5501V40.7786H7.03455V26.3232H19.4564V40.7786Z" fill="#EE414F"/>
<path d="M49.4564 31.1416H30.0033C29.3561 31.1416 28.8314 31.681 28.8314 32.3462C28.8314 33.0114 29.3561 33.5508 30.0033 33.5508H49.4564C50.1036 33.5508 50.6283 33.0114 50.6283 32.3462C50.6283 31.681 50.1036 31.1416 49.4564 31.1416Z" fill="#EE414F"/>
<path d="M51.8002 35.9601C51.1545 35.9601 50.6283 36.501 50.6283 37.1647C50.6283 37.8284 51.1545 38.3693 51.8002 38.3693C52.4459 38.3693 52.972 37.8284 52.972 37.1647C52.972 36.501 52.4459 35.9601 51.8002 35.9601Z" fill="#EE414F"/>
<path d="M47.1127 35.9601H30.0033C29.3576 35.9601 28.8314 36.501 28.8314 37.1647C28.8314 37.8284 29.3576 38.3693 30.0033 38.3693H47.1127C47.7584 38.3693 48.2845 37.8284 48.2845 37.1647C48.2845 36.501 47.7584 35.9601 47.1127 35.9601Z" fill="#EE414F"/>
<path d="M54.1439 40.7786H30.0033C29.3561 40.7786 28.8314 41.318 28.8314 41.9832C28.8314 42.6484 29.3561 43.1878 30.0033 43.1878H54.1439C54.7911 43.1878 55.3158 42.6484 55.3158 41.9832C55.3158 41.318 54.7911 40.7786 54.1439 40.7786Z" fill="#EE414F"/>
<path d="M54.1439 55.234H15.2377C14.5904 55.234 14.0658 55.7734 14.0658 56.4386C14.0658 57.1038 14.5904 57.6432 15.2377 57.6432H54.1439C54.7911 57.6432 55.3158 57.1038 55.3158 56.4386C55.3158 55.7734 54.7911 55.234 54.1439 55.234Z" fill="#EE414F"/>
<path d="M22.2689 50.4155H15.2377C14.592 50.4155 14.0658 50.9564 14.0658 51.6201C14.0658 52.2839 14.592 52.8248 15.2377 52.8248H22.2689C22.9146 52.8248 23.4408 52.2839 23.4408 51.6201C23.4408 50.9564 22.9146 50.4155 22.2689 50.4155Z" fill="#EE414F"/>
<path d="M54.1439 50.4155H48.0502C47.4045 50.4155 46.8783 50.9564 46.8783 51.6201C46.8783 52.2839 47.4045 52.8248 48.0502 52.8248H54.1439C54.7908 52.8248 55.3158 52.2839 55.3158 51.6201C55.3158 50.9564 54.7908 50.4155 54.1439 50.4155Z" fill="#EE414F"/>
<path d="M26.9564 50.4155C26.3095 50.4155 25.7845 50.9564 25.7845 51.6201C25.7845 52.2839 26.3095 52.8248 26.9564 52.8248C27.6021 52.8248 28.1283 52.2839 28.1283 51.6201C28.1283 50.9564 27.6021 50.4155 26.9564 50.4155Z" fill="#EE414F"/>
<path d="M38.6752 50.4155H31.6439C30.9982 50.4155 30.472 50.9564 30.472 51.6201C30.472 52.2839 30.9982 52.8248 31.6439 52.8248H38.6752C39.3209 52.8248 39.847 52.2839 39.847 51.6201C39.847 50.9564 39.3209 50.4155 38.6752 50.4155Z" fill="#EE414F"/>
<path d="M43.3627 50.4155C42.7158 50.4155 42.1908 50.9564 42.1908 51.6201C42.1908 52.2839 42.7158 52.8248 43.3627 52.8248C44.0084 52.8248 44.5345 52.2839 44.5345 51.6201C44.5345 50.9564 44.0084 50.4155 43.3627 50.4155Z" fill="#EE414F"/>
<path d="M10.5502 52.8248H9.3783V51.6201C9.3783 50.955 8.85365 50.4155 8.20642 50.4155C7.55919 50.4155 7.03455 50.955 7.03455 51.6201V52.8248H5.86267C5.21544 52.8248 4.6908 53.3642 4.6908 54.0294C4.6908 54.6946 5.21544 55.234 5.86267 55.234H7.03455V56.4386C7.03455 57.1038 7.55919 57.6432 8.20642 57.6432C8.85365 57.6432 9.3783 57.1038 9.3783 56.4386V55.234H10.5502C11.1974 55.234 11.722 54.6946 11.722 54.0294C11.722 53.3642 11.1974 52.8248 10.5502 52.8248Z" fill="#EE414F"/>
</g>
<defs>
<clipPath id="clip0">
<rect width="60" height="61.6765" fill="white" transform="translate(0.0032959 0.785278)"/>
</clipPath>
</defs>
</svg>
