<svg width="61" height="63" viewBox="0 0 61 63" fill="none" xmlns="http://www.w3.org/2000/svg">
<path d="M59.702 25.2924C59.4862 25.0372 59.1737 24.8678 58.8318 24.8678H57.8943V6.79848C57.8943 6.13317 57.3695 5.59386 56.7224 5.59386H55.7849V1.98001C55.7849 1.3147 55.2602 0.775391 54.613 0.775391H5.39299C4.74576 0.775391 4.22112 1.3147 4.22112 1.98001V10.4123H3.51799C2.87076 10.4123 2.34612 10.9516 2.34612 11.617V15.2308C2.34612 15.2308 1.17635 15.2308 1.17424 15.2308C0.494552 15.2308 -0.0634948 15.8736 0.00904429 16.5646L4.69666 61.2559C4.76088 61.8677 5.26326 62.3314 5.86186 62.3314H54.1443C54.7299 62.3314 55.2256 61.8871 55.3053 61.2908C55.3053 61.2908 59.9896 26.261 59.9929 26.2364C60.0388 25.8923 59.9193 25.5491 59.702 25.2924ZM55.5504 8.0031V24.8678H53.2067C53.2067 24.8678 53.2067 21.2541 53.2067 21.2539C53.2067 20.9419 53.0774 20.6221 52.8634 20.4021L47.9331 15.3342V8.0031H55.5504ZM43.8314 14.5253L49.2055 20.0493H43.8314V14.5253ZM43.4869 10.764C43.4053 10.6848 43.1283 10.4123 42.6596 10.4123H39.7298V8.0031H45.5892V12.9248C45.5892 12.9248 43.4903 10.7672 43.4869 10.764ZM53.441 3.18463V5.59386H10.0806C9.43338 5.59386 8.90873 6.13317 8.90873 6.79848V10.4123H6.56498V3.18463H53.441ZM37.3859 10.4123H11.2525V8.0031H37.3859V10.4123ZM4.68987 12.8216H41.4877V21.2539C41.4877 21.9192 42.0125 22.4585 42.6596 22.4585H50.8629V24.8678H27.0278L26.6762 22.4585H37.9719C38.6192 22.4585 39.1438 21.9192 39.1438 21.2539C39.1438 20.5886 38.6191 20.0493 37.9719 20.0493H26.3247L25.7712 16.2568C25.6852 15.6671 25.1923 15.2308 24.6122 15.2308H4.68987V12.8216ZM53.1223 59.9221H6.91408L2.47912 17.64H23.6029L24.8595 26.251C24.9455 26.8407 25.4384 27.277 26.0185 27.277H57.4878L53.1223 59.9221Z" fill="#EE414F"/>
<path d="M14.5338 20.0493C13.8881 20.0493 13.3619 20.5902 13.3619 21.2539C13.3619 21.9177 13.8881 22.4586 14.5338 22.4586C15.1795 22.4586 15.7057 21.9177 15.7057 21.2539C15.7057 20.5902 15.1795 20.0493 14.5338 20.0493Z" fill="#EE414F"/>
<path d="M9.84619 20.0493H7.26794C6.62224 20.0493 6.09607 20.5902 6.09607 21.2539C6.09607 21.9177 6.62224 22.4586 7.26794 22.4586H9.84619C10.4919 22.4586 11.0181 21.9177 11.0181 21.2539C11.0181 20.5902 10.4919 20.0493 9.84619 20.0493Z" fill="#EE414F"/>
<path d="M10.7837 24.8678H7.26794C6.62072 24.8678 6.09607 25.4071 6.09607 26.0724C6.09607 26.7377 6.62083 27.277 7.26794 27.277H10.7837C11.4309 27.277 11.9556 26.7377 11.9556 26.0724C11.9556 25.4071 11.4309 24.8678 10.7837 24.8678Z" fill="#EE414F"/>
<path d="M18.9871 24.8678H15.4713C14.8241 24.8678 14.2994 25.4071 14.2994 26.0724C14.2994 26.7377 14.8242 27.277 15.4713 27.277H18.9871C19.6343 27.277 20.1589 26.7377 20.1589 26.0724C20.1589 25.4071 19.6342 24.8678 18.9871 24.8678Z" fill="#EE414F"/>
<path d="M52.4286 37.5879C51.7876 37.4972 51.1962 37.9581 51.108 38.6173L48.9034 55.1039H25.7841C25.1368 55.1039 24.6122 55.6432 24.6122 56.3085C24.6122 56.9739 25.1369 57.5132 25.7841 57.5132H49.9253C50.5109 57.5132 51.0066 57.0689 51.0862 56.4726L53.43 38.9454C53.5182 38.2862 53.0699 37.6785 52.4286 37.5879Z" fill="#EE414F"/>
</svg>
