<svg width="69" height="63" viewBox="0 0 69 63" fill="none" xmlns="http://www.w3.org/2000/svg">
<path d="M49.9681 9.65442C49.4493 10.1882 49.4493 11.0527 49.9681 11.5849C50.4864 12.1188 51.3284 12.1188 51.8462 11.5849C52.3655 11.0527 52.3655 10.1882 51.8462 9.65442C51.3284 9.12219 50.4864 9.12219 49.9681 9.65442Z" fill="#EE414F"/>
<path d="M15.2206 10.6187C14.7013 11.1525 14.7013 12.017 15.2206 12.5492C15.7389 13.083 16.5809 13.083 17.0987 12.5492C17.618 12.017 17.618 11.1525 17.0987 10.6187C16.5809 10.0864 15.7389 10.0864 15.2206 10.6187Z" fill="#EE414F"/>
<path d="M66.8354 13.5534L55.5665 1.96968C54.0096 0.369261 51.4898 0.368727 49.9324 1.96968L43.7011 8.37508C40.5556 7.22156 37.0184 7.89885 34.482 10.1616C31.2209 8.5484 27.4186 8.5436 24.1548 10.1488L18.074 3.88101C16.5171 2.28059 13.9973 2.28006 12.4398 3.88101L1.17099 15.4647C-0.387482 17.0672 -0.384369 19.6575 1.16995 21.2552C1.31366 21.4035 7.51279 27.7929 7.70837 27.9945C7.41733 30.1036 8.10266 32.2645 9.58539 33.7887L7.70785 35.7192C5.63318 37.8513 5.63214 41.3087 7.70837 43.4429C8.78229 44.5458 10.2567 45.1249 11.7986 45.0263C11.7016 46.6192 12.2645 48.1247 13.3425 49.2329C14.3941 50.315 15.8473 50.9224 17.4333 50.8216C17.3368 52.4273 17.909 53.927 18.9767 55.0261C20.0402 56.1193 21.4975 56.7134 23.0669 56.6142C22.9709 58.2205 23.5437 59.7207 24.6124 60.8193C26.6834 62.9466 30.0536 62.9466 32.1256 60.8182L34.0032 58.8877L35.8812 60.8193C37.9528 62.9466 41.3224 62.946 43.3939 60.8187C44.5135 59.6679 45.0266 58.1267 44.9363 56.6169C46.6307 56.7316 48.2369 56.0106 49.3243 54.696C50.2203 53.6145 50.6042 52.2114 50.4968 50.8157C52.0843 50.9395 53.5754 50.3523 54.6628 49.234C55.7393 48.1279 56.3043 46.6224 56.2078 45.0257C57.7496 45.1244 59.2251 44.5442 60.2985 43.4419C62.368 41.3124 62.368 37.8481 60.298 35.7187L59.2915 34.6846C61.1478 32.1312 61.65 28.7656 60.6041 25.7503L66.8348 19.3449C68.3923 17.744 68.3928 15.1543 66.8354 13.5534ZM9.58642 41.5119C8.54986 40.4458 8.54883 38.7163 9.58642 37.6498C11.6025 35.5768 13.204 33.9306 15.2211 31.8571C16.2566 30.7932 17.9412 30.7927 18.9767 31.8571C20.0065 32.9157 20.0236 34.6436 18.9782 35.7176C18.9777 35.7182 18.9777 35.7182 18.9772 35.7187L13.3436 41.5113C12.3075 42.5753 10.6219 42.5753 9.58642 41.5119ZM15.2216 47.3029C14.183 46.2353 14.1825 44.5111 15.2211 43.4429C15.2206 43.4429 15.2211 43.4424 15.2211 43.4429L20.8547 37.6503C21.8908 36.5864 23.5764 36.5864 24.6124 37.6498C25.6531 38.7195 25.649 40.4464 24.6124 41.5113L18.9767 47.3035C17.9396 48.3706 16.2597 48.3706 15.2216 47.3029ZM20.8558 53.0961C19.8171 52.0263 19.8197 50.3011 20.8547 49.234C20.8547 49.2345 20.8553 49.234 20.8547 49.234L26.4904 43.4424C27.5265 42.3779 29.2121 42.3779 30.2465 43.4413C31.2852 44.5106 31.2836 46.2353 30.2476 47.3024C30.2476 47.3024 30.2471 47.3029 30.2465 47.3035L24.6119 53.0956C23.5727 54.1637 21.8929 54.1616 20.8558 53.0961ZM30.2476 58.8877C29.2115 59.9516 27.526 59.9516 26.4904 58.8882C25.4523 57.8211 25.4513 56.0948 26.4899 55.0266L32.1241 49.2345C32.1246 49.2345 32.1251 49.234 32.1256 49.2334C33.1627 48.1674 34.8436 48.1669 35.8812 49.2334C36.9193 50.3006 36.9199 52.0274 35.8812 53.0956C33.9798 55.0506 32.3404 56.7358 30.2476 58.8877ZM41.5164 58.8877C40.4804 59.9516 38.7948 59.9516 37.7598 58.8882L35.8817 56.9566L37.7593 55.0261C38.4296 54.3371 38.8975 53.4961 39.1351 52.5788L41.5159 55.0261C42.5519 56.0911 42.5519 57.8232 41.5164 58.8877ZM58.421 41.5113C57.3844 42.5753 55.6988 42.5753 54.6638 41.5119L49.0297 35.7192C48.5114 35.1859 47.6704 35.1865 47.1516 35.7187C46.6328 36.252 46.6328 37.1165 47.1511 37.6498L52.7858 43.4429C53.8213 44.5063 53.8265 46.2331 52.7847 47.3035C51.7508 48.3668 50.0724 48.3754 49.025 47.2981L48.8974 47.168L43.3945 41.5119C42.8757 40.9786 42.0347 40.9786 41.5159 41.5119C40.9971 42.0446 40.9971 42.9091 41.5159 43.4424L47.011 49.0905C48.033 50.2067 48.1617 51.8882 47.3015 52.9265C46.5825 53.7958 45.4432 54.1168 44.3978 53.7446C43.4054 53.3905 43.5262 53.1126 37.7593 47.3029C36.7092 46.2235 35.2571 45.615 33.6691 45.7158C33.765 44.1106 33.1928 42.611 32.1251 41.5119C31.005 40.36 29.5041 39.8325 28.0349 39.9269C28.1314 38.3334 27.569 36.8279 26.4899 35.7187C25.3693 34.5678 23.869 34.0409 22.3997 34.1353C22.4962 32.5419 21.9338 31.0353 20.8553 29.9266C18.7842 27.7977 15.4141 27.7977 13.343 29.9266L11.464 31.8582C10.4611 30.8273 10.0663 29.3106 10.4336 27.8995C10.5555 27.4297 10.4253 26.9279 10.0907 26.5828L6.77454 23.1649L13.3436 16.4124C13.8618 15.8796 13.8618 15.0151 13.3436 14.4818C12.8248 13.9485 11.9838 13.9485 11.4655 14.4818L4.89908 21.2317L3.04956 19.3258C2.53024 18.7919 2.53024 17.9291 3.04956 17.3952L14.3184 5.81153C14.8403 5.27504 15.6802 5.28144 16.1949 5.81047L22.9694 12.7934C23.3974 13.2345 24.063 13.3219 24.5854 13.0046C26.9843 11.5476 29.8626 11.2922 32.4307 12.2356L25.5509 19.3082C23.4814 21.4371 23.4814 24.9013 25.5514 27.0313C27.623 29.1586 30.9926 29.1586 33.0647 27.0308L35.8817 24.135C38.4763 21.4669 42.6764 21.4659 45.272 24.1355L58.4199 37.6492C59.4549 38.7142 59.4549 40.4474 58.421 41.5113ZM64.9573 17.4144L62.176 20.2729L55.6023 13.5166C55.0835 12.9833 54.2425 12.9838 53.7237 13.5166C53.2055 14.0499 53.2055 14.9143 53.7237 15.4476L60.298 22.2039L58.0988 24.464C57.7009 24.8736 57.5971 25.4965 57.8399 26.0186C58.8562 28.204 58.6518 30.7543 57.3859 32.7253L47.1506 22.205C43.5179 18.4693 37.6363 18.4682 34.0032 22.205L31.1866 25.1003C30.1506 26.1642 28.4645 26.1642 27.4295 25.1008C26.3945 24.0358 26.3945 22.3031 27.4295 21.2387C29.237 19.3807 32.9495 15.5644 35.8812 12.5502C37.8687 10.5072 40.9063 9.97176 43.4401 11.2165C43.948 11.4661 44.554 11.3594 44.9524 10.9504L51.8104 3.9002C52.3292 3.36691 53.1692 3.36638 53.6885 3.9002L64.9573 15.4844C65.4751 16.0167 65.4771 16.8795 64.9573 17.4144Z" fill="#EE414F"/>
</svg>
