<svg width="62" height="64" viewBox="0 0 62 64" fill="none" xmlns="http://www.w3.org/2000/svg">
<g clip-path="url(#clip0)">
<path d="M5.95984 41.348C5.30218 41.348 4.76843 41.8967 4.76843 42.5727C4.76843 43.2487 5.30218 43.7974 5.95984 43.7974C6.6175 43.7974 7.15125 43.2487 7.15125 42.5727C7.15125 41.8967 6.6175 41.348 5.95984 41.348Z" fill="#EE414F"/>
<path d="M5.95984 36.4492C5.30218 36.4492 4.76843 36.9979 4.76843 37.6739C4.76843 38.3499 5.30218 38.8986 5.95984 38.8986C6.6175 38.8986 7.15125 38.3499 7.15125 37.6739C7.15125 36.9979 6.6175 36.4492 5.95984 36.4492Z" fill="#EE414F"/>
<path d="M5.95984 56.0443C5.30218 56.0443 4.76843 56.593 4.76843 57.269C4.76843 57.945 5.30218 58.4937 5.95984 58.4937C6.6175 58.4937 7.15125 57.945 7.15125 57.269C7.15125 56.593 6.6175 56.0443 5.95984 56.0443Z" fill="#EE414F"/>
<path d="M5.95984 46.2468C5.30218 46.2468 4.76843 46.7955 4.76843 47.4715C4.76843 48.1476 5.30218 48.6962 5.95984 48.6962C6.6175 48.6962 7.15125 48.1476 7.15125 47.4715C7.15125 46.7955 6.6175 46.2468 5.95984 46.2468Z" fill="#EE414F"/>
<path d="M5.95984 51.1455C5.30218 51.1455 4.76843 51.6942 4.76843 52.3702C4.76843 53.0462 5.30218 53.5949 5.95984 53.5949C6.6175 53.5949 7.15125 53.0462 7.15125 52.3702C7.15125 51.6942 6.6175 51.1455 5.95984 51.1455Z" fill="#EE414F"/>
<path d="M10.7255 36.4492C10.0678 36.4492 9.53406 36.9979 9.53406 37.6739C9.53406 38.3499 10.0678 38.8986 10.7255 38.8986C11.3831 38.8986 11.9169 38.3499 11.9169 37.6739C11.9169 36.9979 11.3831 36.4492 10.7255 36.4492Z" fill="#EE414F"/>
<path d="M10.7255 51.1455C10.0678 51.1455 9.53406 51.6942 9.53406 52.3702C9.53406 53.0462 10.0678 53.5949 10.7255 53.5949C11.3831 53.5949 11.9169 53.0462 11.9169 52.3702C11.9169 51.6942 11.3831 51.1455 10.7255 51.1455Z" fill="#EE414F"/>
<path d="M10.7255 56.0443C10.0678 56.0443 9.53406 56.593 9.53406 57.269C9.53406 57.945 10.0678 58.4937 10.7255 58.4937C11.3831 58.4937 11.9169 57.945 11.9169 57.269C11.9169 56.593 11.3831 56.0443 10.7255 56.0443Z" fill="#EE414F"/>
<path d="M10.7255 46.2468C10.0678 46.2468 9.53406 46.7955 9.53406 47.4715C9.53406 48.1476 10.0678 48.6962 10.7255 48.6962C11.3831 48.6962 11.9169 48.1476 11.9169 47.4715C11.9169 46.7955 11.3831 46.2468 10.7255 46.2468Z" fill="#EE414F"/>
<path d="M10.7255 41.348C10.0678 41.348 9.53406 41.8967 9.53406 42.5727C9.53406 43.2487 10.0678 43.7974 10.7255 43.7974C11.3831 43.7974 11.9169 43.2487 11.9169 42.5727C11.9169 41.8967 11.3831 41.348 10.7255 41.348Z" fill="#EE414F"/>
<path d="M59.8114 31.5504H46.7059V15.3845C46.7059 14.7081 46.1725 14.1598 45.5145 14.1598H38.2469V1.91281C38.2469 1.23641 37.7136 0.68811 37.0555 0.68811H23.9501C23.2921 0.68811 22.7587 1.23641 22.7587 1.91281V14.1598H15.4911C14.8331 14.1598 14.2997 14.7081 14.2997 15.3845V31.5504H1.19421C0.5362 31.5504 0.00280762 32.0987 0.00280762 32.7751V62.1678C0.00280762 62.8442 0.5362 63.3925 1.19421 63.3925H59.8114C60.4694 63.3925 61.0028 62.8442 61.0028 62.1678V32.7751C61.0028 32.0987 60.4694 31.5504 59.8114 31.5504ZM14.2997 60.9431H2.38562V33.9998H14.2997V60.9431ZM25.1415 3.1375H35.8641V14.1598H25.1415V3.1375ZM24.5458 60.9431H22.163V56.0443H24.5458V60.9431ZM29.3114 60.9431H26.9286V56.0443H29.3114V60.9431ZM34.077 60.9431H31.6942V56.0443H34.077V60.9431ZM38.8427 60.9431H36.4598V56.0443H38.8427V60.9431ZM44.3231 60.9431H41.2255V54.8196C41.2255 54.1432 40.6921 53.5949 40.0341 53.5949H20.9716C20.3135 53.5949 19.7802 54.1432 19.7802 54.8196V60.9431H16.6825V21.5079H44.3231V60.9431ZM44.3231 19.0585H16.6825V16.6091H44.3231V19.0585ZM58.62 60.9431H46.7059V33.9998H58.62V60.9431Z" fill="#EE414F"/>
<path d="M50.2802 51.1455C49.6225 51.1455 49.0887 51.6942 49.0887 52.3702C49.0887 53.0462 49.6225 53.5949 50.2802 53.5949C50.9378 53.5949 51.4716 53.0462 51.4716 52.3702C51.4716 51.6942 50.9378 51.1455 50.2802 51.1455Z" fill="#EE414F"/>
<path d="M50.2802 36.4492C49.6225 36.4492 49.0887 36.9979 49.0887 37.6739C49.0887 38.3499 49.6225 38.8986 50.2802 38.8986C50.9378 38.8986 51.4716 38.3499 51.4716 37.6739C51.4716 36.9979 50.9378 36.4492 50.2802 36.4492Z" fill="#EE414F"/>
<path d="M50.2802 56.0443C49.6225 56.0443 49.0887 56.593 49.0887 57.269C49.0887 57.945 49.6225 58.4937 50.2802 58.4937C50.9378 58.4937 51.4716 57.945 51.4716 57.269C51.4716 56.593 50.9378 56.0443 50.2802 56.0443Z" fill="#EE414F"/>
<path d="M50.2802 46.2468C49.6225 46.2468 49.0887 46.7955 49.0887 47.4715C49.0887 48.1476 49.6225 48.6962 50.2802 48.6962C50.9378 48.6962 51.4716 48.1476 51.4716 47.4715C51.4716 46.7955 50.9378 46.2468 50.2802 46.2468Z" fill="#EE414F"/>
<path d="M50.2802 41.348C49.6225 41.348 49.0887 41.8967 49.0887 42.5727C49.0887 43.2487 49.6225 43.7974 50.2802 43.7974C50.9378 43.7974 51.4716 43.2487 51.4716 42.5727C51.4716 41.8967 50.9378 41.348 50.2802 41.348Z" fill="#EE414F"/>
<path d="M55.0458 51.1455C54.3881 51.1455 53.8544 51.6942 53.8544 52.3702C53.8544 53.0462 54.3881 53.5949 55.0458 53.5949C55.7034 53.5949 56.2372 53.0462 56.2372 52.3702C56.2372 51.6942 55.7034 51.1455 55.0458 51.1455Z" fill="#EE414F"/>
<path d="M55.0458 41.348C54.3881 41.348 53.8544 41.8967 53.8544 42.5727C53.8544 43.2487 54.3881 43.7974 55.0458 43.7974C55.7034 43.7974 56.2372 43.2487 56.2372 42.5727C56.2372 41.8967 55.7034 41.348 55.0458 41.348Z" fill="#EE414F"/>
<path d="M55.0458 46.2468C54.3881 46.2468 53.8544 46.7955 53.8544 47.4715C53.8544 48.1476 54.3881 48.6962 55.0458 48.6962C55.7034 48.6962 56.2372 48.1476 56.2372 47.4715C56.2372 46.7955 55.7034 46.2468 55.0458 46.2468Z" fill="#EE414F"/>
<path d="M55.0458 56.0443C54.3881 56.0443 53.8544 56.593 53.8544 57.269C53.8544 57.945 54.3881 58.4937 55.0458 58.4937C55.7034 58.4937 56.2372 57.945 56.2372 57.269C56.2372 56.593 55.7034 56.0443 55.0458 56.0443Z" fill="#EE414F"/>
<path d="M55.0458 36.4492C54.3881 36.4492 53.8544 36.9979 53.8544 37.6739C53.8544 38.3499 54.3881 38.8986 55.0458 38.8986C55.7034 38.8986 56.2372 38.3499 56.2372 37.6739C56.2372 36.9979 55.7034 36.4492 55.0458 36.4492Z" fill="#EE414F"/>
<path d="M20.9716 48.5737C20.3139 48.5737 19.7802 49.1224 19.7802 49.7984C19.7802 50.4745 20.3139 51.0231 20.9716 51.0231C21.6292 51.0231 22.163 50.4745 22.163 49.7984C22.163 49.1224 21.6292 48.5737 20.9716 48.5737Z" fill="#EE414F"/>
<path d="M20.9716 38.7761C20.3139 38.7761 19.7802 39.3248 19.7802 40.0008C19.7802 40.6769 20.3139 41.2255 20.9716 41.2255C21.6292 41.2255 22.163 40.6769 22.163 40.0008C22.163 39.3248 21.6292 38.7761 20.9716 38.7761Z" fill="#EE414F"/>
<path d="M20.9716 43.6749C20.3139 43.6749 19.7802 44.2236 19.7802 44.8996C19.7802 45.5757 20.3139 46.1243 20.9716 46.1243C21.6292 46.1243 22.163 45.5757 22.163 44.8996C22.163 44.2236 21.6292 43.6749 20.9716 43.6749Z" fill="#EE414F"/>
<path d="M20.9716 28.9785C20.3139 28.9785 19.7802 29.5272 19.7802 30.2032C19.7802 30.8792 20.3139 31.4279 20.9716 31.4279C21.6292 31.4279 22.163 30.8792 22.163 30.2032C22.163 29.5272 21.6292 28.9785 20.9716 28.9785Z" fill="#EE414F"/>
<path d="M20.9716 33.8773C20.3139 33.8773 19.7802 34.426 19.7802 35.102C19.7802 35.778 20.3139 36.3267 20.9716 36.3267C21.6292 36.3267 22.163 35.778 22.163 35.102C22.163 34.426 21.6292 33.8773 20.9716 33.8773Z" fill="#EE414F"/>
<path d="M25.7372 28.9785C25.0795 28.9785 24.5458 29.5272 24.5458 30.2032C24.5458 30.8792 25.0795 31.4279 25.7372 31.4279C26.3948 31.4279 26.9286 30.8792 26.9286 30.2032C26.9286 29.5272 26.3948 28.9785 25.7372 28.9785Z" fill="#EE414F"/>
<path d="M25.7372 38.7761C25.0795 38.7761 24.5458 39.3248 24.5458 40.0008C24.5458 40.6769 25.0795 41.2255 25.7372 41.2255C26.3948 41.2255 26.9286 40.6769 26.9286 40.0008C26.9286 39.3248 26.3948 38.7761 25.7372 38.7761Z" fill="#EE414F"/>
<path d="M25.7372 33.8773C25.0795 33.8773 24.5458 34.426 24.5458 35.102C24.5458 35.778 25.0795 36.3267 25.7372 36.3267C26.3948 36.3267 26.9286 35.778 26.9286 35.102C26.9286 34.426 26.3948 33.8773 25.7372 33.8773Z" fill="#EE414F"/>
<path d="M25.7372 43.6749C25.0795 43.6749 24.5458 44.2236 24.5458 44.8996C24.5458 45.5757 25.0795 46.1243 25.7372 46.1243C26.3948 46.1243 26.9286 45.5757 26.9286 44.8996C26.9286 44.2236 26.3948 43.6749 25.7372 43.6749Z" fill="#EE414F"/>
<path d="M25.7372 48.5737C25.0795 48.5737 24.5458 49.1224 24.5458 49.7984C24.5458 50.4745 25.0795 51.0231 25.7372 51.0231C26.3948 51.0231 26.9286 50.4745 26.9286 49.7984C26.9286 49.1224 26.3948 48.5737 25.7372 48.5737Z" fill="#EE414F"/>
<path d="M30.5028 28.9785C29.8452 28.9785 29.3114 29.5272 29.3114 30.2032C29.3114 30.8792 29.8452 31.4279 30.5028 31.4279C31.1605 31.4279 31.6942 30.8792 31.6942 30.2032C31.6942 29.5272 31.1605 28.9785 30.5028 28.9785Z" fill="#EE414F"/>
<path d="M30.5028 48.5737C29.8452 48.5737 29.3114 49.1224 29.3114 49.7984C29.3114 50.4745 29.8452 51.0231 30.5028 51.0231C31.1605 51.0231 31.6942 50.4745 31.6942 49.7984C31.6942 49.1224 31.1605 48.5737 30.5028 48.5737Z" fill="#EE414F"/>
<path d="M30.5028 33.8773C29.8452 33.8773 29.3114 34.426 29.3114 35.102C29.3114 35.778 29.8452 36.3267 30.5028 36.3267C31.1605 36.3267 31.6942 35.778 31.6942 35.102C31.6942 34.426 31.1605 33.8773 30.5028 33.8773Z" fill="#EE414F"/>
<path d="M30.5028 43.6749C29.8452 43.6749 29.3114 44.2236 29.3114 44.8996C29.3114 45.5757 29.8452 46.1243 30.5028 46.1243C31.1605 46.1243 31.6942 45.5757 31.6942 44.8996C31.6942 44.2236 31.1605 43.6749 30.5028 43.6749Z" fill="#EE414F"/>
<path d="M30.5028 38.7761C29.8452 38.7761 29.3114 39.3248 29.3114 40.0008C29.3114 40.6769 29.8452 41.2255 30.5028 41.2255C31.1605 41.2255 31.6942 40.6769 31.6942 40.0008C31.6942 39.3248 31.1605 38.7761 30.5028 38.7761Z" fill="#EE414F"/>
<path d="M35.2684 28.9785C34.6108 28.9785 34.077 29.5272 34.077 30.2032C34.077 30.8792 34.6108 31.4279 35.2684 31.4279C35.9261 31.4279 36.4598 30.8792 36.4598 30.2032C36.4598 29.5272 35.9261 28.9785 35.2684 28.9785Z" fill="#EE414F"/>
<path d="M35.2684 48.5737C34.6108 48.5737 34.077 49.1224 34.077 49.7984C34.077 50.4745 34.6108 51.0231 35.2684 51.0231C35.9261 51.0231 36.4598 50.4745 36.4598 49.7984C36.4598 49.1224 35.9261 48.5737 35.2684 48.5737Z" fill="#EE414F"/>
<path d="M35.2684 33.8773C34.6108 33.8773 34.077 34.426 34.077 35.102C34.077 35.778 34.6108 36.3267 35.2684 36.3267C35.9261 36.3267 36.4598 35.778 36.4598 35.102C36.4598 34.426 35.9261 33.8773 35.2684 33.8773Z" fill="#EE414F"/>
<path d="M35.2684 38.7761C34.6108 38.7761 34.077 39.3248 34.077 40.0008C34.077 40.6769 34.6108 41.2255 35.2684 41.2255C35.9261 41.2255 36.4598 40.6769 36.4598 40.0008C36.4598 39.3248 35.9261 38.7761 35.2684 38.7761Z" fill="#EE414F"/>
<path d="M35.2684 43.6749C34.6108 43.6749 34.077 44.2236 34.077 44.8996C34.077 45.5757 34.6108 46.1243 35.2684 46.1243C35.9261 46.1243 36.4598 45.5757 36.4598 44.8996C36.4598 44.2236 35.9261 43.6749 35.2684 43.6749Z" fill="#EE414F"/>
<path d="M40.0341 38.7761C39.3764 38.7761 38.8427 39.3248 38.8427 40.0008C38.8427 40.6769 39.3764 41.2255 40.0341 41.2255C40.6917 41.2255 41.2255 40.6769 41.2255 40.0008C41.2255 39.3248 40.6917 38.7761 40.0341 38.7761Z" fill="#EE414F"/>
<path d="M40.0341 48.5737C39.3764 48.5737 38.8427 49.1224 38.8427 49.7984C38.8427 50.4745 39.3764 51.0231 40.0341 51.0231C40.6917 51.0231 41.2255 50.4745 41.2255 49.7984C41.2255 49.1224 40.6917 48.5737 40.0341 48.5737Z" fill="#EE414F"/>
<path d="M40.0341 43.6749C39.3764 43.6749 38.8427 44.2236 38.8427 44.8996C38.8427 45.5757 39.3764 46.1243 40.0341 46.1243C40.6917 46.1243 41.2255 45.5757 41.2255 44.8996C41.2255 44.2236 40.6917 43.6749 40.0341 43.6749Z" fill="#EE414F"/>
<path d="M40.0341 33.8773C39.3764 33.8773 38.8427 34.426 38.8427 35.102C38.8427 35.778 39.3764 36.3267 40.0341 36.3267C40.6917 36.3267 41.2255 35.778 41.2255 35.102C41.2255 34.426 40.6917 33.8773 40.0341 33.8773Z" fill="#EE414F"/>
<path d="M40.0341 28.9785C39.3764 28.9785 38.8427 29.5272 38.8427 30.2032C38.8427 30.8792 39.3764 31.4279 40.0341 31.4279C40.6917 31.4279 41.2255 30.8792 41.2255 30.2032C41.2255 29.5272 40.6917 28.9785 40.0341 28.9785Z" fill="#EE414F"/>
<path d="M32.2899 7.42396H31.6942V6.81161C31.6942 6.13521 31.1608 5.58691 30.5028 5.58691C29.8448 5.58691 29.3114 6.13521 29.3114 6.81161V7.42396H28.7157C28.0577 7.42396 27.5243 7.97225 27.5243 8.64865C27.5243 9.32505 28.0577 9.87335 28.7157 9.87335H29.3114V10.4857C29.3114 11.1621 29.8448 11.7104 30.5028 11.7104C31.1608 11.7104 31.6942 11.1621 31.6942 10.4857V9.87335H32.2899C32.9479 9.87335 33.4813 9.32505 33.4813 8.64865C33.4813 7.97225 32.9479 7.42396 32.2899 7.42396Z" fill="#EE414F"/>
<path d="M25.7372 23.9573H20.9716C20.3151 23.9573 19.7802 24.5072 19.7802 25.182C19.7802 25.8568 20.3151 26.4067 20.9716 26.4067H25.7372C26.3936 26.4067 26.9286 25.8568 26.9286 25.182C26.9286 24.5072 26.3936 23.9573 25.7372 23.9573Z" fill="#EE414F"/>
<path d="M40.0341 23.9573H35.2684C34.612 23.9573 34.077 24.5072 34.077 25.182C34.077 25.8568 34.612 26.4067 35.2684 26.4067H40.0341C40.6905 26.4067 41.2255 25.8568 41.2255 25.182C41.2255 24.5072 40.6905 23.9573 40.0341 23.9573Z" fill="#EE414F"/>
<path d="M30.5028 23.9573C29.8463 23.9573 29.3114 24.5072 29.3114 25.182C29.3114 25.8568 29.8463 26.4067 30.5028 26.4067C31.1593 26.4067 31.6942 25.8568 31.6942 25.182C31.6942 24.5072 31.1593 23.9573 30.5028 23.9573Z" fill="#EE414F"/>
</g>
<defs>
<clipPath id="clip0">
<rect width="61" height="62.7044" fill="white" transform="translate(0.00280762 0.68811)"/>
</clipPath>
</defs>
</svg>
