<svg width="18" height="18" viewBox="0 0 18 18" fill="none" xmlns="http://www.w3.org/2000/svg">
<path d="M14.2333 11.1502C13.8642 10.7665 13.4191 10.5614 12.9473 10.5614C12.4794 10.5614 12.0304 10.7627 11.6462 11.1464L10.4439 12.3431C10.345 12.2899 10.2461 12.2405 10.151 12.1912C10.014 12.1228 9.88467 12.0582 9.77433 11.9898C8.64819 11.2756 7.62476 10.3448 6.64319 9.14054C6.16762 8.54029 5.84803 8.03502 5.61596 7.52215C5.92793 7.23723 6.21708 6.9409 6.49861 6.65597C6.60514 6.5496 6.71167 6.43943 6.8182 6.33306C7.61715 5.53526 7.61715 4.50193 6.8182 3.70413L5.77955 2.667C5.66161 2.54923 5.53987 2.42766 5.42573 2.30609C5.19746 2.07055 4.95777 1.82741 4.71047 1.59947C4.34143 1.23477 3.9001 1.04102 3.43595 1.04102C2.97179 1.04102 2.52286 1.23477 2.1424 1.59947C2.1386 1.60327 2.1386 1.60327 2.13479 1.60707L0.841243 2.91014C0.35426 3.39641 0.076528 3.98906 0.0156552 4.67668C-0.0756541 5.786 0.251537 6.81933 0.502638 7.49556C1.11898 9.15573 2.03968 10.6943 3.41312 12.3431C5.07952 14.33 7.08451 15.899 9.37486 17.0045C10.2499 17.4186 11.4179 17.9087 12.7229 17.9923C12.8028 17.9961 12.8865 17.9999 12.9625 17.9999C13.8414 17.9999 14.5795 17.6845 15.1578 17.0577C15.1616 17.0501 15.1692 17.0463 15.173 17.0387C15.3708 16.7994 15.5991 16.5828 15.8388 16.3511C16.0024 16.1953 16.1698 16.032 16.3334 15.861C16.71 15.4697 16.9079 15.0138 16.9079 14.5465C16.9079 14.0755 16.7062 13.6234 16.322 13.2435L14.2333 11.1502ZM15.5953 15.1506C15.5915 15.1506 15.5915 15.1544 15.5953 15.1506C15.4469 15.3102 15.2947 15.4545 15.1311 15.6141C14.8838 15.8496 14.6327 16.0966 14.3969 16.3739C14.0126 16.7842 13.5599 16.9779 12.9664 16.9779C12.9093 16.9779 12.8484 16.9779 12.7913 16.9741C11.6614 16.9019 10.6113 16.4613 9.82379 16.0852C7.67042 15.0442 5.77955 13.5664 4.20827 11.6935C2.91092 10.1321 2.04348 8.68845 1.46899 7.13845C1.11517 6.19249 0.985816 5.45548 1.04288 4.76026C1.08093 4.31578 1.25213 3.94727 1.56791 3.63195L2.86527 2.33648C3.05169 2.16173 3.24953 2.06675 3.44356 2.06675C3.68324 2.06675 3.87728 2.21112 3.99902 2.33268C4.00283 2.33648 4.00663 2.34028 4.01044 2.34408C4.24251 2.56063 4.46318 2.78477 4.69526 3.02411C4.8132 3.14568 4.93494 3.26724 5.05669 3.39261L6.09533 4.42975C6.49861 4.83244 6.49861 5.20475 6.09533 5.60744C5.985 5.71762 5.87847 5.82779 5.76814 5.93416C5.44856 6.26088 5.14419 6.5648 4.8132 6.86112C4.80559 6.86872 4.79798 6.87252 4.79417 6.88012C4.46698 7.20683 4.52785 7.52595 4.59634 7.7425C4.60014 7.75389 4.60395 7.76529 4.60775 7.77669C4.87787 8.43012 5.25833 9.04556 5.83662 9.77877L5.84043 9.78257C6.89048 11.0742 7.99761 12.081 9.21887 12.8522C9.37486 12.951 9.53465 13.0307 9.68683 13.1067C9.82379 13.1751 9.95315 13.2397 10.0635 13.3081C10.0787 13.3157 10.0939 13.3271 10.1091 13.3347C10.2385 13.3992 10.3602 13.4296 10.4858 13.4296C10.8016 13.4296 10.9994 13.2321 11.0641 13.1675L12.3652 11.8682C12.4946 11.7391 12.7 11.5833 12.9397 11.5833C13.1756 11.5833 13.3696 11.7315 13.4876 11.8606C13.4914 11.8644 13.4914 11.8644 13.4952 11.8682L15.5915 13.9615C15.9834 14.349 15.9834 14.7479 15.5953 15.1506Z" fill="black"/>
<path d="M9.72868 4.28206C10.7255 4.44921 11.631 4.92029 12.3538 5.64211C13.0767 6.36392 13.5446 7.26809 13.7158 8.26343C13.7577 8.51417 13.9746 8.68892 14.2219 8.68892C14.2523 8.68892 14.2789 8.68512 14.3094 8.68133C14.5909 8.63574 14.7773 8.36981 14.7317 8.08868C14.5262 6.88439 13.9555 5.78647 13.0843 4.91649C12.2131 4.04652 11.1135 3.47666 9.90749 3.27151C9.62596 3.22593 9.36344 3.41208 9.31398 3.68941C9.26452 3.96674 9.44714 4.23647 9.72868 4.28206Z" fill="black"/>
<path d="M17.9921 7.94018C17.6535 5.95709 16.7176 4.15255 15.2795 2.71652C13.8414 1.28049 12.0342 0.345932 10.0482 0.00781895C9.77051 -0.0415684 9.50799 0.148383 9.45853 0.425712C9.41288 0.70684 9.5993 0.968972 9.88084 1.01836C11.6538 1.31848 13.2707 2.15807 14.5566 3.43834C15.8426 4.72241 16.6796 6.33699 16.9801 8.10734C17.022 8.35808 17.2388 8.53283 17.4861 8.53283C17.5166 8.53283 17.5432 8.52903 17.5736 8.52523C17.8514 8.48344 18.0416 8.21751 17.9921 7.94018Z" fill="black"/>
</svg>
