<svg width="388" height="87" viewBox="0 0 388 87" fill="none" xmlns="http://www.w3.org/2000/svg">
<g filter="url(#filter0_d)">
<circle cx="41.5" cy="37.5" r="37.5" fill="#EE414F"/>
</g>
<path d="M53.575 45.395V53H26.575V52.46C26.575 51.05 26.755 49.76 27.115 48.59C27.505 47.39 28.075 46.295 28.825 45.305C29.575 44.315 30.385 43.445 31.255 42.695C32.125 41.945 33.16 41.15 34.36 40.31C35.38 39.59 36.49 38.885 37.69 38.195C38.89 37.475 39.82 36.935 40.48 36.575C41.14 36.185 41.77 35.765 42.37 35.315C43 34.835 43.435 34.37 43.675 33.92C43.915 33.44 44.035 32.885 44.035 32.255C44.005 31.295 43.645 30.545 42.955 30.005C42.295 29.435 41.395 29.15 40.255 29.15C38.515 29.15 37.315 29.66 36.655 30.68C36.025 31.7 35.665 33.11 35.575 34.91H27.16V34.46C27.16 30.23 28.3 27.02 30.58 24.83C32.86 22.61 36.205 21.5 40.615 21.5C44.365 21.5 47.365 22.415 49.615 24.245C51.865 26.045 52.99 28.445 52.99 31.445C52.99 32.705 52.825 33.83 52.495 34.82C52.195 35.81 51.67 36.71 50.92 37.52C50.17 38.3 49.465 38.945 48.805 39.455C48.175 39.965 47.26 40.61 46.06 41.39C45.43 41.81 44.26 42.5 42.55 43.46C40.87 44.42 39.61 45.215 38.77 45.845C41.44 45.575 43.75 45.44 45.7 45.44L53.575 45.395Z" fill="white"/>
<path d="M384 38L385.768 39.7678L387.536 38L385.768 36.2322L384 38ZM76 40.5H383.5V35.5H76V40.5ZM375.232 32.7678L382.232 39.7678L385.768 36.2322L378.768 29.2322L375.232 32.7678ZM382.232 36.2322L375.232 43.2322L378.768 46.7678L385.768 39.7678L382.232 36.2322Z" fill="#EE414F"/>
<defs>
<filter id="filter0_d" x="0" y="0" width="83" height="83" filterUnits="userSpaceOnUse" color-interpolation-filters="sRGB">
<feFlood flood-opacity="0" result="BackgroundImageFix"/>
<feColorMatrix in="SourceAlpha" type="matrix" values="0 0 0 0 0 0 0 0 0 0 0 0 0 0 0 0 0 0 127 0"/>
<feOffset dy="4"/>
<feGaussianBlur stdDeviation="2"/>
<feColorMatrix type="matrix" values="0 0 0 0 0.681223 0 0 0 0 0.151713 0 0 0 0 0.194564 0 0 0 0.2 0"/>
<feBlend mode="normal" in2="BackgroundImageFix" result="effect1_dropShadow"/>
<feBlend mode="normal" in="SourceGraphic" in2="effect1_dropShadow" result="shape"/>
</filter>
</defs>
</svg>
