<svg width="689" height="346" viewBox="0 0 689 346" fill="none" xmlns="http://www.w3.org/2000/svg">
<g filter="url(#filter0_d)">
<ellipse cx="581.195" cy="37.5" rx="37.6106" ry="37.5" fill="#EE414F"/>
</g>
<path d="M685.8 337.5L685.8 340L688.3 340L688.3 337.5L685.8 337.5ZM685.8 38L688.3 38L688.3 35.5L685.8 35.5L685.8 38ZM688.3 337.5L688.3 38L683.3 38L683.3 337.5L688.3 337.5ZM685.8 35.5L565 35.5L565 40.5L685.8 40.5L685.8 35.5ZM685.8 335L628.2 335L628.2 340L685.8 340L685.8 335Z" fill="#EE414F"/>
<path d="M567.076 32.165C567.226 28.595 568.426 25.925 570.676 24.155C572.956 22.385 575.971 21.5 579.721 21.5C583.471 21.5 586.456 22.31 588.676 23.93C590.926 25.52 592.051 27.68 592.051 30.41C592.051 31.97 591.646 33.275 590.836 34.325C590.056 35.345 588.976 35.975 587.596 36.215C589.306 36.605 590.626 37.4 591.556 38.6C592.516 39.8 592.996 41.3 592.996 43.1C592.996 44.54 592.741 45.845 592.231 47.015C591.721 48.185 591.031 49.16 590.161 49.94C589.321 50.72 588.316 51.38 587.146 51.92C586.006 52.43 584.821 52.805 583.591 53.045C582.361 53.285 581.086 53.405 579.766 53.405C575.776 53.405 572.506 52.46 569.956 50.57C567.436 48.68 566.176 45.845 566.176 42.065C566.176 41.735 566.191 41.45 566.221 41.21H574.681V41.66C574.681 44.57 576.241 46.025 579.361 46.025C580.771 46.025 581.866 45.74 582.646 45.17C583.426 44.6 583.816 43.79 583.816 42.74C583.816 40.55 582.196 39.455 578.956 39.455C578.926 39.455 578.836 39.47 578.686 39.5C578.566 39.5 578.386 39.5 578.146 39.5C577.906 39.5 577.651 39.5 577.381 39.5H577.021V33.695C577.381 33.725 577.876 33.74 578.506 33.74C579.646 33.74 580.426 33.725 580.846 33.695C581.716 33.635 582.406 33.38 582.916 32.93C583.456 32.45 583.726 31.865 583.726 31.175C583.726 30.335 583.366 29.66 582.646 29.15C581.926 28.64 580.951 28.385 579.721 28.385C576.931 28.385 575.521 29.645 575.491 32.165H567.076Z" fill="white"/>
<path d="M3.99988 337L2.23472 338.77L0.459129 337L2.23472 335.23L3.99988 337ZM277.304 339.5H4.50136V334.5H277.304V339.5ZM12.7857 331.77L5.76504 338.77L2.23472 335.23L9.25537 328.23L12.7857 331.77ZM5.76504 335.23L12.7857 342.23L9.25537 345.77L2.23472 338.77L5.76504 335.23Z" fill="#EE414F"/>
<defs>
<filter id="filter0_d" x="539.584" y="0" width="83.2212" height="83" filterUnits="userSpaceOnUse" color-interpolation-filters="sRGB">
<feFlood flood-opacity="0" result="BackgroundImageFix"/>
<feColorMatrix in="SourceAlpha" type="matrix" values="0 0 0 0 0 0 0 0 0 0 0 0 0 0 0 0 0 0 127 0"/>
<feOffset dy="4"/>
<feGaussianBlur stdDeviation="2"/>
<feColorMatrix type="matrix" values="0 0 0 0 0.681223 0 0 0 0 0.151713 0 0 0 0 0.194564 0 0 0 0.2 0"/>
<feBlend mode="normal" in2="BackgroundImageFix" result="effect1_dropShadow"/>
<feBlend mode="normal" in="SourceGraphic" in2="effect1_dropShadow" result="shape"/>
</filter>
</defs>
</svg>
