<svg width="382" height="87" viewBox="0 0 382 87" fill="none" xmlns="http://www.w3.org/2000/svg">
<g filter="url(#filter0_d)">
<circle cx="340.5" cy="37.5" r="37.5" fill="#EE414F"/>
</g>
<path d="M352.575 38.825V46.205H348.48V53H339.345V46.205H325.575V38.015L339.57 21.86H348.48V38.825H352.575ZM339.66 38.87V32.93L339.795 30.05L332.37 39.005C333.72 38.915 334.65 38.87 335.16 38.87H339.66Z" fill="white"/>
<path d="M4 38L2.23224 39.7678L0.464478 38L2.23224 36.2322L4 38ZM308 40.5H4.5V35.5H308V40.5ZM12.7678 32.7678L5.76776 39.7678L2.23224 36.2322L9.23224 29.2322L12.7678 32.7678ZM5.76776 36.2322L12.7678 43.2322L9.23224 46.7678L2.23224 39.7678L5.76776 36.2322Z" fill="#EE414F"/>
<defs>
<filter id="filter0_d" x="299" y="0" width="83" height="83" filterUnits="userSpaceOnUse" color-interpolation-filters="sRGB">
<feFlood flood-opacity="0" result="BackgroundImageFix"/>
<feColorMatrix in="SourceAlpha" type="matrix" values="0 0 0 0 0 0 0 0 0 0 0 0 0 0 0 0 0 0 127 0"/>
<feOffset dy="4"/>
<feGaussianBlur stdDeviation="2"/>
<feColorMatrix type="matrix" values="0 0 0 0 0.681223 0 0 0 0 0.151713 0 0 0 0 0.194564 0 0 0 0.2 0"/>
<feBlend mode="normal" in2="BackgroundImageFix" result="effect1_dropShadow"/>
<feBlend mode="normal" in="SourceGraphic" in2="effect1_dropShadow" result="shape"/>
</filter>
</defs>
</svg>
