<svg width="83" height="87" viewBox="0 0 83 87" fill="none" xmlns="http://www.w3.org/2000/svg">
<g filter="url(#filter0_d)">
<circle cx="41.5" cy="37.5" r="37.5" fill="#EE414F"/>
</g>
<path d="M51.415 21.86V29.33H37.105L36.745 31.22C36.625 31.94 36.385 32.825 36.025 33.875C37.795 32.345 40.03 31.58 42.73 31.58C45.94 31.58 48.475 32.495 50.335 34.325C52.225 36.155 53.17 38.645 53.17 41.795C53.17 45.665 51.88 48.575 49.3 50.525C46.72 52.445 43.465 53.405 39.535 53.405C35.635 53.405 32.455 52.58 29.995 50.93C27.565 49.25 26.26 46.61 26.08 43.01H34.81C34.99 45.2 36.55 46.295 39.49 46.295C40.99 46.295 42.16 45.92 43 45.17C43.84 44.39 44.26 43.31 44.26 41.93C44.26 40.52 43.84 39.44 43 38.69C42.19 37.91 41.005 37.52 39.445 37.52C37.495 37.52 36.115 38.27 35.305 39.77H27.16L30.265 21.86H51.415Z" fill="white"/>
<defs>
<filter id="filter0_d" x="0" y="0" width="83" height="83" filterUnits="userSpaceOnUse" color-interpolation-filters="sRGB">
<feFlood flood-opacity="0" result="BackgroundImageFix"/>
<feColorMatrix in="SourceAlpha" type="matrix" values="0 0 0 0 0 0 0 0 0 0 0 0 0 0 0 0 0 0 127 0"/>
<feOffset dy="4"/>
<feGaussianBlur stdDeviation="2"/>
<feColorMatrix type="matrix" values="0 0 0 0 0.681223 0 0 0 0 0.151713 0 0 0 0 0.194564 0 0 0 0.2 0"/>
<feBlend mode="normal" in2="BackgroundImageFix" result="effect1_dropShadow"/>
<feBlend mode="normal" in="SourceGraphic" in2="effect1_dropShadow" result="shape"/>
</filter>
</defs>
</svg>
