<svg width="126" height="126" viewBox="0 0 126 126" fill="none" xmlns="http://www.w3.org/2000/svg">
<g filter="url(#filter0_d)">
<circle cx="63" cy="58" r="58" fill="white"/>
</g>
<mask id="path-2-outside-1" maskUnits="userSpaceOnUse" x="30.5349" y="13" width="68" height="89" fill="black">
<rect fill="white" x="30.5349" y="13" width="68" height="89"/>
<path d="M94.845 91.5816H72.7212V88.8801C72.7212 86.6014 70.8673 84.7475 68.5886 84.7475H65.8871V80.0926C83.5199 79.4116 97.6547 64.8566 97.6547 47.0599C97.6547 42.5603 96.7666 38.1974 95.0143 34.092C94.7341 33.4356 93.9755 33.1309 93.3184 33.411C92.6619 33.6911 92.3572 34.4498 92.6373 35.1062C94.0843 38.4947 94.8895 42.0757 95.0421 45.7676H81.3846C81.2791 40.2344 80.4972 34.937 79.1179 30.2734C81.6561 29.0308 84.0416 27.4571 86.2148 25.5753C87.7016 27.0754 89.049 28.7414 90.2232 30.5621C90.6102 31.1615 91.4107 31.3341 92.0094 30.9471C92.6095 30.5608 92.782 29.761 92.3951 29.1609C86.2705 19.6678 75.8781 14 64.5948 14C46.3653 14 31.5349 28.8304 31.5349 47.0599C31.5349 64.8566 45.6703 79.4116 63.3025 80.0926V84.7475H60.601C58.3223 84.7475 56.4684 86.6014 56.4684 88.8794V91.5816H34.3459C33.6317 91.5816 33.0536 92.1597 33.0536 92.8733C33.0536 93.5868 33.6317 94.1656 34.3459 94.1656H56.4684V96.8678C56.4684 99.1465 58.3223 101 60.601 101H68.5886C70.8673 101 72.7212 99.1458 72.7212 96.8678V94.1656H94.845C95.5592 94.1656 96.1373 93.5868 96.1373 92.8733C96.1373 92.1597 95.5585 91.5816 94.845 91.5816ZM52.4653 70.0904C53.7642 72.7501 55.2577 74.9172 56.8899 76.5488C52.4095 75.3772 48.3294 73.2087 44.8984 70.2961C46.7456 68.7297 48.7548 67.4015 50.8835 66.3282C51.3594 67.6484 51.8871 68.9069 52.4653 70.0904ZM54.7878 68.9567C54.2222 67.7984 53.7078 66.5625 53.2458 65.2615C56.8162 63.8291 60.658 63.0764 64.5941 63.0764C68.5302 63.0764 72.3727 63.8298 75.9438 65.2622C75.4811 66.5625 74.9674 67.7984 74.4019 68.9567C71.7004 74.4891 68.2176 77.5358 64.5948 77.5358C60.972 77.5358 57.4893 74.4891 54.7878 68.9567ZM52.454 62.7937C51.2028 58.4474 50.4912 53.5163 50.389 48.3522H78.8006C78.6984 53.5163 77.9862 58.448 76.735 62.7937C72.9104 61.2843 68.8011 60.4924 64.5941 60.4924C60.3872 60.4924 56.2792 61.2843 52.454 62.7937ZM78.3061 66.3282C80.4348 67.4021 82.4433 68.7303 84.2906 70.2968C80.8602 73.2087 76.7794 75.3772 72.2997 76.5488C73.9319 74.9172 75.4254 72.7501 76.7244 70.0904C77.3018 68.9069 77.8295 67.6491 78.3061 66.3282ZM86.2002 68.5325C84.0304 66.6567 81.6501 65.0869 79.1179 63.8477C80.4972 59.1841 81.2791 53.886 81.3846 48.3522H95.0415C94.7122 56.2085 91.3961 63.3048 86.2002 68.5325ZM78.8006 45.7682H50.389C50.4912 40.6042 51.2028 35.6738 52.454 31.3281C56.2786 32.8375 60.3872 33.6294 64.5941 33.6294C68.8017 33.6294 72.9104 32.8375 76.7356 31.3275C77.9868 35.6731 78.6984 40.6042 78.8006 45.7682ZM64.5948 16.584C68.2176 16.584 71.7004 19.6313 74.4019 25.1638C74.9674 26.322 75.4818 27.558 75.9438 28.8589C72.3734 30.292 68.5309 31.0447 64.5941 31.0447C60.658 31.0447 56.8162 30.292 53.2458 28.8596C53.7078 27.558 54.2222 26.322 54.7878 25.1631C57.4893 19.6313 60.972 16.584 64.5948 16.584ZM84.3078 23.8097C82.4566 25.3828 80.4414 26.7156 78.3061 27.7929C77.8302 26.472 77.3025 25.2136 76.7244 24.0301C75.4234 21.3664 73.9273 19.1966 72.2924 17.5644C76.725 18.7147 80.8251 20.85 84.3078 23.8097ZM52.4653 24.0301C51.8871 25.2142 51.3594 26.4727 50.8829 27.7936C48.7542 26.7196 46.745 25.3914 44.8977 23.825C48.3287 20.9124 52.4095 18.7432 56.8899 17.5717C55.2577 19.2032 53.7642 21.3704 52.4653 24.0301ZM34.1481 48.3522H38.065C38.7785 48.3522 39.3573 47.7734 39.3573 47.0599C39.3573 46.3463 38.7785 45.7682 38.065 45.7682H34.1481C34.4774 37.9126 37.7928 30.8164 42.9888 25.5886C45.1579 27.465 47.5388 29.0348 50.0711 30.2747C48.6924 34.937 47.9105 40.2344 47.805 45.7682H44.0952C43.3817 45.7682 42.8029 46.3463 42.8029 47.0599C42.8029 47.7734 43.3817 48.3522 44.0952 48.3522H47.805C47.9105 53.886 48.6924 59.1835 50.0717 63.847C47.5395 65.0863 45.1586 66.6561 42.9894 68.5319C37.7935 63.3041 34.4774 56.2078 34.1481 48.3522ZM70.1372 96.8678C70.1372 97.7214 69.4429 98.4163 68.5886 98.4163H60.601C59.7474 98.4163 59.0524 97.7214 59.0524 96.8678V92.8839C59.0524 92.8799 59.0531 92.8773 59.0531 92.8739C59.0531 92.8699 59.0524 92.8673 59.0524 92.864V88.8801C59.0524 88.0258 59.7474 87.3315 60.601 87.3315H68.5886C69.4429 87.3315 70.1372 88.0265 70.1372 88.8801V96.8678Z"/>
</mask>
<path d="M94.845 91.5816H72.7212V88.8801C72.7212 86.6014 70.8673 84.7475 68.5886 84.7475H65.8871V80.0926C83.5199 79.4116 97.6547 64.8566 97.6547 47.0599C97.6547 42.5603 96.7666 38.1974 95.0143 34.092C94.7341 33.4356 93.9755 33.1309 93.3184 33.411C92.6619 33.6911 92.3572 34.4498 92.6373 35.1062C94.0843 38.4947 94.8895 42.0757 95.0421 45.7676H81.3846C81.2791 40.2344 80.4972 34.937 79.1179 30.2734C81.6561 29.0308 84.0416 27.4571 86.2148 25.5753C87.7016 27.0754 89.049 28.7414 90.2232 30.5621C90.6102 31.1615 91.4107 31.3341 92.0094 30.9471C92.6095 30.5608 92.782 29.761 92.3951 29.1609C86.2705 19.6678 75.8781 14 64.5948 14C46.3653 14 31.5349 28.8304 31.5349 47.0599C31.5349 64.8566 45.6703 79.4116 63.3025 80.0926V84.7475H60.601C58.3223 84.7475 56.4684 86.6014 56.4684 88.8794V91.5816H34.3459C33.6317 91.5816 33.0536 92.1597 33.0536 92.8733C33.0536 93.5868 33.6317 94.1656 34.3459 94.1656H56.4684V96.8678C56.4684 99.1465 58.3223 101 60.601 101H68.5886C70.8673 101 72.7212 99.1458 72.7212 96.8678V94.1656H94.845C95.5592 94.1656 96.1373 93.5868 96.1373 92.8733C96.1373 92.1597 95.5585 91.5816 94.845 91.5816ZM52.4653 70.0904C53.7642 72.7501 55.2577 74.9172 56.8899 76.5488C52.4095 75.3772 48.3294 73.2087 44.8984 70.2961C46.7456 68.7297 48.7548 67.4015 50.8835 66.3282C51.3594 67.6484 51.8871 68.9069 52.4653 70.0904ZM54.7878 68.9567C54.2222 67.7984 53.7078 66.5625 53.2458 65.2615C56.8162 63.8291 60.658 63.0764 64.5941 63.0764C68.5302 63.0764 72.3727 63.8298 75.9438 65.2622C75.4811 66.5625 74.9674 67.7984 74.4019 68.9567C71.7004 74.4891 68.2176 77.5358 64.5948 77.5358C60.972 77.5358 57.4893 74.4891 54.7878 68.9567ZM52.454 62.7937C51.2028 58.4474 50.4912 53.5163 50.389 48.3522H78.8006C78.6984 53.5163 77.9862 58.448 76.735 62.7937C72.9104 61.2843 68.8011 60.4924 64.5941 60.4924C60.3872 60.4924 56.2792 61.2843 52.454 62.7937ZM78.3061 66.3282C80.4348 67.4021 82.4433 68.7303 84.2906 70.2968C80.8602 73.2087 76.7794 75.3772 72.2997 76.5488C73.9319 74.9172 75.4254 72.7501 76.7244 70.0904C77.3018 68.9069 77.8295 67.6491 78.3061 66.3282ZM86.2002 68.5325C84.0304 66.6567 81.6501 65.0869 79.1179 63.8477C80.4972 59.1841 81.2791 53.886 81.3846 48.3522H95.0415C94.7122 56.2085 91.3961 63.3048 86.2002 68.5325ZM78.8006 45.7682H50.389C50.4912 40.6042 51.2028 35.6738 52.454 31.3281C56.2786 32.8375 60.3872 33.6294 64.5941 33.6294C68.8017 33.6294 72.9104 32.8375 76.7356 31.3275C77.9868 35.6731 78.6984 40.6042 78.8006 45.7682ZM64.5948 16.584C68.2176 16.584 71.7004 19.6313 74.4019 25.1638C74.9674 26.322 75.4818 27.558 75.9438 28.8589C72.3734 30.292 68.5309 31.0447 64.5941 31.0447C60.658 31.0447 56.8162 30.292 53.2458 28.8596C53.7078 27.558 54.2222 26.322 54.7878 25.1631C57.4893 19.6313 60.972 16.584 64.5948 16.584ZM84.3078 23.8097C82.4566 25.3828 80.4414 26.7156 78.3061 27.7929C77.8302 26.472 77.3025 25.2136 76.7244 24.0301C75.4234 21.3664 73.9273 19.1966 72.2924 17.5644C76.725 18.7147 80.8251 20.85 84.3078 23.8097ZM52.4653 24.0301C51.8871 25.2142 51.3594 26.4727 50.8829 27.7936C48.7542 26.7196 46.745 25.3914 44.8977 23.825C48.3287 20.9124 52.4095 18.7432 56.8899 17.5717C55.2577 19.2032 53.7642 21.3704 52.4653 24.0301ZM34.1481 48.3522H38.065C38.7785 48.3522 39.3573 47.7734 39.3573 47.0599C39.3573 46.3463 38.7785 45.7682 38.065 45.7682H34.1481C34.4774 37.9126 37.7928 30.8164 42.9888 25.5886C45.1579 27.465 47.5388 29.0348 50.0711 30.2747C48.6924 34.937 47.9105 40.2344 47.805 45.7682H44.0952C43.3817 45.7682 42.8029 46.3463 42.8029 47.0599C42.8029 47.7734 43.3817 48.3522 44.0952 48.3522H47.805C47.9105 53.886 48.6924 59.1835 50.0717 63.847C47.5395 65.0863 45.1586 66.6561 42.9894 68.5319C37.7935 63.3041 34.4774 56.2078 34.1481 48.3522ZM70.1372 96.8678C70.1372 97.7214 69.4429 98.4163 68.5886 98.4163H60.601C59.7474 98.4163 59.0524 97.7214 59.0524 96.8678V92.8839C59.0524 92.8799 59.0531 92.8773 59.0531 92.8739C59.0531 92.8699 59.0524 92.8673 59.0524 92.864V88.8801C59.0524 88.0258 59.7474 87.3315 60.601 87.3315H68.5886C69.4429 87.3315 70.1372 88.0265 70.1372 88.8801V96.8678Z" fill="black"/>
<path d="M94.845 91.5816H72.7212V88.8801C72.7212 86.6014 70.8673 84.7475 68.5886 84.7475H65.8871V80.0926C83.5199 79.4116 97.6547 64.8566 97.6547 47.0599C97.6547 42.5603 96.7666 38.1974 95.0143 34.092C94.7341 33.4356 93.9755 33.1309 93.3184 33.411C92.6619 33.6911 92.3572 34.4498 92.6373 35.1062C94.0843 38.4947 94.8895 42.0757 95.0421 45.7676H81.3846C81.2791 40.2344 80.4972 34.937 79.1179 30.2734C81.6561 29.0308 84.0416 27.4571 86.2148 25.5753C87.7016 27.0754 89.049 28.7414 90.2232 30.5621C90.6102 31.1615 91.4107 31.3341 92.0094 30.9471C92.6095 30.5608 92.782 29.761 92.3951 29.1609C86.2705 19.6678 75.8781 14 64.5948 14C46.3653 14 31.5349 28.8304 31.5349 47.0599C31.5349 64.8566 45.6703 79.4116 63.3025 80.0926V84.7475H60.601C58.3223 84.7475 56.4684 86.6014 56.4684 88.8794V91.5816H34.3459C33.6317 91.5816 33.0536 92.1597 33.0536 92.8733C33.0536 93.5868 33.6317 94.1656 34.3459 94.1656H56.4684V96.8678C56.4684 99.1465 58.3223 101 60.601 101H68.5886C70.8673 101 72.7212 99.1458 72.7212 96.8678V94.1656H94.845C95.5592 94.1656 96.1373 93.5868 96.1373 92.8733C96.1373 92.1597 95.5585 91.5816 94.845 91.5816ZM52.4653 70.0904C53.7642 72.7501 55.2577 74.9172 56.8899 76.5488C52.4095 75.3772 48.3294 73.2087 44.8984 70.2961C46.7456 68.7297 48.7548 67.4015 50.8835 66.3282C51.3594 67.6484 51.8871 68.9069 52.4653 70.0904ZM54.7878 68.9567C54.2222 67.7984 53.7078 66.5625 53.2458 65.2615C56.8162 63.8291 60.658 63.0764 64.5941 63.0764C68.5302 63.0764 72.3727 63.8298 75.9438 65.2622C75.4811 66.5625 74.9674 67.7984 74.4019 68.9567C71.7004 74.4891 68.2176 77.5358 64.5948 77.5358C60.972 77.5358 57.4893 74.4891 54.7878 68.9567ZM52.454 62.7937C51.2028 58.4474 50.4912 53.5163 50.389 48.3522H78.8006C78.6984 53.5163 77.9862 58.448 76.735 62.7937C72.9104 61.2843 68.8011 60.4924 64.5941 60.4924C60.3872 60.4924 56.2792 61.2843 52.454 62.7937ZM78.3061 66.3282C80.4348 67.4021 82.4433 68.7303 84.2906 70.2968C80.8602 73.2087 76.7794 75.3772 72.2997 76.5488C73.9319 74.9172 75.4254 72.7501 76.7244 70.0904C77.3018 68.9069 77.8295 67.6491 78.3061 66.3282ZM86.2002 68.5325C84.0304 66.6567 81.6501 65.0869 79.1179 63.8477C80.4972 59.1841 81.2791 53.886 81.3846 48.3522H95.0415C94.7122 56.2085 91.3961 63.3048 86.2002 68.5325ZM78.8006 45.7682H50.389C50.4912 40.6042 51.2028 35.6738 52.454 31.3281C56.2786 32.8375 60.3872 33.6294 64.5941 33.6294C68.8017 33.6294 72.9104 32.8375 76.7356 31.3275C77.9868 35.6731 78.6984 40.6042 78.8006 45.7682ZM64.5948 16.584C68.2176 16.584 71.7004 19.6313 74.4019 25.1638C74.9674 26.322 75.4818 27.558 75.9438 28.8589C72.3734 30.292 68.5309 31.0447 64.5941 31.0447C60.658 31.0447 56.8162 30.292 53.2458 28.8596C53.7078 27.558 54.2222 26.322 54.7878 25.1631C57.4893 19.6313 60.972 16.584 64.5948 16.584ZM84.3078 23.8097C82.4566 25.3828 80.4414 26.7156 78.3061 27.7929C77.8302 26.472 77.3025 25.2136 76.7244 24.0301C75.4234 21.3664 73.9273 19.1966 72.2924 17.5644C76.725 18.7147 80.8251 20.85 84.3078 23.8097ZM52.4653 24.0301C51.8871 25.2142 51.3594 26.4727 50.8829 27.7936C48.7542 26.7196 46.745 25.3914 44.8977 23.825C48.3287 20.9124 52.4095 18.7432 56.8899 17.5717C55.2577 19.2032 53.7642 21.3704 52.4653 24.0301ZM34.1481 48.3522H38.065C38.7785 48.3522 39.3573 47.7734 39.3573 47.0599C39.3573 46.3463 38.7785 45.7682 38.065 45.7682H34.1481C34.4774 37.9126 37.7928 30.8164 42.9888 25.5886C45.1579 27.465 47.5388 29.0348 50.0711 30.2747C48.6924 34.937 47.9105 40.2344 47.805 45.7682H44.0952C43.3817 45.7682 42.8029 46.3463 42.8029 47.0599C42.8029 47.7734 43.3817 48.3522 44.0952 48.3522H47.805C47.9105 53.886 48.6924 59.1835 50.0717 63.847C47.5395 65.0863 45.1586 66.6561 42.9894 68.5319C37.7935 63.3041 34.4774 56.2078 34.1481 48.3522ZM70.1372 96.8678C70.1372 97.7214 69.4429 98.4163 68.5886 98.4163H60.601C59.7474 98.4163 59.0524 97.7214 59.0524 96.8678V92.8839C59.0524 92.8799 59.0531 92.8773 59.0531 92.8739C59.0531 92.8699 59.0524 92.8673 59.0524 92.864V88.8801C59.0524 88.0258 59.7474 87.3315 60.601 87.3315H68.5886C69.4429 87.3315 70.1372 88.0265 70.1372 88.8801V96.8678Z" stroke="black" mask="url(#path-2-outside-1)"/>
<defs>
<filter id="filter0_d" x="0" y="0" width="126" height="126" filterUnits="userSpaceOnUse" color-interpolation-filters="sRGB">
<feFlood flood-opacity="0" result="BackgroundImageFix"/>
<feColorMatrix in="SourceAlpha" type="matrix" values="0 0 0 0 0 0 0 0 0 0 0 0 0 0 0 0 0 0 127 0"/>
<feOffset dy="5"/>
<feGaussianBlur stdDeviation="2.5"/>
<feColorMatrix type="matrix" values="0 0 0 0 0 0 0 0 0 0 0 0 0 0 0 0 0 0 0.25 0"/>
<feBlend mode="normal" in2="BackgroundImageFix" result="effect1_dropShadow"/>
<feBlend mode="normal" in="SourceGraphic" in2="effect1_dropShadow" result="shape"/>
</filter>
</defs>
</svg>
