<svg width="82" height="82" viewBox="0 0 82 82" fill="none" xmlns="http://www.w3.org/2000/svg">
<g clip-path="url(#clip0)">
<path d="M53.2363 62.6217H21.9839C21.0993 62.6217 20.3824 61.9048 20.3824 61.0201C20.3824 60.1362 21.0993 59.4186 21.9839 59.4186H53.2363C54.1209 59.4186 54.8379 60.1362 54.8379 61.0201C54.8379 61.9048 54.1209 62.6217 53.2363 62.6217Z" fill="#EE414F"/>
<path d="M60.0173 62.623C59.9116 62.623 59.8071 62.6117 59.7032 62.5904C59.6006 62.5698 59.5012 62.5398 59.4036 62.4997C59.3079 62.4597 59.2146 62.4096 59.1283 62.3521C59.0401 62.2927 58.9588 62.227 58.8831 62.1519C58.8092 62.0781 58.7436 61.9967 58.6848 61.9098C58.6272 61.8222 58.5771 61.729 58.5371 61.6333C58.4971 61.5369 58.467 61.4362 58.4458 61.3336C58.4251 61.2297 58.4157 61.1253 58.4157 61.0214C58.4157 60.9157 58.4251 60.8112 58.4458 60.7074C58.467 60.6048 58.4971 60.504 58.5371 60.4077C58.5771 60.312 58.6272 60.2188 58.6848 60.1312C58.7436 60.0442 58.8092 59.9629 58.8831 59.8891C58.9588 59.814 59.0401 59.7483 59.1264 59.6889C59.2146 59.6313 59.3079 59.5813 59.4036 59.5412C59.4999 59.5012 59.6006 59.4711 59.7032 59.4505C59.9097 59.4086 60.123 59.4086 60.3295 59.4505C60.4321 59.4711 60.5328 59.5012 60.6292 59.5412C60.7249 59.5813 60.8181 59.6313 60.9057 59.6889C60.9926 59.7483 61.0758 59.814 61.1497 59.8891C61.2229 59.9629 61.2904 60.0442 61.348 60.1312C61.4055 60.2194 61.4556 60.312 61.4956 60.4077C61.5357 60.504 61.5657 60.6048 61.5863 60.7074C61.6076 60.8112 61.617 60.9157 61.617 61.0214C61.617 61.1253 61.6076 61.2297 61.5863 61.3336C61.5657 61.4362 61.5357 61.5369 61.4956 61.6333C61.4556 61.729 61.4055 61.8222 61.348 61.9098C61.2904 61.9967 61.2229 62.0781 61.1497 62.1519C61.0758 62.227 60.9926 62.2927 60.9057 62.3521C60.8181 62.4096 60.7249 62.4597 60.6292 62.4997C60.5328 62.5398 60.4321 62.5698 60.3295 62.5904C60.2269 62.6111 60.1212 62.623 60.0173 62.623Z" fill="#EE414F"/>
<path d="M41 78.3959C38.3512 78.3959 36.1953 76.2406 36.1953 73.5912C36.1953 70.9417 38.3512 68.7865 41 68.7865C43.6495 68.7865 45.8047 70.9417 45.8047 73.5912C45.8047 76.2406 43.6495 78.3959 41 78.3959ZM41 71.9896C40.1173 71.9896 39.3984 72.7084 39.3984 73.5912C39.3984 74.4745 40.1173 75.1927 41 75.1927C41.8834 75.1927 42.6016 74.4745 42.6016 73.5912C42.6016 72.7084 41.8834 71.9896 41 71.9896Z" fill="#EE414F"/>
<path d="M41 27.7665C36.9292 27.7665 33.6165 24.4546 33.6165 20.3831C33.6165 16.3116 36.9285 12.9996 41 12.9996C45.0715 12.9996 48.3835 16.3122 48.3835 20.3831C48.3835 24.4546 45.0715 27.7665 41 27.7665ZM41 16.2028C38.6953 16.2028 36.8197 18.0783 36.8197 20.3831C36.8197 22.6885 38.6953 24.5634 41 24.5634C43.3054 24.5634 45.1803 22.6885 45.1803 20.3831C45.1803 18.0783 43.3054 16.2028 41 16.2028Z" fill="#EE414F"/>
<path d="M75.4061 14.5192H52.9366C49.7754 6.8292 42.4164 0.690708 42.0216 0.365391C41.4298 -0.12196 40.5765 -0.12196 39.9846 0.365391C39.5892 0.690708 32.2264 6.8292 29.064 14.5192H6.59393C3.92946 14.5192 1.76172 16.6869 1.76172 19.352V75.6032C1.76172 79.1304 4.63139 82 8.15858 82H73.8414C77.3692 82 80.2389 79.1304 80.2389 75.6032V19.352C80.2389 16.6869 78.0705 14.5192 75.4061 14.5192ZM53.4115 30.4116L57.1739 34.6238L55.4178 41.707L52.1096 40.0497C52.4524 37.6205 52.9629 33.93 53.4115 30.4116ZM51.5278 43.3411L54.5463 44.8525C52.8353 45.5407 51.4058 46.7932 50.4993 48.4166C49.432 47.8223 48.2396 47.4764 46.9933 47.4082C47.7347 46.4072 48.4623 45.3099 49.0985 44.1531H50.1345C50.7257 44.1531 51.2506 43.8303 51.5278 43.3411ZM36.6395 44.1531H45.3599C43.8728 46.4197 42.1029 48.3453 40.9994 49.457C39.8964 48.3472 38.1278 46.4241 36.6395 44.1531ZM41.0037 3.74118C43.7608 6.28304 51.1562 13.7866 51.1562 21.1394C51.1562 23.4892 49.6697 34.4493 48.8301 40.3644C48.7557 40.5559 48.72 40.7542 48.7207 40.95H33.2793C33.28 40.7542 33.2443 40.5559 33.1699 40.365C32.3303 34.4493 30.8438 23.4892 30.8438 21.1388C30.8438 13.801 38.2467 6.28492 41.0037 3.74118ZM31.8655 44.1531H32.9021C33.5377 45.3099 34.2659 46.4072 35.0066 47.4082C33.7604 47.4764 32.5686 47.8223 31.5007 48.4166C30.5948 46.7932 29.1653 45.5407 27.4543 44.8525L30.4722 43.3411C30.7494 43.8303 31.2743 44.1531 31.8655 44.1531ZM29.891 40.0497L26.5822 41.707L24.8868 34.8666L28.8081 32.1082C29.1966 35.0786 29.6033 38.009 29.891 40.0497ZM4.96484 19.352C4.96484 18.4537 5.69556 17.7223 6.59393 17.7223H28.0374C27.799 18.7765 27.6589 19.8475 27.6426 20.9255H9.76953C8.88492 20.9255 8.16797 21.643 8.16797 22.527V65.2368H4.96484V19.352ZM77.0358 75.6032C77.0358 77.3643 75.6025 78.7969 73.8414 78.7969H8.15858C6.39749 78.7969 4.96484 77.3643 4.96484 75.6032V68.4393H60.0167C60.9013 68.4393 61.6182 67.7224 61.6182 66.8377C61.6182 65.9538 60.9013 65.2362 60.0167 65.2362H11.3711V24.1286H27.8534C27.9798 25.3929 28.1537 26.9044 28.3514 28.5129L22.1466 32.8777C21.6061 33.2581 21.3552 33.9313 21.5141 34.5731L23.919 44.2757C19.6354 44.5172 16.2246 48.0782 16.2246 52.4212C16.2246 53.7362 16.5455 55.0444 17.153 56.203C17.5634 56.9869 18.5318 57.2884 19.3151 56.878C20.0984 56.4676 20.4005 55.4998 19.9901 54.7165C19.6173 54.0046 19.4277 53.232 19.4277 52.4212C19.4277 49.6885 21.6505 47.4657 24.3832 47.4657C26.6773 47.4657 28.7099 49.0867 29.216 51.3195C29.3455 51.8913 29.7772 52.3467 30.3408 52.5069C30.9045 52.6664 31.5114 52.5056 31.9218 52.0865C32.8614 51.1274 34.1183 50.5994 35.4608 50.5994C37.1669 50.5994 38.7322 51.4602 39.6481 52.9029C39.9421 53.3659 40.452 53.6461 41 53.6461C41.548 53.6461 42.0585 53.3659 42.3519 52.9029C43.2678 51.4602 44.8337 50.5994 46.5392 50.5994C47.8817 50.5994 49.1386 51.1274 50.0789 52.0865C50.4886 52.505 51.0948 52.6664 51.6591 52.5069C52.2234 52.3467 52.6551 51.8913 52.7846 51.3195C53.2907 49.0867 55.3233 47.4657 57.6175 47.4657C60.3495 47.4657 62.5723 49.6885 62.5723 52.4212C62.5723 53.232 62.3834 54.0046 62.0099 54.7165C61.5995 55.4998 61.9016 56.4676 62.6855 56.878C62.9226 57.0025 63.1766 57.0613 63.4275 57.0613C64.0043 57.0613 64.5611 56.7492 64.847 56.203C65.4545 55.0444 65.7754 53.7362 65.7754 52.4212C65.7754 48.0782 62.3646 44.5172 58.081 44.2757L60.4865 34.5731C60.6135 34.0595 60.479 33.5159 60.1262 33.1211L53.9257 26.18C54.0089 25.4474 54.0834 24.7573 54.1466 24.1286H70.6289V65.2368H68.6101C67.7254 65.2368 67.0085 65.9538 67.0085 66.8384C67.0085 67.723 67.7254 68.4399 68.6101 68.4399H77.0351V75.6032H77.0358ZM77.0358 65.2368H73.8326V22.527C73.8326 21.643 73.1151 20.9255 72.2311 20.9255H54.358C54.3411 19.8475 54.2016 18.7765 53.9626 17.7223H75.4061C76.3044 17.7223 77.0358 18.4537 77.0358 19.352V65.2368Z" fill="#EE414F"/>
</g>
<defs>
<clipPath id="clip0">
<rect width="82" height="82" fill="white"/>
</clipPath>
</defs>
</svg>
