<svg width="82" height="82" viewBox="0 0 82 82" fill="none" xmlns="http://www.w3.org/2000/svg">
<path d="M59.0032 74.1639C58.5203 73.4227 57.5282 73.213 56.787 73.6959C51.6642 77.0328 45.7095 78.7966 39.567 78.7966C22.1464 78.7966 7.97351 64.6239 7.97351 47.2032C7.97351 40.8772 9.83597 34.774 13.3599 29.5526C13.8548 28.8194 13.6615 27.824 12.9283 27.3292C12.1952 26.8343 11.1995 27.0276 10.7047 27.7608C6.82263 33.5133 4.77039 40.2366 4.77039 47.2034C4.77039 56.4979 8.38992 65.236 14.9621 71.8083C21.5342 78.3806 30.2725 82 39.567 82C46.3318 82 52.8908 80.0567 58.5354 76.3801C59.2767 75.8974 59.4862 74.9051 59.0032 74.1639Z" fill="#EE414F"/>
<path d="M64.3837 69.3074C63.752 68.688 62.7381 68.6981 62.1186 69.3296L62.0654 69.3836C61.4424 70.0114 61.4464 71.0255 62.0742 71.6487C62.3867 71.9586 62.7944 72.1133 63.2023 72.1133C63.6141 72.1133 64.0262 71.9554 64.3393 71.6397L64.4056 71.5724C65.0251 70.9408 65.0153 69.9268 64.3837 69.3074Z" fill="#EE414F"/>
<path d="M70.8709 26.2478C71.1837 26.5606 71.5936 26.7169 72.0034 26.7169C72.4132 26.7169 72.8231 26.5604 73.1358 26.2478L75.8037 23.5799C77.7046 21.6787 77.7046 18.5853 75.8037 16.6841L70.0862 10.9665C69.1651 10.0456 67.9406 9.53841 66.6383 9.53841C65.3358 9.53841 64.1114 10.0456 63.1905 10.9665L60.5226 13.6342C60.2223 13.9345 60.0535 14.342 60.0535 14.7667C60.0535 15.1914 60.2223 15.5989 60.5226 15.8992L61.28 16.6565L59.361 18.5755C55.2916 15.7491 50.6897 13.8429 45.8137 12.9641V10.2505H49.3373C50.2217 10.2505 50.9389 9.53344 50.9389 8.6489V1.60156C50.9389 0.717018 50.2217 0 49.3373 0H29.7975C28.9131 0 28.1959 0.717018 28.1959 1.60156V8.64874C28.1959 9.53328 28.9131 10.2503 29.7975 10.2503H33.3211V12.9673C28.7371 13.7986 24.3628 15.5443 20.4349 18.1343C19.6965 18.6213 19.4926 19.6146 19.9795 20.3533C20.4666 21.0917 21.4601 21.2956 22.1984 20.8086C27.3558 17.4077 33.3619 15.6101 39.5675 15.6101C56.9881 15.6101 71.161 29.7828 71.161 47.2036C71.161 53.1112 69.5207 58.872 66.4173 63.8625C65.9503 64.6136 66.1804 65.6012 66.9317 66.0685C67.195 66.2322 67.4872 66.3102 67.7759 66.3102C68.3112 66.3102 68.8341 66.0421 69.1376 65.5541C72.557 60.0553 74.3642 53.7097 74.3642 47.2036C74.3642 40.0265 72.2042 33.1824 68.1949 27.4099L70.1139 25.4909L70.8709 26.2478ZM42.6103 12.5397C41.6039 12.4531 40.5893 12.4068 39.5672 12.4068C38.5471 12.4066 37.5321 12.4518 36.524 12.5394V10.2505H42.6101V12.5397H42.6103ZM34.9226 7.04718H31.3991V3.20328H47.7356V7.04718H44.212H34.9226ZM66.2298 24.8442C65.5794 24.0714 64.8947 23.3211 64.1719 22.5983C63.4493 21.8757 62.699 21.191 61.9261 20.5405L63.5448 18.9218L67.8483 23.2253L66.2298 24.8442ZM64.6775 15.5244C64.6772 15.5241 64.6769 15.5239 64.6766 15.5236L63.9202 14.7672L65.4556 13.2319C65.7716 12.9159 66.1915 12.742 66.6383 12.742C67.085 12.742 67.5051 12.9159 67.8211 13.2321L73.5386 18.9495C74.1908 19.6016 74.1908 20.663 73.5386 21.3153L72.0034 22.8504L71.2484 22.0954C71.2476 22.0946 71.247 22.0938 71.2462 22.093L64.6775 15.5244Z" fill="#EE414F"/>
<path d="M39.5673 24.5027C38.6829 24.5027 37.9658 25.2197 37.9658 26.1042V29.6278C37.9658 30.5124 38.6828 31.2294 39.5673 31.2294C40.4517 31.2294 41.1689 30.5124 41.1689 29.6278V26.1042C41.1689 25.2197 40.4517 24.5027 39.5673 24.5027Z" fill="#EE414F"/>
<path d="M55.6186 31.1515C55.3207 30.8536 54.9077 30.6823 54.4863 30.6823C54.0651 30.6823 53.6519 30.8536 53.3542 31.1515C53.0563 31.4494 52.8848 31.8626 52.8848 32.2838C52.8848 32.7066 53.0561 33.1182 53.3542 33.4161C53.6519 33.714 54.0651 33.8854 54.4863 33.8854C54.9077 33.8854 55.3207 33.714 55.6186 33.4161C55.9165 33.1182 56.0879 32.705 56.0879 32.2838C56.0879 31.8626 55.9167 31.4494 55.6186 31.1515Z" fill="#EE414F"/>
<path d="M60.6663 45.6018H57.1427C56.2583 45.6018 55.5411 46.3188 55.5411 47.2034C55.5411 48.0879 56.2583 48.8049 57.1427 48.8049H60.6663C61.5507 48.8049 62.2678 48.0879 62.2678 47.2034C62.2678 46.3188 61.5507 45.6018 60.6663 45.6018Z" fill="#EE414F"/>
<path d="M55.6186 60.9898C55.3207 60.6919 54.9077 60.5205 54.4863 60.5205C54.0651 60.5205 53.6519 60.6919 53.3542 60.9898C53.0563 61.2877 52.8848 61.7009 52.8848 62.1221C52.8848 62.5449 53.0561 62.9581 53.3542 63.2544C53.6519 63.5539 54.0651 63.7236 54.4863 63.7236C54.9077 63.7236 55.3207 63.5539 55.6186 63.2544C55.9165 62.9565 56.0879 62.5449 56.0879 62.1221C56.0879 61.7009 55.9167 61.2893 55.6186 60.9898Z" fill="#EE414F"/>
<path d="M39.5673 63.1772C38.6829 63.1772 37.9658 63.8943 37.9658 64.7788V68.3024C37.9658 69.1869 38.6829 69.904 39.5673 69.904C40.4517 69.904 41.1689 69.1869 41.1689 68.3024V64.7788C41.1689 63.8944 40.4517 63.1772 39.5673 63.1772Z" fill="#EE414F"/>
<path d="M25.7803 60.9898C25.4823 60.6919 25.0692 60.5205 24.648 60.5205C24.2268 60.5205 23.8136 60.6919 23.5159 60.9898C23.218 61.2877 23.0464 61.7009 23.0464 62.1221C23.0464 62.5449 23.2178 62.9565 23.5159 63.2544C23.8136 63.5539 24.2268 63.7236 24.648 63.7236C25.0692 63.7236 25.4824 63.5539 25.7803 63.2544C26.0782 62.9565 26.2496 62.5449 26.2496 62.1221C26.2497 61.7009 26.0784 61.2877 25.7803 60.9898Z" fill="#EE414F"/>
<path d="M21.9917 45.6018H18.4681C17.5837 45.6018 16.8665 46.3188 16.8665 47.2034C16.8665 48.0879 17.5837 48.8049 18.4681 48.8049H21.9917C22.876 48.8049 23.5932 48.0879 23.5932 47.2034C23.5934 46.3188 22.8762 45.6018 21.9917 45.6018Z" fill="#EE414F"/>
<path d="M25.7803 31.1515C25.4824 30.8536 25.0692 30.6823 24.648 30.6823C24.2268 30.6823 23.8136 30.8536 23.5159 31.1515C23.218 31.4494 23.0464 31.8626 23.0464 32.2838C23.0464 32.705 23.2178 33.1182 23.5159 33.4161C23.8136 33.714 24.2268 33.8854 24.648 33.8854C25.0692 33.8854 25.4824 33.714 25.7803 33.4161C26.0782 33.1182 26.2496 32.705 26.2496 32.2838C26.2496 31.8626 26.0784 31.4494 25.7803 31.1515Z" fill="#EE414F"/>
<path d="M52.0719 34.6986C51.5505 34.1773 50.7407 34.0792 50.11 34.461L36.8895 42.4647C36.7465 42.5459 36.5463 42.6636 36.4108 42.7703C35.0269 43.7586 34.1219 45.3768 34.1219 47.2032C34.1219 50.2061 36.5647 52.6488 39.5673 52.6488C41.3867 52.6488 42.9996 51.751 43.9889 50.3759C44.1072 50.2294 44.2176 50.037 44.3074 49.8786L52.3095 36.6605C52.6913 36.0299 52.5931 35.22 52.0719 34.6986ZM41.548 48.2514L41.4157 48.4699C41.0111 49.0585 40.3338 49.4457 39.5672 49.4457C38.3309 49.4457 37.325 48.4399 37.325 47.2035C37.325 46.4367 37.7124 45.7591 38.3013 45.3545L38.5185 45.223C38.8316 45.0565 39.1882 44.9614 39.567 44.9614C40.8034 44.9614 41.8093 45.9671 41.8093 47.2037C41.8093 47.582 41.7142 47.9385 41.548 48.2514ZM44.0507 44.1176C43.6735 43.5714 43.1995 43.0973 42.653 42.7201L46.1949 40.576L44.0507 44.1176Z" fill="#EE414F"/>
<path d="M39.5673 19.4587C24.2688 19.4587 11.8224 31.9048 11.8224 47.2034C11.8224 62.5019 24.2686 74.9481 39.5673 74.9481C54.8661 74.9481 67.3121 62.5019 67.3121 47.2034C67.3121 31.9048 54.8659 19.4587 39.5673 19.4587ZM39.5673 71.7449C26.0351 71.7449 15.0257 60.7356 15.0257 47.2034C15.0257 33.6711 26.035 22.6619 39.5673 22.6619C53.0995 22.6619 64.1088 33.6711 64.1088 47.2034C64.1088 60.7356 53.0995 71.7449 39.5673 71.7449Z" fill="#EE414F"/>
<path d="M17.3254 22.5011C17.0273 22.2032 16.6143 22.0319 16.1931 22.0319C15.7718 22.0319 15.3586 22.2032 15.0609 22.5011C14.763 22.799 14.5915 23.2122 14.5915 23.6334C14.5915 24.0562 14.7629 24.4678 15.0609 24.7657C15.3586 25.0636 15.7718 25.235 16.1931 25.235C16.6143 25.235 17.0275 25.0636 17.3254 24.7657C17.6232 24.4678 17.7946 24.0546 17.7946 23.6334C17.7946 23.2124 17.6234 22.7992 17.3254 22.5011Z" fill="#EE414F"/>
</svg>
