<svg width="82" height="82" viewBox="0 0 82 82" fill="none" xmlns="http://www.w3.org/2000/svg">
<path d="M40.9999 27.2797C36.5844 27.2797 32.9921 30.879 32.9921 35.3032C32.9921 39.7273 36.5844 43.3267 40.9999 43.3267C45.4154 43.3267 49.0077 39.7273 49.0077 35.3032C49.0077 30.879 45.4154 27.2797 40.9999 27.2797ZM40.9999 40.1174C38.3506 40.1174 36.1952 37.9579 36.1952 35.3033C36.1952 32.6487 38.3506 30.4892 40.9999 30.4892C43.6492 30.4892 45.8046 32.6487 45.8046 35.3033C45.8046 37.9579 43.6492 40.1174 40.9999 40.1174Z" fill="#EE414F"/>
<path d="M65.9143 10.3401C59.2595 3.67222 50.4115 0 40.9999 0C31.5887 0 22.7406 3.67222 16.0858 10.3401C9.43063 17.0079 5.76562 25.8734 5.76562 35.3033V80.3952C5.76562 81.2815 6.48264 82 7.36718 82H74.6327C75.5172 82 76.2342 81.2815 76.2342 80.3952V35.3033C76.2342 25.8734 72.5694 17.0079 65.9143 10.3401ZM26.5859 78.7905H8.96874V75.5811H26.5859V78.7905ZM52.2108 72.3717H47.4062C46.5237 72.3717 45.8046 73.0923 45.8046 73.9765C45.8046 74.8607 46.5237 75.5813 47.4062 75.5813H52.2108V78.7906H29.789V75.5813H34.5937C35.4762 75.5813 36.1952 74.8607 36.1952 73.9765C36.1952 73.0923 35.4762 72.3717 34.5937 72.3717H29.789V69.1624H52.2108V72.3717ZM52.2108 65.9529H29.789V62.7435H52.2108V65.9529ZM53.8124 59.5341H28.1875C27.3044 59.5341 26.5859 58.8142 26.5859 57.9294C26.5859 57.0445 27.3044 56.3246 28.1875 56.3246H53.8124C54.6955 56.3246 55.414 57.0445 55.414 57.9294C55.414 58.8142 54.6957 59.5341 53.8124 59.5341ZM24.8967 54.4268C19.469 49.8311 16.0156 42.9641 16.0156 35.3033C16.0156 21.5 27.2235 10.2702 40.9999 10.2702C54.7764 10.2702 65.9843 21.5 65.9843 35.3033C65.9843 42.9642 62.5311 49.8314 57.1034 54.4269C56.2429 53.6148 55.0852 53.1154 53.8124 53.1154H28.1875C26.915 53.1154 25.7572 53.6146 24.8967 54.4268ZM73.0311 78.7905H55.414V75.5811H73.0311V78.7905ZM73.0311 72.3717H55.414V62.4675C57.278 61.8051 58.6171 60.0215 58.6171 57.9295C58.6171 57.7367 58.6044 57.5469 58.5823 57.3599C65.0421 52.1802 69.1874 44.2184 69.1874 35.3033C69.1874 19.7303 56.5426 7.0608 40.9999 7.0608C25.4573 7.0608 12.8125 19.7303 12.8125 35.3033C12.8125 44.2184 16.9581 52.1799 23.4175 57.3595C23.3954 57.5466 23.3828 57.7365 23.3828 57.9295C23.3828 60.0215 24.7218 61.8051 26.5859 62.4675V72.3717H8.96874V35.3033C8.96874 17.6067 23.3381 3.20953 40.9999 3.20953C58.6618 3.20953 73.0311 17.6067 73.0311 35.3033V72.3717Z" fill="#EE414F"/>
<path d="M40.9999 72.3715C40.1175 72.3715 39.3984 73.092 39.3984 73.9762C39.3984 74.8604 40.1175 75.581 40.9999 75.581C41.8824 75.581 42.6015 74.8604 42.6015 73.9762C42.6015 73.092 41.8824 72.3715 40.9999 72.3715Z" fill="#EE414F"/>
<path d="M31.2873 29.6873C31.7299 28.92 31.4679 27.9384 30.7022 27.495C29.9363 27.0515 28.9568 27.3138 28.514 28.0811C25.9442 32.5357 25.9438 38.0702 28.5137 42.5251C28.8103 43.0394 29.3484 43.3268 29.9018 43.3268C30.1737 43.3268 30.4493 43.2575 30.7017 43.1113C31.4676 42.6678 31.7295 41.6864 31.2869 40.9191C29.2887 37.4549 29.289 33.1512 31.2873 29.6873Z" fill="#EE414F"/>
<path d="M25.4577 43.6245C22.7005 38.4596 22.6782 32.2803 25.398 27.0948C25.8094 26.3103 25.5083 25.3401 24.7253 24.9279C23.9423 24.5155 22.974 24.8174 22.5626 25.6018C19.3481 31.7305 19.3745 39.0338 22.6331 45.1381C22.9217 45.6786 23.4748 45.9863 24.0468 45.9863C24.3016 45.9863 24.5602 45.9251 24.8008 45.7964C25.5807 45.3783 25.8748 44.406 25.4577 43.6245Z" fill="#EE414F"/>
</svg>
