<svg width="83" height="83" viewBox="0 0 83 83" fill="none" xmlns="http://www.w3.org/2000/svg">
<path d="M39.6872 25.1664C39.0914 23.3699 38.8076 21.8009 38.8197 20.3672C38.8759 13.4621 34.1944 7.32812 27.691 5.78191C23.1715 4.70425 18.5369 5.70427 14.9733 8.51958C11.4136 11.3335 9.37075 15.5465 9.37075 20.09L9.37209 20.3672C9.38414 21.8009 9.10033 23.3699 8.50461 25.1664C8.11906 26.3311 7.96778 27.548 8.0548 28.7863C8.38412 33.4718 12.7871 37.4357 17.6935 37.4839C19.2062 39.1707 21.5503 40.1613 24.0952 40.1613C26.6428 40.1613 28.9882 39.1693 30.4983 37.4839C35.4046 37.4344 39.8077 33.4718 40.137 28.7863C40.224 27.548 40.0727 26.3311 39.6872 25.1664ZM37.4662 28.5989C37.2346 31.9055 33.9361 34.8065 30.4086 34.8065L29.1582 34.848L28.7566 35.3875C27.7968 36.6807 26.0109 37.4839 24.0966 37.4839C22.1822 37.4839 20.3964 36.6807 19.4325 35.3848L18.9492 34.8065H17.7845C14.257 34.8065 10.9585 31.9055 10.7269 28.5975C10.6653 27.71 10.7724 26.8385 11.0468 26.0071C11.7362 23.9281 12.0642 22.0767 12.0508 20.3457L12.0482 20.0807C12.0482 16.3711 13.7202 12.9226 16.6346 10.6214C18.2263 9.36296 20.0831 8.55171 22.0457 8.21569L21.1701 10.4045C20.4472 12.2131 20.0804 14.1181 20.0804 16.0645C20.0804 18.2788 21.8823 20.0807 24.0966 20.0807C26.3108 20.0807 28.1127 18.2788 28.1127 16.0645H25.4353C25.4353 16.8035 24.8342 17.4033 24.0966 17.4033C23.3589 17.4033 22.7578 16.8035 22.7578 16.0645C22.7578 14.4594 23.0604 12.8891 23.6561 11.3978L24.9801 8.08851C25.6762 8.1367 26.375 8.22104 27.0712 8.38704C32.3725 9.64677 36.1878 14.6763 36.1423 20.3471C36.1289 22.0794 36.4569 23.9308 37.1463 26.0085C37.4207 26.8398 37.5292 27.71 37.4662 28.5989Z" fill="#EE414F"/>
<path d="M24.0968 0C10.8101 0 0 10.8101 0 24.0968V58.9032C0 72.1899 10.8101 83 24.0968 83C37.3835 83 48.1935 72.1899 48.1935 58.9032V24.0968C48.1935 10.8101 37.3835 0 24.0968 0ZM45.5161 58.9032C45.5161 59.4106 45.4746 59.9073 45.4398 60.4066C45.0677 53.3114 42.7289 46.5416 38.5736 40.7222L36.3942 42.2778C40.6098 48.1802 42.8387 55.1348 42.8387 62.3879V69.2501C41.7129 71.2809 40.2563 73.0976 38.5589 74.6572C35.8854 69.1136 30.3392 65.5968 24.0968 65.5968V68.2742C29.5119 68.2742 34.2924 71.455 36.4035 76.4055C32.9175 78.8647 28.6778 80.3226 24.0968 80.3226C12.2867 80.3226 2.67742 70.7133 2.67742 58.9032V24.0968C2.67742 12.2867 12.2867 2.67742 24.0968 2.67742C35.9069 2.67742 45.5161 12.2867 45.5161 24.0968V58.9032Z" fill="#EE414F"/>
<path d="M37.286 59.3704L35.0035 60.7694C36.4586 63.1429 37.6193 65.6958 38.4493 68.3559L41.0049 67.558C40.108 64.6864 38.8576 61.9327 37.286 59.3704Z" fill="#EE414F"/>
<path d="M20.0608 44.6901C15.3391 42.7463 11.0499 39.7008 7.65762 35.8855L5.65625 37.6633C9.31628 41.7825 13.9455 45.0677 19.042 47.1668C24.1974 49.2886 28.7905 52.6903 32.3247 57.0049L34.3957 55.3074C30.5817 50.6514 25.6244 46.9807 20.0608 44.6901Z" fill="#EE414F"/>
<path d="M83 37.4839H72.3439C72.4724 33.6445 73.1203 29.8546 74.3385 26.2026L74.5568 25.5506C74.8285 24.7313 74.9677 23.8759 74.9677 23.0097V22.7581C74.9677 18.3283 71.3653 14.7258 66.9355 14.7258C62.5057 14.7258 58.9032 18.3283 58.9032 22.7581V23.0097C58.9032 23.8745 59.0424 24.73 59.3155 25.5493L59.5338 26.2012C60.7506 29.8532 61.3999 33.6431 61.5284 37.4825H50.871V40.16H58.0746C53.7385 43.0409 50.871 47.9633 50.871 53.5484C50.871 62.4066 58.0772 69.6129 66.9355 69.6129C75.7937 69.6129 83 62.4066 83 53.5484C83 47.9633 80.1325 43.0409 75.7964 40.1613H83V37.4839ZM61.5806 22.7581C61.5806 19.8049 63.9823 17.4032 66.9355 17.4032C69.8887 17.4032 72.2903 19.8049 72.2903 22.7581V23.0097C72.2903 23.5867 72.1979 24.1557 72.0159 24.7032L71.7977 25.3552C71.0587 27.5707 70.5272 29.8358 70.1631 32.129H63.7079C63.3424 29.8358 62.8109 27.5707 62.0733 25.3552L61.8551 24.7032C61.673 24.157 61.5806 23.5867 61.5806 23.0097V22.7581ZM69.815 34.8064C69.7307 35.6967 69.6624 36.5883 69.6343 37.4839H64.238C64.2085 36.5883 64.1403 35.6967 64.0559 34.8064H69.815ZM80.3226 53.5484C80.3226 60.93 74.3171 66.9355 66.9355 66.9355C59.5538 66.9355 53.5484 60.93 53.5484 53.5484C53.5484 46.1667 59.5538 40.1613 66.9355 40.1613C74.3171 40.1613 80.3226 46.1667 80.3226 53.5484Z" fill="#EE414F"/>
<path d="M69.9944 43.2885L69.2314 45.8535C72.6089 46.8589 74.9677 50.0236 74.9677 53.5484C74.9677 57.9782 71.3653 61.5806 66.9355 61.5806C62.5057 61.5806 58.9032 57.9782 58.9032 53.5484C58.9032 50.0236 61.262 46.8589 64.6396 45.8535L63.8765 43.2885C59.3718 44.6286 56.2258 48.8468 56.2258 53.5484C56.2258 59.4534 61.0304 64.2581 66.9355 64.2581C72.8405 64.2581 77.6452 59.4534 77.6452 53.5484C77.6452 48.8468 74.4992 44.6286 69.9944 43.2885Z" fill="#EE414F"/>
</svg>
