<svg width="71" height="83" viewBox="0 0 71 83" fill="none" xmlns="http://www.w3.org/2000/svg">
<path d="M41.7597 9.68333C28.6905 9.68333 18.0958 20.2121 18.0958 33.2C18.0958 46.1879 28.6905 56.7167 41.7597 56.7167C54.829 56.7167 65.4237 46.1879 65.4237 33.2C65.4092 20.2181 54.8229 9.69786 41.7597 9.68333ZM34.7998 20.8745V13.6604C39.2976 12.0466 44.2218 12.0466 48.7197 13.6604V20.8745C48.7197 21.5497 49.2106 22.1264 49.8807 22.2385C53.646 22.8466 56.2022 26.3729 55.5903 30.1148C55.4857 30.7546 55.2903 31.3766 55.0102 31.9619L51.5037 28.4773V24.9H48.7197V27.6667H45.9357V30.4333H49.5354L53.3036 34.178L54.0845 33.402C51.6911 36.3588 47.3389 36.8278 44.3635 34.4493C43.8022 34.0006 43.315 33.4675 42.9193 32.8694C42.4418 32.233 41.5356 32.1016 40.8953 32.5761C40.7833 32.6591 40.6837 32.758 40.6002 32.8694C38.4832 36.0578 34.166 36.9369 30.9577 34.833C27.7493 32.7291 26.8647 28.4389 28.9817 25.2505C30.0463 23.6472 31.7339 22.5561 33.6402 22.2385C34.3098 22.1257 34.7999 21.5494 34.7998 20.8745ZM28.2156 48.97C29.4421 45.3545 33.3857 43.4118 37.0238 44.6307C38.4912 45.1223 39.7513 46.0866 40.6044 47.3709C41.0818 48.0072 41.988 48.1386 42.6283 47.6641C42.7404 47.5811 42.8399 47.4822 42.9235 47.3709C45.0457 44.1859 49.3642 43.3135 52.5691 45.4226C53.8299 46.2523 54.7845 47.4675 55.2886 48.8842L55.4737 48.8192C47.6956 55.614 36.0696 55.6783 28.2156 48.97ZM57.4253 46.8729V46.8798C55.0464 42.0964 49.216 40.135 44.4024 42.4991C43.4197 42.9817 42.5262 43.6262 41.7597 44.405C37.9939 40.5846 31.8247 40.5215 27.9804 44.2639C27.2069 45.0168 26.5654 45.8924 26.0817 46.8549C18.48 38.2822 19.3107 25.2087 27.937 17.6541C29.1801 16.5656 30.5493 15.6284 32.0158 14.8625V19.7817C26.8563 21.3021 23.9142 26.6911 25.4441 31.8184C26.9741 36.9457 32.3968 39.8696 37.5563 38.3491C39.151 37.8791 40.5981 37.0113 41.7597 35.8283C45.5181 39.6558 51.6873 39.7309 55.5388 35.9957C59.3903 32.2605 59.4658 26.13 55.7072 22.3024C54.5454 21.1193 53.0984 20.2515 51.5037 19.7817V14.8625C61.6822 20.177 65.5982 32.6852 60.2505 42.8003C59.476 44.2653 58.5276 45.6325 57.4253 46.8729Z" fill="#EE414F"/>
<path d="M69.3342 23.5639C66.3974 15.2789 59.8407 8.76307 51.5037 5.84458V1.38333C51.5037 0.619387 50.8805 0 50.1117 0H33.4078C32.639 0 32.0158 0.619387 32.0158 1.38333V5.84458C16.8207 11.1531 8.83309 27.698 14.1749 42.7984C15.0324 45.2225 16.2105 47.5227 17.6784 49.6381L0.407855 66.8053C0.146855 67.0647 6.696e-08 67.4164 6.696e-08 67.7833V78.85C-0.000173933 79.4094 0.338777 79.914 0.858862 80.1282C1.02782 80.1982 1.20895 80.2338 1.392 80.2333C1.76122 80.2333 2.11514 80.0874 2.37614 79.828L25.2186 57.1317C27.324 58.5632 29.6092 59.7144 32.0158 60.5554V81.6167C32.0158 82.3806 32.639 83 33.4078 83H50.1117C50.8805 83 51.5037 82.3806 51.5037 81.6167V60.5554C66.7064 55.2336 74.6894 38.6719 69.3342 23.5639ZM34.7998 2.76667H48.7197V5.01735C44.1528 3.86088 39.3667 3.86088 34.7998 5.01735V2.76667ZM2.78382 75.5106V68.356L19.3848 51.8584C20.4787 53.1516 21.6831 54.3486 22.9845 55.4357L2.78382 75.5106ZM48.7197 80.2333H34.7998V61.3827C39.3667 62.5391 44.1528 62.5391 48.7197 61.3827V80.2333ZM57.7514 54.1495C53.1508 57.6165 47.5337 59.4901 41.7599 59.4833C35.9774 59.4823 30.3567 57.5861 25.7687 54.0883L20.7435 49.0945C11.9287 37.5428 14.206 21.077 25.8302 12.317C37.4543 3.55707 54.0232 5.8202 62.8381 17.3721C71.6529 28.9239 69.3754 45.3896 57.7514 54.1495Z" fill="#EE414F"/>
</svg>
