<svg width="84" height="84" viewBox="0 0 84 84" fill="none" xmlns="http://www.w3.org/2000/svg">
<path d="M75.1251 52.8387L76.2612 51.6966C77.0982 50.8552 77.7181 49.8581 78.113 48.7742H81.3045V46.0645H78.6063C78.6063 46.0415 78.609 46.0198 78.609 45.9968C78.609 41.5515 75.0118 37.9355 70.5899 37.9355C68.5453 37.9355 66.6194 38.6983 65.1315 40.091C63.6436 38.6983 61.7163 37.9355 59.6731 37.9355C55.2511 37.9355 51.6539 41.5515 51.6539 45.9968C51.6539 46.4791 51.7025 46.9533 51.7847 47.4194H48.9584V50.129H52.7955C53.1311 50.6913 53.53 51.221 54.0031 51.6966L55.1392 52.8387H46.2629V66.3871H34.1332C31.904 66.3871 30.0899 64.5635 30.0899 62.3226V51.2346C31.2315 50.8254 32.1304 49.9217 32.5374 48.7742H44.0068L42.1752 42.3292C41.2008 38.9001 38.4338 36.3354 34.9553 35.6363L27.3944 34.1148V33.7585C29.8878 32.3034 31.745 29.8755 32.4566 26.9925C34.9432 26.5115 36.8287 24.3153 36.8287 21.6774V12.3602C36.8287 8.62355 34.4229 5.35974 30.9174 4.24742C28.9551 1.57839 25.858 0 22.5358 0C14.0665 0 7.17813 6.92458 7.17813 15.4384V21.6774C7.17813 24.3153 9.06363 26.5115 11.5502 26.9938C12.2618 29.8769 14.1191 32.3048 16.6124 33.7599V34.1162L9.0542 35.6363C5.5743 36.3354 2.80737 38.9001 1.83294 42.3292L0 48.7742H11.4694C11.8764 49.9217 12.7753 50.8254 13.9169 51.2346V66.3871C13.9169 71.6154 18.1488 75.871 23.3512 75.871H46.2629V78.5806H48.9584V84H81.3045V78.5806H84V52.8387H75.1251ZM28.7422 48.7742C27.9995 48.7742 27.3944 48.1672 27.3944 47.4194C27.3944 46.6715 27.9995 46.0645 28.7422 46.0645C29.4848 46.0645 30.0899 46.6715 30.0899 47.4194C30.0899 48.1672 29.4848 48.7742 28.7422 48.7742ZM32.7854 24.0105V19.3444C33.5873 19.8145 34.1332 20.6789 34.1332 21.6774C34.1332 22.6759 33.5873 23.5403 32.7854 24.0105ZM11.2214 24.0105C10.4195 23.5403 9.87363 22.6759 9.87363 21.6774C9.87363 20.6789 10.4195 19.8145 11.2214 19.3444V24.0105ZM9.87363 17.0114V15.437C9.87363 8.41897 15.5531 2.70968 22.5358 2.70968C25.1261 2.70968 27.5319 4.00355 28.9686 6.17129L29.257 6.60755L29.7624 6.7349C32.3366 7.38116 34.1332 9.69387 34.1332 12.3602V17.0114C33.3366 16.5453 32.4242 16.2581 31.4377 16.2581C28.2516 16.2581 25.0924 15.1999 22.5425 13.2774L20.529 11.76L18.5181 13.7814C16.9291 15.3788 14.8158 16.2581 12.5691 16.2581C11.5826 16.2581 10.6702 16.5453 9.87363 17.0114ZM13.9169 24.3871V18.877C16.3725 18.5803 18.6475 17.4828 20.4238 15.6972L20.7823 15.3368L20.9252 15.4452C23.5789 17.4449 26.7893 18.6521 30.0899 18.9122V24.3871C30.0899 28.8703 26.4631 32.5161 22.0034 32.5161C17.5437 32.5161 13.9169 28.8703 13.9169 24.3871ZM11.4667 46.0645H3.57424L4.42467 43.073C5.12146 40.6235 7.09726 38.7904 9.58252 38.2918L19.3079 36.3368V34.8695C20.1718 35.0944 21.0708 35.2258 22.0034 35.2258C22.936 35.2258 23.835 35.0944 24.6989 34.8695V36.3368L34.4256 38.2918C36.9109 38.7917 38.8867 40.6235 39.5835 43.073L40.4326 46.0645H32.5361C31.9781 44.4915 30.4956 43.3548 28.7408 43.3548C26.986 43.3548 25.5035 44.4915 24.9455 46.0645H19.0572C18.4992 44.4915 17.0167 43.3548 15.2619 43.3548C13.5072 43.3548 12.0246 44.4915 11.4667 46.0645ZM15.2646 48.7742C14.522 48.7742 13.9169 48.1672 13.9169 47.4194C13.9169 46.6715 14.522 46.0645 15.2646 46.0645C16.0073 46.0645 16.6124 46.6715 16.6124 47.4194C16.6124 48.1672 16.0073 48.7742 15.2646 48.7742ZM46.2643 73.1613H23.3512C19.6354 73.1613 16.6124 70.1224 16.6124 66.3871V51.2346C17.7539 50.8254 18.6529 49.9217 19.0599 48.7742H24.9482C25.3553 49.9217 26.2542 50.8254 27.3958 51.2346V62.3226C27.3958 66.0579 30.4188 69.0968 34.1345 69.0968H46.2643V73.1613ZM54.5624 47.4194C54.4371 46.9587 54.3495 46.4872 54.3495 45.9968C54.3495 43.0459 56.7377 40.6452 59.6731 40.6452C61.095 40.6452 62.4319 41.202 63.4373 42.2127L65.1315 43.9157L66.8256 42.2127C67.831 41.202 69.168 40.6452 70.5899 40.6452C73.5253 40.6452 75.9135 43.0459 75.9135 45.9968C75.9135 46.0198 75.9067 46.0415 75.9067 46.0645H65.6463L63.7837 49.8093L59.4911 41.179L57.421 47.4194H54.5624ZM65.1315 59.052L56.2552 50.129H59.3644L59.9898 48.2404L63.7837 55.8681L67.3121 48.7742H75.1224C74.904 49.1332 74.6574 49.476 74.3541 49.7808L65.1315 59.052ZM67.0372 60.9677H75.9135V65.0322H54.3495V60.9677H63.2257L65.1315 62.8835L67.0372 60.9677ZM78.609 81.2903H51.6539V78.5806H78.609V81.2903ZM81.3045 75.871H48.9584V55.5484H57.8347L60.5302 58.2581H51.6539V67.7419H78.609V58.2581H69.7327L72.4282 55.5484H81.3045V75.871Z" fill="#EE414F"/>
<path d="M66.4793 70.4516H63.7838V73.1613H66.4793V70.4516Z" fill="#EE414F"/>
<path d="M75.9135 70.4516H73.218V73.1613H75.9135V70.4516Z" fill="#EE414F"/>
<path d="M57.045 70.4516H54.3495V73.1613H57.045V70.4516Z" fill="#EE414F"/>
</svg>
