<svg width="83" height="83" viewBox="0 0 83 83" fill="none" xmlns="http://www.w3.org/2000/svg">
<path d="M26.7742 53.5484C12.0109 53.5484 0 41.5375 0 26.7742C0 12.0109 12.0109 1.52588e-05 26.7742 1.52588e-05C41.5375 1.52588e-05 53.5484 12.0109 53.5484 26.7742C53.5484 41.5375 41.5375 53.5484 26.7742 53.5484ZM26.7742 2.67743C13.4875 2.67743 2.67742 13.4875 2.67742 26.7742C2.67742 40.0609 13.4875 50.871 26.7742 50.871C40.0609 50.871 50.871 40.0609 50.871 26.7742C50.871 13.4875 40.0609 2.67743 26.7742 2.67743Z" fill="#EE414F"/>
<path d="M58.9032 83H53.5484V80.3226H58.9032V83Z" fill="#EE414F"/>
<path d="M48.4499 81.9861L43.5032 79.9363L44.5281 77.4629L49.4748 79.5127L48.4499 81.9861Z" fill="#EE414F"/>
<path d="M39.1862 77.0525L35.3998 73.2661L37.293 71.3729L41.0794 75.1593L39.1862 77.0525Z" fill="#EE414F"/>
<path d="M32.5103 68.944L30.4605 63.9973L32.9338 62.9725L34.9835 67.9191L32.5103 68.944Z" fill="#EE414F"/>
<path d="M32.1291 58.9032H29.4516V53.5484H32.1291V58.9032Z" fill="#EE414F"/>
<path d="M58.9032 32.129H53.5484V29.4516H58.9032V32.129Z" fill="#EE414F"/>
<path d="M67.9139 34.9898L62.9673 32.94L63.9922 30.4666L68.9388 32.5164L67.9139 34.9898Z" fill="#EE414F"/>
<path d="M75.1609 41.085L71.3745 37.2986L73.2677 35.4054L77.0541 39.1918L75.1609 41.085Z" fill="#EE414F"/>
<path d="M79.5059 49.4696L77.4562 44.523L79.9294 43.4981L81.9792 48.4448L79.5059 49.4696Z" fill="#EE414F"/>
<path d="M83 58.9032H80.3226V53.5484H83V58.9032Z" fill="#EE414F"/>
<path d="M79.9278 68.9377L77.4544 67.9127L79.5041 62.9661L81.9775 63.991L79.9278 68.9377Z" fill="#EE414F"/>
<path d="M73.2693 77.0516L71.3764 75.1581L75.1633 71.3723L77.0562 73.2657L73.2693 77.0516Z" fill="#EE414F"/>
<path d="M63.9939 81.9784L62.9699 79.5049L67.9169 77.4568L68.9409 79.9303L63.9939 81.9784Z" fill="#EE414F"/>
<path d="M58.9033 76.3065C58.9033 74.0922 57.1014 72.2903 54.8871 72.2903V69.6129C58.578 69.6129 61.5807 72.6156 61.5807 76.3065H58.9033Z" fill="#EE414F"/>
<path d="M58.9033 45.5161C58.9033 43.3019 57.1014 41.5 54.8871 41.5V38.8226C58.578 38.8226 61.5807 41.8253 61.5807 45.5161H58.9033Z" fill="#EE414F"/>
<path d="M37.4838 60.2419H34.8064C34.8064 56.5511 37.8091 53.5484 41.5 53.5484V56.2258C39.2857 56.2258 37.4838 58.0277 37.4838 60.2419Z" fill="#EE414F"/>
<path d="M72.2903 62.9194H69.6129C69.6129 59.2285 72.6156 56.2258 76.3064 56.2258V58.9032C74.0922 58.9032 72.2903 60.7051 72.2903 62.9194Z" fill="#EE414F"/>
<path d="M66.9355 54.8871C64.7213 54.8871 62.9194 53.0852 62.9194 50.871C62.9194 48.6567 64.7213 46.8548 66.9355 46.8548C69.1498 46.8548 70.9517 48.6567 70.9517 50.871C70.9517 53.0852 69.1498 54.8871 66.9355 54.8871ZM66.9355 49.5322C66.1966 49.5322 65.5968 50.1333 65.5968 50.871C65.5968 51.6086 66.1966 52.2097 66.9355 52.2097C67.6745 52.2097 68.2742 51.6086 68.2742 50.871C68.2742 50.1333 67.6745 49.5322 66.9355 49.5322Z" fill="#EE414F"/>
<path d="M46.8548 66.9355C44.6406 66.9355 42.8387 65.1336 42.8387 62.9194C42.8387 60.7051 44.6406 58.9032 46.8548 58.9032C49.069 58.9032 50.8709 60.7051 50.8709 62.9194C50.8709 65.1336 49.069 66.9355 46.8548 66.9355ZM46.8548 61.5807C46.1158 61.5807 45.5161 62.1817 45.5161 62.9194C45.5161 63.657 46.1158 64.2581 46.8548 64.2581C47.5938 64.2581 48.1935 63.657 48.1935 62.9194C48.1935 62.1817 47.5938 61.5807 46.8548 61.5807Z" fill="#EE414F"/>
<path d="M26.7742 48.1936C14.9641 48.1936 5.35481 38.5843 5.35481 26.7742C5.35481 14.9641 14.9641 5.35484 26.7742 5.35484C38.5843 5.35484 48.1935 14.9641 48.1935 26.7742C48.1935 38.5843 38.5843 48.1936 26.7742 48.1936ZM26.7742 8.03226C16.4393 8.03226 8.03223 16.4394 8.03223 26.7742C8.03223 37.109 16.4393 45.5161 26.7742 45.5161C37.109 45.5161 45.5161 37.109 45.5161 26.7742C45.5161 16.4394 37.109 8.03226 26.7742 8.03226Z" fill="#EE414F"/>
<path d="M33.4677 25.4355H37.4839V28.1129H33.4677V29.4516C33.4677 30.0929 33.3486 30.6993 33.1799 31.287L36.2402 34.3473L34.3473 36.2402L31.8599 33.7529C30.9068 34.8787 29.6109 35.7047 28.1129 36.0099V38.8226H25.4355V36.0099C23.9375 35.7047 22.6416 34.8787 21.6884 33.7529L19.2011 36.2402L17.3082 34.3473L20.3685 31.287C20.1998 30.6993 20.0806 30.0929 20.0806 29.4516V28.1129H16.0645V25.4355H20.0806V24.0968C20.0806 23.4555 20.1998 22.8491 20.3685 22.2614L17.3082 19.2011L19.2011 17.3082L21.6884 19.7955C22.6416 18.6696 23.9375 17.8437 25.4355 17.5384V14.7258H28.1129V17.5384C29.6109 17.8437 30.9068 18.6696 31.8599 19.7955L34.3473 17.3082L36.2402 19.2011L33.1799 22.2614C33.3486 22.8491 33.4677 23.4555 33.4677 24.0968V25.4355ZM30.7903 24.0968C30.7903 21.8825 28.9884 20.0806 26.7742 20.0806C24.56 20.0806 22.7581 21.8825 22.7581 24.0968V29.4516C22.7581 31.6658 24.56 33.4677 26.7742 33.4677C28.9884 33.4677 30.7903 31.6658 30.7903 29.4516V24.0968Z" fill="#EE414F"/>
<path d="M28.1129 28.1129H25.4355V25.4355H28.1129V28.1129Z" fill="#EE414F"/>
<path d="M41.5 33.4678H38.8226V30.7903H41.5V33.4678Z" fill="#EE414F"/>
<path d="M22.758 41.5H20.0806V38.8226H22.758V41.5Z" fill="#EE414F"/>
<path d="M13.3871 25.4355H10.7097V22.7581H13.3871V25.4355Z" fill="#EE414F"/>
<path d="M33.4677 14.7258H30.7903V12.0484H33.4677V14.7258Z" fill="#EE414F"/>
<path d="M49.5322 74.9677H46.8548V72.2903H49.5322V74.9677Z" fill="#EE414F"/>
<path d="M64.258 66.9355H61.5806V64.2581H64.258V66.9355Z" fill="#EE414F"/>
<path d="M68.2741 41.5H65.5967V38.8226H68.2741V41.5Z" fill="#EE414F"/>
<path d="M53.5483 53.5484H50.8709V50.871H53.5483V53.5484Z" fill="#EE414F"/>
</svg>
