<svg width="68" height="68" viewBox="0 0 68 68" fill="none" xmlns="http://www.w3.org/2000/svg">
<path d="M66.9032 6.62342H68V0H66.9032C61.5937 0 58.2606 3.21245 55.93 6.45232C53.4305 2.98871 50.1336 0 44.9666 0C39.6572 0 36.3252 3.21135 33.9945 6.44903C31.4939 2.98652 28.1992 0 23.0334 0C17.7228 0 14.3897 3.21245 12.059 6.45123C9.55948 2.98761 6.26368 0 1.09677 0H0V6.62342H1.09677C3.97581 6.62342 5.72406 8.55374 8.22032 12.614C5.78219 16.5854 4.00761 18.6024 1.09677 18.6024H0V25.2258H1.09677C6.40735 25.2258 9.73936 22.0134 12.07 18.7746C14.5706 22.2382 17.8665 25.2258 23.0334 25.2258C28.3439 25.2258 31.6759 22.0134 34.0066 18.7746C36.5072 22.2382 39.803 25.2258 44.9699 25.2258C50.2794 25.2258 53.6114 22.0145 55.941 18.7757C58.4416 22.2382 61.7363 25.2258 66.9032 25.2258H68V18.6024H66.9032C64.0242 18.6024 62.277 16.6732 59.7808 12.6129C62.2178 8.64148 63.9935 6.62342 66.9032 6.62342ZM2.19355 22.9741V20.7203C5.48058 20.2563 7.57761 17.7074 9.4849 14.7242C9.89071 15.4119 10.313 16.116 10.7583 16.8223C8.79065 19.7288 6.22639 22.5398 2.19355 22.9741ZM23.0334 23.0323C16.9276 23.0323 13.9773 18.0288 11.1246 13.1887C8.26639 8.34206 6.02787 5.02542 2.19355 4.50116V2.24948C7.56555 2.81103 10.3283 7.49645 13.0045 12.0371C16.1237 17.3279 18.507 20.7959 23.0334 20.7959C26.9642 20.7959 29.3113 18.0277 31.4226 14.7264C31.8284 15.413 32.2506 16.1171 32.6948 16.8223C30.5539 19.9843 27.7078 23.0323 23.0334 23.0323ZM15.9087 12.6118C17.2885 10.3645 18.4609 8.76432 19.7419 7.78051V17.4705C18.4795 16.4999 17.3115 14.8931 15.9087 12.6118ZM21.9355 18.496V6.73419C22.2854 6.664 22.6484 6.62342 23.0334 6.62342C23.4172 6.62342 23.7803 6.66071 24.129 6.72981V18.4927C23.7803 18.5629 23.4172 18.6024 23.0334 18.6024C22.6484 18.6024 22.2843 18.5651 21.9355 18.496ZM26.3226 17.4464V7.75419C27.5861 8.72484 28.7541 10.3316 30.1569 12.614C28.7772 14.8624 27.6036 16.4626 26.3226 17.4464ZM44.9699 23.0323C38.8642 23.0323 35.9139 18.0288 33.0612 13.1887C29.9419 7.89787 27.5586 4.42987 23.0334 4.42987C19.1014 4.42987 16.7543 7.19813 14.643 10.4994C14.2372 9.81284 13.815 9.10871 13.3708 8.40348C15.5117 5.24148 18.3578 2.19355 23.0334 2.19355C29.138 2.19355 32.0883 7.19703 34.941 12.0371C38.0603 17.3279 40.4436 20.7959 44.9699 20.7959C48.9008 20.7959 51.2468 18.0288 53.357 14.7275C53.7628 15.4141 54.185 16.1182 54.6292 16.8234C52.4894 19.9843 49.6433 23.0323 44.9699 23.0323ZM37.8442 12.6096C39.2239 10.3623 40.3964 8.76323 41.6774 7.77942V17.4694C40.415 16.4977 39.247 14.8909 37.8442 12.6096ZM43.871 18.496V6.7331C44.2197 6.6629 44.5817 6.62342 44.9666 6.62342C45.3516 6.62342 45.7157 6.66071 46.0645 6.72981V18.4927C45.7157 18.5629 45.3538 18.6024 44.9699 18.6024C44.5839 18.6024 44.2208 18.5651 43.871 18.496ZM48.2581 17.4464V7.75529C49.5205 8.72703 50.6885 10.3338 52.0913 12.6151C50.7115 14.8635 49.5391 16.4626 48.2581 17.4464ZM65.8065 20.7246V22.9763C60.4345 22.4148 57.6717 17.7294 54.9956 13.1887C51.8763 7.89787 49.493 4.42987 44.9666 4.42987C41.0358 4.42987 38.6898 7.19703 36.5796 10.4972C36.1738 9.81064 35.7516 9.10651 35.3074 8.40129C37.4472 5.24039 40.2922 2.19355 44.9666 2.19355C51.0724 2.19355 54.0227 7.19703 56.8754 12.0371C59.7325 16.8837 61.9721 20.2004 65.8065 20.7246ZM58.5162 10.5027C58.1104 9.81503 57.6881 9.1109 57.2417 8.40458C59.2094 5.49703 61.7747 2.6871 65.8065 2.25168V4.50555C62.5194 4.96948 60.4224 7.51948 58.5162 10.5027Z" fill="#EE414F"/>
<path d="M55.409 63.8948C54.0841 61.687 51.8675 60.1778 49.3285 59.7544L40.5806 58.2968V56.6912C42.0733 55.3509 43.1558 53.5697 43.6165 51.5484H43.8709C46.2904 51.5484 48.258 49.5808 48.258 47.1613V39.4839C48.258 31.6222 41.8617 25.2258 34 25.2258C26.1383 25.2258 19.7419 31.6222 19.7419 39.4839V47.1613C19.7419 49.5808 21.7095 51.5484 24.129 51.5484H24.3835C24.8441 53.5697 25.9277 55.3509 27.4193 56.6912V58.2968L18.6715 59.7544C16.1324 60.1778 13.9158 61.687 12.5898 63.8937L10.1276 68H57.8724L55.409 63.8948ZM43.8709 49.3548V44.9677C45.0807 44.9677 46.0645 45.9516 46.0645 47.1613C46.0645 48.371 45.0807 49.3548 43.8709 49.3548ZM24.129 49.3548C22.9193 49.3548 21.9355 48.371 21.9355 47.1613C21.9355 45.9516 22.9193 44.9677 24.129 44.9677V49.3548ZM24.129 40.5807V42.7742C23.3262 42.7742 22.5837 43.0067 21.9355 43.384V39.4839C21.9355 32.8319 27.348 27.4194 34 27.4194C40.6519 27.4194 46.0645 32.8319 46.0645 39.4839V43.384C45.4163 43.0067 44.6738 42.7742 43.8709 42.7742H43.8008C43.6439 41.5842 43.1273 40.4797 42.2653 39.6166L38.3871 35.7395L37.6117 36.5149C34.9904 39.1373 31.5048 40.5807 27.7955 40.5807H24.129ZM26.3226 49.3548V42.7742H27.7955C31.722 42.7742 35.4335 41.3769 38.3608 38.8159L40.7133 41.1685C41.3352 41.7893 41.6774 42.6152 41.6774 43.4948V49.3548C41.6774 53.5873 38.2335 57.0323 34 57.0323C29.7664 57.0323 26.3226 53.5873 26.3226 49.3548ZM38.3871 58.1839V59.013C38.1491 59.5351 37.0797 61.4194 34 61.4194C30.9455 61.4194 29.8629 59.5526 29.6129 59.0108V58.1839C30.9367 58.8452 32.4228 59.2258 34 59.2258C35.5771 59.2258 37.0633 58.8452 38.3871 58.1839ZM14.0014 65.8065L14.4708 65.0234C15.4645 63.3672 17.1272 62.2354 19.0323 61.9184L27.8975 60.4399C28.606 61.6288 30.3335 63.6129 34 63.6129C37.6665 63.6129 39.3939 61.6288 40.1024 60.4399L48.9677 61.9184C50.8717 62.2354 52.5344 63.3672 53.528 65.0234L53.9986 65.8065H14.0014Z" fill="#EE414F"/>
<path d="M12.0646 30.7097C10.2505 30.7097 8.77423 32.1859 8.77423 34C8.77423 35.8141 10.2505 37.2903 12.0646 37.2903C13.8786 37.2903 15.3549 35.8141 15.3549 34C15.3549 32.1859 13.8786 30.7097 12.0646 30.7097ZM12.0646 35.0968C11.4602 35.0968 10.9678 34.6043 10.9678 34C10.9678 33.3957 11.4602 32.9032 12.0646 32.9032C12.6689 32.9032 13.1613 33.3957 13.1613 34C13.1613 34.6043 12.6689 35.0968 12.0646 35.0968Z" fill="#EE414F"/>
<path d="M55.9355 30.7097C54.1214 30.7097 52.6452 32.1859 52.6452 34C52.6452 35.8141 54.1214 37.2903 55.9355 37.2903C57.7496 37.2903 59.2258 35.8141 59.2258 34C59.2258 32.1859 57.7496 30.7097 55.9355 30.7097ZM55.9355 35.0968C55.3312 35.0968 54.8387 34.6043 54.8387 34C54.8387 33.3957 55.3312 32.9032 55.9355 32.9032C56.5398 32.9032 57.0323 33.3957 57.0323 34C57.0323 34.6043 56.5398 35.0968 55.9355 35.0968Z" fill="#EE414F"/>
<path d="M57.0323 41.6774H54.8388V43.871H57.0323V41.6774Z" fill="#EE414F"/>
<path d="M57.0323 48.2581H54.8388V50.4516H57.0323V48.2581Z" fill="#EE414F"/>
<path d="M57.0323 54.8387H54.8388V57.0322H57.0323V54.8387Z" fill="#EE414F"/>
<path d="M13.1613 41.6774H10.9678V43.871H13.1613V41.6774Z" fill="#EE414F"/>
<path d="M13.1613 48.2581H10.9678V50.4516H13.1613V48.2581Z" fill="#EE414F"/>
<path d="M13.1613 54.8387H10.9678V57.0322H13.1613V54.8387Z" fill="#EE414F"/>
</svg>
