<svg width="80" height="80" viewBox="0 0 80 80" fill="none" xmlns="http://www.w3.org/2000/svg">
<path d="M61.9355 21.9355C54.8206 21.9355 49.0323 16.1471 49.0323 9.03226V0H30.9677V9.03226C30.9677 16.1471 25.1794 21.9355 18.0645 21.9355C8.10323 21.9355 0 30.0387 0 40C0 62.0568 17.9432 80 40 80C62.0568 80 80 62.0568 80 40C80 30.0387 71.8968 21.9355 61.9355 21.9355ZM40 77.4194C19.3677 77.4194 2.58065 60.6323 2.58065 40C2.58065 31.4619 9.52645 24.5161 18.0645 24.5161C26.6026 24.5161 33.5484 17.5703 33.5484 9.03226V2.58065H36.129V5.16129H38.7097V2.58065H41.2903V16.8826C41.2903 19.2039 40.8271 21.4632 39.9135 23.5948L39.0065 25.711C37.9535 28.1665 37.4194 30.7677 37.4194 33.44C37.4194 35.8645 38.0271 38.2206 39.1768 40.329C38.2516 40.5987 37.3948 41.0439 36.6335 41.6555L36.4955 41.3084C35.3961 38.5613 34.8387 35.671 34.8387 32.7148C34.8387 30.0826 35.4606 27.4465 36.6387 25.0929C37.9923 22.3832 38.7097 19.3471 38.7097 16.3174V7.74194H36.129V16.3174C36.129 18.9497 35.5071 21.5858 34.329 23.9394C32.9755 26.649 32.2581 29.6852 32.2581 32.7148C32.2581 36 32.8761 39.2129 34.0981 42.2645L34.4129 43.0516C32.9639 41.1484 30.7252 40 28.2671 40C27.3368 40 26.4219 40.1665 25.5471 40.4929L17.28 43.5935L15.7665 41.3239C15.2142 40.4955 14.2903 40 13.2942 40C11.6555 40 10.3226 41.3329 10.3226 42.9716V47.7419C10.3226 49.8761 12.0594 51.6129 14.1935 51.6129V54.1936C14.1935 55.6168 15.351 56.7742 16.7742 56.7742H18.7174C21.32 60.1058 24.5019 62.8606 28.1871 64.9665L29.8813 65.9342C32.0052 67.4697 34.6039 68.3871 37.4194 68.3871C42.7161 68.3871 47.92 66.9458 52.4632 64.2206L58.6903 60.4839C59.3342 60.5832 59.9871 60.6452 60.6452 60.6452C67.76 60.6452 73.5484 54.8568 73.5484 47.7419C73.5484 40.6271 67.76 34.8387 60.6452 34.8387C57.7703 34.8387 54.9871 35.8039 52.7226 37.5716C52.3535 37.4697 51.9832 37.4194 51.6129 37.4194C49.3974 37.4194 47.4465 39.1071 46.2606 41.9587C45.1148 40.9097 43.6477 40.2374 42.0284 40.0697L41.991 40.0142C40.6877 38.0619 40 35.7884 40 33.44C40 31.1187 40.4632 28.8594 41.3768 26.7277L42.2839 24.6116C43.3368 22.1561 43.871 19.5548 43.871 16.8826V2.58065H46.4516V9.03226C46.4516 17.5703 53.3974 24.5161 61.9355 24.5161C70.4735 24.5161 77.4194 31.4619 77.4194 40C77.4194 60.6323 60.6323 77.4194 40 77.4194ZM50.6619 49.4284C49.5574 48.6929 48.7987 47.5187 48.5794 46.2077C48.4877 45.6529 48.3174 45.1329 48.1148 44.6323L48.1935 44.209C48.8774 41.6916 50.2516 40 51.6129 40C51.8697 40 52.1329 40.0671 52.4181 40.2026L53.1884 40.5703L53.8297 40.0052C55.72 38.3381 58.1406 37.4194 60.6452 37.4194C66.3368 37.4194 70.9677 42.0503 70.9677 47.7419C70.9677 53.4335 66.3368 58.0645 60.6452 58.0645C58.1406 58.0645 55.72 57.1458 53.8297 55.4774L52.1213 57.4129C53.0929 58.2697 54.1819 58.9587 55.3394 59.4852L51.1355 62.0077C46.9923 64.4916 42.249 65.8065 37.4194 65.8065C31.7277 65.8065 27.0968 61.1755 27.0968 55.4839C27.0968 54.3729 27.5742 53.3148 28.4077 52.5806L26.7019 50.6452C26.3716 50.9368 26.0774 51.2606 25.8168 51.6064C24.5226 50.0168 22.5742 49.0323 20.4361 49.0323H14.1935C13.4813 49.0323 12.9032 48.4542 12.9032 47.7419V42.9716C12.9032 42.6245 13.4258 42.4645 13.6194 42.7548L16.2697 46.729L26.4542 42.9097C27.0361 42.6916 27.6477 42.5806 28.2671 42.5806C30.2361 42.5806 32.0065 43.6761 32.8877 45.4374C34.3948 48.4503 37.4245 50.3226 40.7935 50.3226H42.5806V47.7419H40.7935C38.9845 47.7419 37.3161 46.9768 36.1484 45.6761L37.8232 44.0013C38.7394 43.0852 39.9561 42.5806 41.2516 42.5806C43.631 42.5806 45.6426 44.2839 46.0335 46.6323C46.3703 48.6439 47.5342 50.4452 49.231 51.5755L50.8981 52.6865L52.329 50.5394L50.6619 49.4284ZM25.2697 59.7858C23.4606 58.2916 21.8129 56.6116 20.3871 54.7097L20 54.1936H16.7742V51.6129H20.4361C22.32 51.6129 23.9858 52.8142 24.5832 54.6013H24.5845C24.5445 54.8929 24.5161 55.1858 24.5161 55.4839C24.5161 56.9935 24.791 58.4374 25.2697 59.7858Z" fill="#EE414F"/>
<path d="M21.9356 64.5162H19.3549V67.0968H21.9356V64.5162Z" fill="#EE414F"/>
<path d="M11.6129 32.2581H9.03231V34.8387H11.6129V32.2581Z" fill="#EE414F"/>
<path d="M32.258 28.3871H29.6774V30.9677H32.258V28.3871Z" fill="#EE414F"/>
<path d="M56.7743 34.8387H54.1936V37.4193H56.7743V34.8387Z" fill="#EE414F"/>
<path d="M64.516 60.6452H61.9354V63.2258H64.516V60.6452Z" fill="#EE414F"/>
<path d="M41.2903 72.2581H38.7097V74.8387H41.2903V72.2581Z" fill="#EE414F"/>
<path d="M72.258 32.2581H69.6774V34.8387H72.258V32.2581Z" fill="#EE414F"/>
</svg>
