<svg width="20" height="16" viewBox="0 0 20 16" fill="none" xmlns="http://www.w3.org/2000/svg">
<path fill-rule="evenodd" clip-rule="evenodd" d="M2.72733 1.77778C2.22941 1.77778 1.81825 2.17981 1.81825 2.66667V13.3333C1.81825 13.8202 2.22941 14.2222 2.72733 14.2222H17.2727C17.7706 14.2222 18.1818 13.8202 18.1818 13.3333V2.66667C18.1818 2.17981 17.7706 1.77778 17.2727 1.77778H2.72733ZM7.80839e-05 2.66667C7.80839e-05 1.19797 1.22526 0 2.72733 0H17.2727C18.7747 0 19.9999 1.19797 19.9999 2.66667V13.3333C19.9999 14.802 18.7747 16 17.2727 16H2.72733C1.22526 16 7.80839e-05 14.802 7.80839e-05 13.3333V2.66667Z" fill="#2E2E2E"/>
<path fill-rule="evenodd" clip-rule="evenodd" d="M0.164411 2.15692C0.452331 1.75475 1.01917 1.65694 1.43049 1.93846L10 7.80386L18.5695 1.93846C18.9808 1.65694 19.5477 1.75475 19.8356 2.15692C20.1235 2.5591 20.0235 3.11335 19.6122 3.39487L10.5213 9.61709C10.2083 9.83134 9.79169 9.83134 9.47867 9.61709L0.387837 3.39487C-0.0234778 3.11335 -0.123509 2.5591 0.164411 2.15692Z" fill="#2E2E2E"/>
</svg>
