<svg width="22" height="22" viewBox="0 0 22 22" fill="none" xmlns="http://www.w3.org/2000/svg">
<path fill-rule="evenodd" clip-rule="evenodd" d="M12.1852 1.18511C12.5432 0.827131 13.1236 0.827131 13.4816 1.18511L17.1482 4.85178C17.5062 5.20976 17.5062 5.79016 17.1482 6.14814L7.06489 16.2315C6.89298 16.4034 6.65982 16.5 6.41671 16.5H2.75004C2.24378 16.5 1.83337 16.0896 1.83337 15.5833V11.9166C1.83337 11.6735 1.92995 11.4404 2.10186 11.2684L12.1852 1.18511ZM3.66671 12.2963V14.6666H6.03701L15.2037 5.49996L12.8334 3.12965L3.66671 12.2963Z" fill="#2E2E2E"/>
<path fill-rule="evenodd" clip-rule="evenodd" d="M1.83337 20.1667C1.83337 19.6604 2.24378 19.25 2.75004 19.25H19.25C19.7563 19.25 20.1667 19.6604 20.1667 20.1667C20.1667 20.6729 19.7563 21.0833 19.25 21.0833H2.75004C2.24378 21.0833 1.83337 20.6729 1.83337 20.1667Z" fill="#2E2E2E"/>
</svg>
