<svg width="17" height="17" viewBox="0 0 17 17" fill="none" xmlns="http://www.w3.org/2000/svg">
<path d="M15.9995 12.2304L14.9998 12.2055C14.9996 12.2138 14.9995 12.2221 14.9995 12.2304H15.9995ZM15.9995 14.4885H14.9995L14.9995 14.4926L15.9995 14.4885ZM14.3554 15.9939L14.2476 16.9881C14.2536 16.9887 14.2596 16.9893 14.2656 16.9898L14.3554 15.9939ZM7.84668 13.6831L8.39004 12.8435L8.38224 12.8386L7.84668 13.6831ZM3.3215 9.16689L4.16507 8.62979L4.16029 8.62243L3.3215 9.16689ZM1.00612 2.64096L0.0101959 2.73114C0.010668 2.73635 0.011181 2.74156 0.0117349 2.74677L1.00612 2.64096ZM2.50697 1.00007V7.25389e-05L2.50603 7.34329e-05L2.50697 1.00007ZM4.76956 1.00007V2.00012L4.77938 2.00002L4.76956 1.00007ZM6.27795 2.29472L7.26937 2.1637L7.26807 2.1545L6.27795 2.29472ZM6.80589 4.40981L5.86922 4.76003L5.87007 4.76228L6.80589 4.40981ZM6.4665 5.99801L7.17292 6.70583L7.17685 6.70186L6.4665 5.99801ZM5.50867 6.95394L4.80227 6.24614C4.48315 6.56462 4.41661 7.05725 4.6398 7.44898L5.50867 6.95394ZM10.0338 11.4702L9.54029 12.3399C9.93121 12.5617 10.4221 12.4955 10.7403 12.178L10.0338 11.4702ZM10.9917 10.5142L10.2892 9.80246L10.2853 9.80641L10.9917 10.5142ZM12.583 10.1755L12.2318 11.1118L12.234 11.1126L12.583 10.1755ZM14.7023 10.7024L14.8417 9.71212L14.8328 9.71095L14.7023 10.7024ZM14.9995 12.2304V14.4885H16.9995V12.2304H14.9995ZM14.9995 14.4926C14.9998 14.5626 14.9854 14.6321 14.9573 14.6964L16.7892 15.499C16.9293 15.1792 17.0009 14.8336 16.9995 14.4844L14.9995 14.4926ZM14.9573 14.6964C14.9291 14.7607 14.8877 14.8187 14.8356 14.8663L16.1862 16.3414C16.4436 16.1057 16.6491 15.8188 16.7892 15.499L14.9573 14.6964ZM14.8356 14.8663C14.7835 14.914 14.7219 14.9505 14.6546 14.9732L15.2942 16.8681C15.6249 16.7565 15.9287 16.5772 16.1862 16.3414L14.8356 14.8663ZM14.6546 14.9732C14.5873 14.9959 14.516 15.0043 14.4452 14.9979L14.2656 16.9898C14.6131 17.0212 14.9635 16.9798 15.2942 16.8681L14.6546 14.9732ZM14.4632 14.9997C12.2976 14.7649 10.2175 14.0263 8.39002 12.8436L7.30334 14.5226C9.39317 15.8752 11.7716 16.7196 14.2476 16.9881L14.4632 14.9997ZM8.38224 12.8386C6.68384 11.7615 5.24406 10.3245 4.16503 8.62981L2.47797 9.70397C3.71483 11.6466 5.36498 13.2934 7.31111 14.5276L8.38224 12.8386ZM4.16029 8.62243C2.97128 6.79065 2.23141 4.70524 2.00051 2.53516L0.0117349 2.74677C0.275948 5.22988 1.12251 7.61583 2.48272 9.71135L4.16029 8.62243ZM2.00205 2.55078C1.99575 2.48119 2.00403 2.41103 2.0264 2.34473L0.131402 1.70521C0.0200942 2.03504 -0.0211966 2.38444 0.0101959 2.73114L2.00205 2.55078ZM2.0264 2.34473C2.04878 2.27842 2.08479 2.21736 2.13225 2.16547L0.656463 0.815631C0.421562 1.07245 0.242709 1.37539 0.131402 1.70521L2.0264 2.34473ZM2.13225 2.16547C2.17972 2.11357 2.23761 2.07198 2.30231 2.04346L1.49556 0.213391C1.17714 0.353757 0.891359 0.558818 0.656463 0.815631L2.13225 2.16547ZM2.30231 2.04346C2.36701 2.01494 2.43704 2.00014 2.50791 2.00007L2.50603 7.34329e-05C2.15808 0.000400424 1.81396 0.0730271 1.49556 0.213391L2.30231 2.04346ZM2.50697 2.00007H4.76956V7.29561e-05H2.50697V2.00007ZM4.77938 2.00002C4.90331 1.99881 5.02317 2.04263 5.11664 2.12285L6.41923 0.605205C5.95766 0.20904 5.36784 -0.00585186 4.75974 0.000121236L4.77938 2.00002ZM5.11664 2.12285C5.21006 2.20304 5.27071 2.31403 5.28783 2.43494L7.26807 2.1545C7.18274 1.55198 6.88085 1.00141 6.41923 0.605205L5.11664 2.12285ZM5.28657 2.42573C5.39197 3.22329 5.58743 4.00637 5.86922 4.76003L7.74256 4.0596C7.51368 3.44744 7.35493 2.81144 7.26933 2.16371L5.28657 2.42573ZM5.87007 4.76228C5.90403 4.85247 5.91137 4.95039 5.89125 5.04452L7.84709 5.46248C7.94728 4.99364 7.91069 4.50597 7.74171 4.05734L5.87007 4.76228ZM5.89125 5.04452C5.87113 5.13867 5.82434 5.22534 5.75615 5.29417L7.17685 6.70186C7.51421 6.36138 7.74691 5.9313 7.84709 5.46248L5.89125 5.04452ZM5.76009 5.2902L4.80227 6.24614L6.21508 7.66175L7.1729 6.70582L5.76009 5.2902ZM4.6398 7.44898C5.80264 9.48996 7.49575 11.1796 9.54029 12.3399L10.5274 10.6004C8.79562 9.61767 7.36198 8.18677 6.37754 6.45891L4.6398 7.44898ZM10.7403 12.178L11.6981 11.222L10.2853 9.80641L9.32744 10.7623L10.7403 12.178ZM11.6941 11.226C11.7631 11.1579 11.8504 11.1107 11.9458 11.0904L11.5295 9.13426C11.0608 9.23402 10.6304 9.46582 10.2892 9.80247L11.6941 11.226ZM11.9458 11.0904C12.0413 11.0701 12.1405 11.0776 12.2318 11.1118L12.9343 9.23922C12.4856 9.07091 11.9981 9.03451 11.5295 9.13426L11.9458 11.0904ZM12.234 11.1126C12.9889 11.3937 13.7731 11.5887 14.5718 11.6938L14.8328 9.71095C14.1834 9.62546 13.5457 9.46693 12.932 9.23838L12.234 11.1126ZM14.5629 11.6926C14.6869 11.7101 14.7997 11.7724 14.8801 11.8671L16.4048 10.5727C16.0068 10.1039 15.4505 9.79787 14.8417 9.71216L14.5629 11.6926ZM14.8801 11.8671C14.9605 11.9617 15.0029 12.0822 14.9998 12.2055L16.9992 12.2552C17.0145 11.6403 16.8028 11.0415 16.4048 10.5727L14.8801 11.8671Z" fill="#2E2E2E"/>
</svg>
