<svg width="17" height="19" viewBox="0 0 17 19" fill="none" xmlns="http://www.w3.org/2000/svg">
<path d="M14.45 19H2.55C1.105 19 0 17.8773 0 16.4091V10.3636C0 8.89545 1.105 7.77273 2.55 7.77273H14.45C15.895 7.77273 17 8.89545 17 10.3636V16.4091C17 17.8773 15.895 19 14.45 19ZM2.55 9.5C2.04 9.5 1.7 9.84545 1.7 10.3636V16.4091C1.7 16.9273 2.04 17.2727 2.55 17.2727H14.45C14.96 17.2727 15.3 16.9273 15.3 16.4091V10.3636C15.3 9.84545 14.96 9.5 14.45 9.5H2.55Z" fill="black"/>
<path d="M4.25 9.5C3.74 9.5 3.4 9.15455 3.4 8.63636V5.18182C3.4 3.8 3.91 2.50455 4.93 1.55455C5.865 0.518182 7.14 0 8.5 0C10.88 0 13.005 1.72727 13.515 4.14545C13.6 4.57727 13.26 5.09545 12.835 5.18182C12.41 5.26818 11.9 5.00909 11.815 4.49091C11.475 2.85 10.115 1.72727 8.5 1.72727C7.565 1.72727 6.715 2.07273 6.12 2.76364C5.44 3.36818 5.1 4.23182 5.1 5.18182V8.63636C5.1 9.15455 4.76 9.5 4.25 9.5Z" fill="black"/>
</svg>
