<svg width="14" height="16" viewBox="0 0 14 16" fill="none" xmlns="http://www.w3.org/2000/svg">
<path fill-rule="evenodd" clip-rule="evenodd" d="M1.13903 10.7716C1.86834 10.0214 2.85749 9.6 3.88889 9.6H10.1111C11.1425 9.6 12.1317 10.0214 12.861 10.7716C13.5903 11.5217 14 12.5391 14 13.6V15.2C14 15.6418 13.6518 16 13.2222 16C12.7927 16 12.4444 15.6418 12.4444 15.2V13.6C12.4444 12.9635 12.1986 12.353 11.761 11.9029C11.3234 11.4529 10.7299 11.2 10.1111 11.2H3.88889C3.27005 11.2 2.67656 11.4529 2.23897 11.9029C1.80139 12.353 1.55556 12.9635 1.55556 13.6V15.2C1.55556 15.6418 1.20733 16 0.777778 16C0.348223 16 0 15.6418 0 15.2V13.6C0 12.5391 0.409721 11.5217 1.13903 10.7716Z" fill="#2E2E2E"/>
<path fill-rule="evenodd" clip-rule="evenodd" d="M7 1.6C5.71134 1.6 4.66667 2.67452 4.66667 4C4.66667 5.32548 5.71134 6.4 7 6.4C8.28866 6.4 9.33333 5.32548 9.33333 4C9.33333 2.67452 8.28866 1.6 7 1.6ZM3.11111 4C3.11111 1.79086 4.85223 0 7 0C9.14777 0 10.8889 1.79086 10.8889 4C10.8889 6.20914 9.14777 8 7 8C4.85223 8 3.11111 6.20914 3.11111 4Z" fill="#2E2E2E"/>
</svg>
