<svg width="18" height="16" viewBox="0 0 18 16" fill="none" xmlns="http://www.w3.org/2000/svg">
<path fill-rule="evenodd" clip-rule="evenodd" d="M10.4332 0.0987061C10.7797 0.265226 11 0.615604 11 1.00001V15C11 15.3844 10.7797 15.7348 10.4332 15.9013C10.0867 16.0678 9.67548 16.021 9.37531 15.7809L4.64922 12H1C0.447715 12 0 11.5523 0 11V5.00001C0 4.44772 0.447715 4.00001 1 4.00001H4.64922L9.37531 0.219141C9.67548 -0.0209954 10.0867 -0.0678138 10.4332 0.0987061ZM9 3.08063L5.62469 5.78088C5.44738 5.92273 5.22707 6.00001 5 6.00001H2V10H5C5.22707 10 5.44738 10.0773 5.62469 10.2191L9 12.9194V3.08063Z" fill="#2E2E2E"/>
<path fill-rule="evenodd" clip-rule="evenodd" d="M13.833 3.7528C14.2236 3.36233 14.8567 3.36243 15.2472 3.75301C16.372 4.87818 17.0039 6.40402 17.0039 7.99501C17.0039 9.58599 16.372 11.1118 15.2472 12.237C14.8567 12.6276 14.2236 12.6277 13.833 12.2372C13.4424 11.8468 13.4423 11.2136 13.8328 10.823C14.5827 10.0729 15.0039 9.05567 15.0039 7.99501C15.0039 6.93435 14.5827 5.91712 13.8328 5.16701C13.4423 4.77643 13.4424 4.14326 13.833 3.7528Z" fill="#2E2E2E"/>
</svg>
