<svg width="16" height="13" viewBox="0 0 16 13" fill="none" xmlns="http://www.w3.org/2000/svg">
<path d="M14.0468 0.03125H1.95655C0.877302 0.03125 0 0.963383 0 2.11008V10.8897C0 12.0364 0.877302 12.9686 1.95655 12.9686H14.0435C15.1227 12.9686 16 12.0364 16 10.8897V2.1136C16.0033 0.966901 15.126 0.03125 14.0468 0.03125ZM15.1095 10.8897C15.1095 11.5123 14.6327 12.0188 14.0468 12.0188H1.95655C1.37058 12.0188 0.893855 11.5123 0.893855 10.8897V2.1136C0.893855 1.49101 1.37058 0.984488 1.95655 0.984488H14.0435C14.6294 0.984488 15.1061 1.49101 15.1061 2.1136V10.8897H15.1095Z" fill="white"/>
<path d="M10.0906 6.3909L14.0037 2.66237C14.1858 2.48649 14.2024 2.18751 14.0368 1.99053C13.8713 1.79707 13.5899 1.77948 13.4045 1.95535L8.00829 7.10143L6.95552 6.10247C6.95221 6.09895 6.9489 6.09543 6.9489 6.09191C6.92573 6.06729 6.90255 6.04619 6.87607 6.02508L2.59219 1.95184C2.4068 1.77596 2.1254 1.79355 1.95987 1.99053C1.79434 2.18751 1.81089 2.48649 1.99629 2.66237L5.95573 6.42256L2.01284 10.3446C1.83407 10.5239 1.82414 10.8229 1.99298 11.0164C2.08236 11.1149 2.20154 11.1676 2.32072 11.1676C2.42997 11.1676 2.53922 11.1254 2.62529 11.041L6.62778 7.06274L7.71365 8.09336C7.79972 8.17427 7.90566 8.21296 8.0116 8.21296C8.11754 8.21296 8.22678 8.17075 8.30955 8.08985L9.42521 7.02757L13.4045 11.0445C13.4906 11.1325 13.6032 11.1747 13.7124 11.1747C13.8316 11.1747 13.9475 11.1254 14.0368 11.0269C14.2057 10.837 14.1991 10.5345 14.0203 10.3551L10.0906 6.3909Z" fill="white"/>
</svg>
