<svg width="15" height="15" viewBox="0 0 15 15" fill="none" xmlns="http://www.w3.org/2000/svg">
<g clip-path="url(#clip0)">
<path d="M11.8547 9.29201C11.5476 8.97226 11.1772 8.8013 10.7846 8.8013C10.3952 8.8013 10.0217 8.96909 9.7019 9.28884L8.70149 10.2861C8.61918 10.2418 8.53687 10.2006 8.45772 10.1595C8.34375 10.1025 8.23611 10.0486 8.1443 9.99166C7.20721 9.39648 6.3556 8.62085 5.53881 7.61727C5.14308 7.11707 4.87714 6.69601 4.68403 6.26862C4.94363 6.03118 5.18423 5.78424 5.41851 5.54681C5.50715 5.45816 5.59579 5.36635 5.68444 5.27771C6.34927 4.61288 6.34927 3.75177 5.68444 3.08694L4.82016 2.22266C4.72202 2.12452 4.62071 2.02321 4.52573 1.9219C4.33578 1.72562 4.13633 1.52301 3.93055 1.33306C3.62347 1.02913 3.25623 0.867676 2.86999 0.867676C2.48376 0.867676 2.11019 1.02913 1.7936 1.33306C1.79044 1.33622 1.79044 1.33622 1.78727 1.33939L0.710881 2.42528C0.305652 2.8305 0.0745449 3.32438 0.0238913 3.8974C-0.0520892 4.82183 0.220174 5.68294 0.42912 6.24646C0.941989 7.62994 1.70813 8.91211 2.851 10.2861C4.23764 11.9418 5.90605 13.2493 7.81189 14.1706C8.54004 14.5157 9.51195 14.9241 10.5978 14.9937C10.6643 14.9969 10.734 15 10.7973 15C11.5286 15 12.1428 14.7373 12.624 14.2149C12.6272 14.2086 12.6335 14.2054 12.6367 14.1991C12.8013 13.9996 12.9912 13.8192 13.1907 13.6261C13.3268 13.4963 13.4661 13.3601 13.6022 13.2177C13.9157 12.8916 14.0803 12.5117 14.0803 12.1223C14.0803 11.7297 13.9125 11.353 13.5927 11.0364L11.8547 9.29201ZM12.9881 12.6257C12.9849 12.6257 12.9849 12.6288 12.9881 12.6257C12.8646 12.7586 12.738 12.8789 12.6018 13.0119C12.396 13.2082 12.1871 13.4139 11.9908 13.6451C11.6711 13.987 11.2943 14.1484 10.8005 14.1484C10.753 14.1484 10.7023 14.1484 10.6548 14.1453C9.71457 14.0851 8.84079 13.7179 8.18546 13.4045C6.39359 12.537 4.82016 11.3055 3.51266 9.74473C2.43311 8.44356 1.71129 7.24054 1.23325 5.94887C0.938823 5.16057 0.831184 4.5464 0.878672 3.96705C0.91033 3.59664 1.05279 3.28955 1.31556 3.02679L2.39512 1.94723C2.55024 1.8016 2.71487 1.72246 2.87632 1.72246C3.07577 1.72246 3.23723 1.84276 3.33854 1.94407C3.34171 1.94723 3.34487 1.9504 3.34804 1.95356C3.54115 2.13402 3.72477 2.3208 3.91789 2.52025C4.01603 2.62156 4.11734 2.72287 4.21865 2.82734L5.08292 3.69162C5.4185 4.0272 5.4185 4.33745 5.08292 4.67303C4.99111 4.76484 4.90247 4.85665 4.81066 4.94529C4.54473 5.21756 4.29146 5.47083 4.01603 5.71776C4.0097 5.72409 4.00337 5.72726 4.0002 5.73359C3.72794 6.00585 3.77859 6.27179 3.83558 6.45224C3.83874 6.46174 3.84191 6.47123 3.84508 6.48073C4.06985 7.02526 4.38644 7.53813 4.86765 8.14914L4.87081 8.1523C5.74459 9.22869 6.66585 10.0676 7.68209 10.7103C7.81189 10.7926 7.94486 10.8591 8.07149 10.9224C8.18546 10.9794 8.2931 11.0332 8.38491 11.0902C8.39757 11.0965 8.41024 11.106 8.4229 11.1124C8.53054 11.1662 8.63185 11.1915 8.73632 11.1915C8.99908 11.1915 9.16371 11.0269 9.21753 10.9731L10.3003 9.89036C10.4079 9.78272 10.5788 9.65292 10.7783 9.65292C10.9746 9.65292 11.136 9.77638 11.2342 9.88402C11.2373 9.88719 11.2373 9.88719 11.2405 9.89036L12.9849 11.6347C13.311 11.9577 13.311 12.2901 12.9881 12.6257Z" fill="white"/>
<path d="M8.10631 3.56805C8.93577 3.70735 9.68924 4.09992 10.2908 4.70143C10.8923 5.30294 11.2817 6.05641 11.4241 6.88587C11.459 7.09481 11.6394 7.24044 11.8452 7.24044C11.8705 7.24044 11.8927 7.23728 11.918 7.23411C12.1523 7.19612 12.3074 6.97451 12.2694 6.74024C12.0985 5.73666 11.6236 4.82173 10.8986 4.09675C10.1736 3.37177 9.25869 2.89689 8.25511 2.72594C8.02084 2.68795 7.80239 2.84307 7.76124 3.07418C7.72008 3.30529 7.87204 3.53006 8.10631 3.56805Z" fill="white"/>
<path d="M14.9825 6.61682C14.7008 4.96424 13.922 3.46046 12.7253 2.26377C11.5286 1.06708 10.0248 0.288277 8.37222 0.00651579C8.14111 -0.0346403 7.92267 0.123652 7.88151 0.35476C7.84352 0.589033 7.99865 0.807477 8.23292 0.848633C9.70821 1.09873 11.0537 1.79839 12.1238 2.86528C13.1938 3.93534 13.8903 5.28083 14.1404 6.75611C14.1752 6.96506 14.3557 7.11069 14.5615 7.11069C14.5868 7.11069 14.609 7.10752 14.6343 7.10436C14.8654 7.06953 15.0237 6.84792 14.9825 6.61682Z" fill="white"/>
</g>
<defs>
<clipPath id="clip0">
<rect width="15" height="15" fill="white"/>
</clipPath>
</defs>
</svg>
