<svg width="16" height="16" viewBox="0 0 16 16" fill="none" xmlns="http://www.w3.org/2000/svg">
<g clip-path="url(#clip0)">
<path d="M7.94203 8.62125C7.9586 8.62125 7.97516 8.62125 7.99504 8.62125C8.00167 8.62125 8.0083 8.62125 8.01492 8.62125C8.02486 8.62125 8.03812 8.62125 8.04806 8.62125C9.01886 8.60468 9.80411 8.26341 10.3839 7.61069C11.6596 6.17271 11.4475 3.7076 11.4243 3.47235C11.3415 1.70636 10.5065 0.861462 9.81737 0.467178C9.3038 0.172292 8.70409 0.0132533 8.0348 0H8.01161C8.0083 0 8.00167 0 7.99836 0H7.97848C7.6107 0 6.8884 0.0596397 6.19591 0.453924C5.50012 0.848209 4.65191 1.6931 4.56908 3.47235C4.54588 3.7076 4.33383 6.17271 5.60946 7.61069C6.18597 8.26341 6.97123 8.60468 7.94203 8.62125ZM5.45373 3.55519C5.45373 3.54525 5.45705 3.53531 5.45705 3.52868C5.56638 1.15303 7.25286 0.897909 7.97516 0.897909H7.98842C7.99504 0.897909 8.00498 0.897909 8.01492 0.897909C8.90952 0.917788 10.4303 1.28225 10.533 3.52868C10.533 3.53862 10.533 3.54856 10.5364 3.55519C10.5397 3.57838 10.7716 5.83144 9.71797 7.0176C9.30049 7.48809 8.74385 7.72003 8.01161 7.72665C8.00498 7.72665 8.00167 7.72665 7.99504 7.72665C7.98842 7.72665 7.9851 7.72665 7.97848 7.72665C7.24955 7.72003 6.6896 7.48809 6.27543 7.0176C5.22511 5.83806 5.45042 3.57507 5.45373 3.55519Z" fill="white"/>
<path d="M14.8039 12.7099C14.8039 12.7066 14.8039 12.7033 14.8039 12.7C14.8039 12.6735 14.8006 12.647 14.8006 12.6171C14.7807 11.9611 14.7376 10.427 13.2997 9.93666C13.2897 9.93334 13.2765 9.93003 13.2665 9.92672C11.7722 9.54569 10.5297 8.68422 10.5165 8.67428C10.3144 8.53181 10.036 8.58151 9.89358 8.78362C9.7511 8.98574 9.8008 9.26405 10.0029 9.40653C10.0592 9.44629 11.3779 10.3641 13.028 10.7882C13.8 11.0632 13.8861 11.8882 13.9093 12.6436C13.9093 12.6735 13.9093 12.7 13.9126 12.7265C13.9159 13.0247 13.8961 13.4852 13.843 13.7503C13.3063 14.0551 11.2023 15.1087 8.00167 15.1087C4.81426 15.1087 2.69705 14.0518 2.15698 13.747C2.10397 13.4819 2.08078 13.0214 2.0874 12.7232C2.0874 12.6967 2.09072 12.6701 2.09072 12.6403C2.11391 11.8849 2.20006 11.0599 2.97206 10.7849C4.62209 10.3608 5.94079 9.43966 5.99712 9.40321C6.19923 9.26074 6.24893 8.98242 6.10646 8.78031C5.96398 8.5782 5.68567 8.5285 5.48355 8.67097C5.4703 8.68091 4.23443 9.54237 2.7335 9.9234C2.72025 9.92672 2.71031 9.93003 2.70037 9.93334C1.26239 10.427 1.21932 11.9611 1.19944 12.6138C1.19944 12.6436 1.19944 12.6701 1.19612 12.6967C1.19612 12.7 1.19612 12.7033 1.19612 12.7066C1.19281 12.8789 1.1895 13.7635 1.3651 14.2075C1.39824 14.2937 1.45787 14.3666 1.53739 14.4163C1.63679 14.4825 4.01907 16 8.00499 16C11.9909 16 14.3732 14.4792 14.4726 14.4163C14.5488 14.3666 14.6117 14.2937 14.6449 14.2075C14.8105 13.7669 14.8072 12.8822 14.8039 12.7099Z" fill="white"/>
</g>
<defs>
<clipPath id="clip0">
<rect width="16" height="16" fill="white"/>
</clipPath>
</defs>
</svg>
