<svg width="15" height="9" viewBox="0 0 15 9" fill="none" xmlns="http://www.w3.org/2000/svg">
<path d="M1.73279 8.68045C1.35699 9.08516 0.72426 9.1086 0.319549 8.73279C-0.0851618 8.35699 -0.108596 7.72426 0.267206 7.31955L1.73279 8.68045ZM7.5 1L6.76721 0.319549C6.95642 0.115782 7.22193 0 7.5 0C7.77807 0 8.04358 0.115782 8.23279 0.319549L7.5 1ZM14.7328 7.31955C15.1086 7.72426 15.0852 8.35699 14.6805 8.73279C14.2757 9.1086 13.643 9.08516 13.2672 8.68045L14.7328 7.31955ZM0.267206 7.31955L6.76721 0.319549L8.23279 1.68045L1.73279 8.68045L0.267206 7.31955ZM8.23279 0.319549L14.7328 7.31955L13.2672 8.68045L6.76721 1.68045L8.23279 0.319549Z" fill="white"/>
</svg>
