<svg width="12" height="15" viewBox="0 0 12 15" fill="none" xmlns="http://www.w3.org/2000/svg">
<path d="M10.4143 6.53687H10.1937V4.58264C10.1937 2.05675 8.14002 0 5.61102 0C3.08513 0 1.02838 2.05365 1.02838 4.58264C1.02838 4.81566 1.21479 5.00207 1.4478 5.00207C1.68082 5.00207 1.86723 4.81566 1.86723 4.58264C1.86723 2.51968 3.54495 0.838857 5.61102 0.838857C7.67399 0.838857 9.35481 2.51657 9.35481 4.58264V6.53687H0.810895C0.363505 6.53687 0 6.90037 0 7.34776V12.5704C0 13.9095 1.09051 15 2.42958 15H8.79557C10.1346 15 11.2251 13.9095 11.2251 12.5704V7.34776C11.2251 6.90037 10.8616 6.53687 10.4143 6.53687ZM10.3863 12.5704C10.3863 13.4466 9.67482 14.1611 8.79557 14.1611H2.43268C1.55655 14.1611 0.841964 13.4497 0.841964 12.5704V7.37572H10.3863V12.5704Z" fill="black"/>
<path d="M5.61414 12.3995C6.48096 12.3995 7.18311 11.6943 7.18311 10.8306C7.18311 9.96375 6.47785 9.2616 5.61414 9.2616C4.74732 9.2616 4.04517 9.96686 4.04517 10.8306C4.04517 11.6943 4.74732 12.3995 5.61414 12.3995ZM5.61414 10.0973C6.01803 10.0973 6.34425 10.4267 6.34425 10.8275C6.34425 11.2282 6.01803 11.5607 5.61414 11.5607C5.21024 11.5607 4.88402 11.2314 4.88402 10.8306C4.88402 10.4298 5.21024 10.0973 5.61414 10.0973Z" fill="black"/>
</svg>
